# Mesh "Crankarm_02_Cap_LOD1" exported with Unity Assets Bundle Extractor; 60 vertices, 174 indices, 384 bits per vertex
g Crankarm_02_Cap_LOD1
# SubMesh 0
# Vertices
v -0.000021 0.003723 0.001025
vt 0.512505 0.444044
vn 0.971174 -0.233779 -0.046565
v -0.000021 0.000974 0.003737
vt 0.510069 0.441561
vn 0.971174 -0.076563 -0.225741
v 0.003573 0.004444 0.010728
vt 0.502982 0.444951
vn 0.830227 -0.213341 -0.514984
v 0.003573 0.009212 0.007068
vt 0.506546 0.449658
vn 0.830227 -0.442249 -0.339320
v 0.003573 0.011512 0.001515
vt 0.512005 0.451797
vn 0.830228 -0.552658 -0.072734
v -0.000021 0.002749 -0.002712
vt 0.515538 0.443141
vn 0.971174 -0.157215 0.179177
v 0.003573 0.010728 -0.004444
vt 0.517647 0.450821
vn 0.830228 -0.514983 0.213342
v 0.003573 0.007068 -0.009212
vt 0.521912 0.447223
vn 0.830227 -0.339318 0.442251
v 0.003573 -0.001515 0.011512
vt 0.502403 0.439177
vn 0.830227 0.072734 -0.552659
v 0.003573 -0.007068 0.009212
vt 0.504804 0.434059
vn 0.830227 0.339319 -0.442252
v -0.000021 -0.002749 0.002712
vt 0.510982 0.438530
vn 0.971174 0.157215 -0.179177
v 0.003573 -0.010728 0.004444
vt 0.509330 0.430891
vn 0.830227 0.514984 -0.213343
v 0.003573 -0.011512 -0.001515
vt 0.514744 0.430359
vn 0.830227 0.552660 0.072734
v -0.000021 -0.003723 -0.001025
vt 0.514058 0.437803
vn 0.971174 0.233779 0.046565
v 0.003573 -0.009212 -0.007068
vt 0.519686 0.432500
vn 0.830226 0.442251 0.339320
v 0.003573 -0.004444 -0.010728
vt 0.522976 0.436747
vn 0.830227 0.213342 0.514984
v -0.000021 -0.000974 -0.003737
vt 0.516294 0.440053
vn 0.971174 0.076564 0.225741
v 0.003573 0.001515 -0.011512
vt 0.523813 0.442089
vn 0.830227 -0.072733 0.552660
v -0.002750 0.000754 0.002905
vt 0.511843 0.441155
vn 0.300627 -0.240090 -0.923028
v -0.000021 0.000974 0.003737
vt 0.510069 0.441561
vn 0.300627 -0.240090 -0.923028
v -0.000021 0.003723 0.001025
vt 0.512505 0.444044
vn 0.300629 -0.919411 -0.253587
v -0.002750 0.002893 0.000800
vt 0.512915 0.442246
vn 0.300629 -0.919411 -0.253587
v -0.000021 0.002749 -0.002712
vt 0.515538 0.443141
vn 0.300629 -0.679317 0.669441
v -0.002750 0.002139 -0.002105
vt 0.514252 0.441882
vn 0.300629 -0.679317 0.669441
v -0.000021 -0.000974 -0.003737
vt 0.516294 0.440053
vn 0.300628 0.240092 0.923027
v -0.002750 -0.000754 -0.002905
vt 0.514591 0.440521
vn 0.300628 0.240092 0.923027
v -0.000021 -0.003723 -0.001025
vt 0.514058 0.437803
vn 0.300628 0.919411 0.253587
v -0.002750 -0.002893 -0.000800
vt 0.513595 0.439508
vn 0.300628 0.919411 0.253587
v -0.000021 -0.002749 0.002712
vt 0.510982 0.438530
vn 0.300627 0.679318 -0.669440
v -0.002750 -0.002139 0.002105
vt 0.512228 0.439825
vn 0.300627 0.679318 -0.669440
v 0.003573 -0.004444 -0.010728
vt 0.522976 0.436747
vn 0.469702 -0.337876 -0.815610
v 0.002989 -0.004563 -0.011015
vt 0.523522 0.436510
vn 0.469702 -0.337876 -0.815610
v 0.002989 -0.009459 -0.007257
vt 0.520050 0.432032
vn 0.469702 -0.700413 -0.537403
v 0.003573 -0.009212 -0.007068
vt 0.519686 0.432500
vn 0.469702 -0.700413 -0.537403
v 0.003573 0.001515 -0.011512
vt 0.523813 0.442089
vn 0.469701 0.115198 -0.875278
v 0.002989 0.001556 -0.011820
vt 0.524411 0.442148
vn 0.469701 0.115198 -0.875278
v 0.003573 0.007068 -0.009212
vt 0.521912 0.447223
vn 0.469700 0.537402 -0.700415
v 0.002989 0.007257 -0.009459
vt 0.522412 0.447573
vn 0.469700 0.537402 -0.700415
v 0.003573 0.010728 -0.004444
vt 0.517647 0.450821
vn 0.469703 0.815609 -0.337877
v 0.002989 0.011015 -0.004563
vt 0.517913 0.451387
vn 0.469703 0.815609 -0.337877
v 0.003573 0.011512 0.001515
vt 0.512005 0.451797
vn 0.469704 0.875276 0.115198
v 0.002989 0.011820 0.001556
vt 0.511942 0.452436
vn 0.469704 0.875276 0.115198
v 0.003573 0.009212 0.007068
vt 0.506546 0.449658
vn 0.469702 0.700412 0.537404
v 0.002989 0.009459 0.007257
vt 0.506152 0.450180
vn 0.469702 0.700412 0.537404
v 0.003573 0.004444 0.010728
vt 0.502982 0.444951
vn 0.469701 0.337874 0.815611
v 0.002989 0.004563 0.011015
vt 0.502377 0.445188
vn 0.469701 0.337874 0.815611
v 0.003573 -0.001515 0.011512
vt 0.502403 0.439177
vn 0.469701 -0.115198 0.875277
v 0.002989 -0.001556 0.011820
vt 0.501778 0.439068
vn 0.469701 -0.115198 0.875277
v 0.003573 -0.007068 0.009212
vt 0.504804 0.434059
vn 0.469701 -0.537401 0.700414
v 0.002989 -0.007257 0.009459
vt 0.504333 0.433660
vn 0.469701 -0.537401 0.700414
v 0.003573 -0.010728 0.004444
vt 0.509330 0.430891
vn 0.469703 -0.815609 0.337877
v 0.002989 -0.011015 0.004563
vt 0.509121 0.430323
vn 0.469703 -0.815609 0.337877
v 0.003573 -0.011512 -0.001515
vt 0.514744 0.430359
vn 0.469703 -0.875276 -0.115198
v 0.002989 -0.011820 -0.001556
vt 0.514837 0.429768
vn 0.469703 -0.875276 -0.115198
v -0.002750 -0.000754 -0.002905
vt 0.514591 0.440521
vn 1.000000 0.000000 0.000000
v -0.002750 -0.002893 -0.000800
vt 0.513595 0.439508
vn 1.000000 0.000000 0.000000
v -0.002750 -0.002139 0.002105
vt 0.512228 0.439825
vn 1.000000 0.000000 0.000000
v -0.002750 0.000754 0.002905
vt 0.511843 0.441155
vn 1.000000 0.000000 0.000000
v -0.002750 0.002139 -0.002105
vt 0.514252 0.441882
vn 1.000000 0.000000 0.000000
v -0.002750 0.002893 0.000800
vt 0.512915 0.442246
vn 1.000000 0.000000 0.000000
# Faces (1 to 60)
g Crankarm_02_Cap_LOD1_0
f -58/-58/-58 -59/-59/-59 -60/-60/-60
f -57/-57/-57 -58/-58/-58 -60/-60/-60
f -56/-56/-56 -57/-57/-57 -60/-60/-60
f -56/-56/-56 -60/-60/-60 -55/-55/-55
f -54/-54/-54 -56/-56/-56 -55/-55/-55
f -53/-53/-53 -54/-54/-54 -55/-55/-55
f -58/-58/-58 -52/-52/-52 -59/-59/-59
f -52/-52/-52 -51/-51/-51 -59/-59/-59
f -51/-51/-51 -50/-50/-50 -59/-59/-59
f -51/-51/-51 -49/-49/-49 -50/-50/-50
f -49/-49/-49 -48/-48/-48 -50/-50/-50
f -48/-48/-48 -47/-47/-47 -50/-50/-50
f -48/-48/-48 -46/-46/-46 -47/-47/-47
f -46/-46/-46 -45/-45/-45 -47/-47/-47
f -45/-45/-45 -44/-44/-44 -47/-47/-47
f -53/-53/-53 -55/-55/-55 -44/-44/-44
f -45/-45/-45 -43/-43/-43 -44/-44/-44
f -43/-43/-43 -53/-53/-53 -44/-44/-44
f -40/-40/-40 -41/-41/-41 -42/-42/-42
f -39/-39/-39 -40/-40/-40 -42/-42/-42
f -40/-40/-40 -39/-39/-39 -38/-38/-38
f -39/-39/-39 -37/-37/-37 -38/-38/-38
f -38/-38/-38 -37/-37/-37 -36/-36/-36
f -37/-37/-37 -35/-35/-35 -36/-36/-36
f -36/-36/-36 -35/-35/-35 -34/-34/-34
f -35/-35/-35 -33/-33/-33 -34/-34/-34
f -34/-34/-34 -33/-33/-33 -32/-32/-32
f -33/-33/-33 -31/-31/-31 -32/-32/-32
f -31/-31/-31 -42/-42/-42 -41/-41/-41
f -32/-32/-32 -31/-31/-31 -41/-41/-41
f -28/-28/-28 -29/-29/-29 -30/-30/-30
f -27/-27/-27 -28/-28/-28 -30/-30/-30
f -30/-30/-30 -29/-29/-29 -26/-26/-26
f -29/-29/-29 -25/-25/-25 -26/-26/-26
f -26/-26/-26 -25/-25/-25 -24/-24/-24
f -25/-25/-25 -23/-23/-23 -24/-24/-24
f -24/-24/-24 -23/-23/-23 -22/-22/-22
f -23/-23/-23 -21/-21/-21 -22/-22/-22
f -22/-22/-22 -21/-21/-21 -20/-20/-20
f -21/-21/-21 -19/-19/-19 -20/-20/-20
f -20/-20/-20 -19/-19/-19 -18/-18/-18
f -19/-19/-19 -17/-17/-17 -18/-18/-18
f -18/-18/-18 -17/-17/-17 -16/-16/-16
f -17/-17/-17 -15/-15/-15 -16/-16/-16
f -16/-16/-16 -15/-15/-15 -14/-14/-14
f -15/-15/-15 -13/-13/-13 -14/-14/-14
f -14/-14/-14 -13/-13/-13 -12/-12/-12
f -13/-13/-13 -11/-11/-11 -12/-12/-12
f -12/-12/-12 -11/-11/-11 -10/-10/-10
f -11/-11/-11 -9/-9/-9 -10/-10/-10
f -10/-10/-10 -9/-9/-9 -8/-8/-8
f -9/-9/-9 -7/-7/-7 -8/-8/-8
f -8/-8/-8 -7/-7/-7 -28/-28/-28
f -27/-27/-27 -8/-8/-8 -28/-28/-28
f -4/-4/-4 -5/-5/-5 -6/-6/-6
f -6/-6/-6 -3/-3/-3 -4/-4/-4
f -6/-6/-6 -2/-2/-2 -3/-3/-3
f -2/-2/-2 -1/-1/-1 -3/-3/-3

