# Blender v2.79 (sub 0) OBJ File: ''
# www.blender.org
mtllib newseatpostslammed.mtl
o SeatPost_LOD1_0.003
v 0.004907 -0.150474 -0.011847
v -0.000000 -0.150474 -0.012823
v 0.000000 -0.092137 -0.012630
v 0.004833 -0.092137 -0.011668
v 0.009068 -0.150474 -0.009068
v 0.008931 -0.092137 -0.008931
v 0.011847 -0.150474 -0.004907
v 0.011668 -0.092137 -0.004833
v 0.012823 -0.150474 -0.000000
v 0.012630 -0.092137 -0.000000
v 0.011847 -0.150474 0.004907
v 0.011668 -0.092137 0.004833
v 0.009068 -0.150474 0.009068
v 0.008931 -0.092137 0.008931
v 0.004907 -0.150474 0.011847
v 0.004833 -0.092137 0.011668
v -0.000000 -0.150474 0.012823
v 0.000000 -0.092137 0.012630
v 0.004907 -0.150474 0.011847
v -0.000000 -0.150474 0.012823
v -0.000000 -0.150474 -0.012823
v 0.004907 -0.150474 -0.011847
v 0.009068 -0.150474 -0.009068
v 0.009068 -0.150474 0.009068
v 0.011847 -0.150474 -0.004907
v 0.011847 -0.150474 0.004907
v 0.012823 -0.150474 -0.000000
v 0.005476 -0.089421 0.013220
v 0.000000 -0.089421 0.014310
v 0.000000 -0.092137 0.012630
v 0.004833 -0.092137 0.011668
v 0.008931 -0.092137 0.008931
v 0.010118 -0.089421 0.010118
v 0.011668 -0.092137 0.004833
v 0.013220 -0.089421 0.005476
v 0.012630 -0.092137 -0.000000
v 0.014310 -0.089421 -0.000000
v 0.009110 -0.087645 0.017903
v 0.000000 -0.088257 0.017617
v 0.020403 -0.087313 0.007460
v 0.015504 -0.085671 0.018873
v 0.020403 -0.085235 0.014629
v 0.020403 -0.082284 0.020399
v 0.013220 -0.089421 -0.005476
v 0.020403 -0.088129 -0.000000
v 0.020403 -0.087313 -0.007460
v 0.011668 -0.092137 -0.004833
v 0.010118 -0.089421 -0.010118
v 0.008931 -0.092137 -0.008931
v 0.005476 -0.089421 -0.013220
v 0.009110 -0.087645 -0.017903
v 0.000000 -0.088257 -0.017617
v 0.000000 -0.089421 -0.014310
v 0.004833 -0.092137 -0.011668
v 0.000000 -0.092137 -0.012630
v 0.015504 -0.085671 -0.018873
v 0.020403 -0.085235 -0.014629
v 0.020403 -0.082284 -0.020399
v 0.000000 -0.082284 0.020397
v 0.009110 -0.087645 0.017903
v 0.015504 -0.085671 0.018873
v 0.000000 -0.088257 0.017617
v 0.020403 -0.082284 0.020399
v 0.000000 -0.079644 0.022661
v 0.020403 -0.079644 0.022661
v 0.000000 -0.078420 0.021954
v 0.020403 -0.078420 0.021954
v 0.020403 -0.078420 -0.021954
v 0.020403 -0.082284 -0.020399
v 0.020403 -0.079644 -0.022661
v 0.020403 -0.078420 0.021954
v 0.020403 -0.085235 -0.014629
v 0.020403 -0.087313 -0.007460
v 0.020403 -0.088129 -0.000000
v 0.020403 -0.087313 0.007460
v 0.020403 -0.085235 0.014629
v 0.020403 -0.079644 0.022661
v 0.020403 -0.082284 0.020399
v 0.020403 -0.078420 -0.021954
v 0.020403 -0.079644 -0.022661
v 0.000000 -0.079644 -0.022661
v 0.000000 -0.078420 -0.021954
v 0.000000 -0.082284 -0.020397
v 0.020403 -0.082284 -0.020399
v 0.015504 -0.085671 -0.018873
v 0.009110 -0.087645 -0.017903
v 0.000000 -0.088257 -0.017617
v -0.004907 -0.150474 -0.011847
v -0.004833 -0.092137 -0.011668
v 0.000000 -0.092137 -0.012630
v -0.000000 -0.150474 -0.012823
v -0.009068 -0.150474 -0.009068
v -0.008931 -0.092137 -0.008931
v -0.011847 -0.150474 -0.004907
v -0.011668 -0.092137 -0.004833
v -0.012823 -0.150474 -0.000000
v -0.012630 -0.092137 -0.000000
v -0.011847 -0.150474 0.004907
v -0.011668 -0.092137 0.004833
v -0.009068 -0.150474 0.009068
v -0.008931 -0.092137 0.008931
v -0.004907 -0.150474 0.011847
v -0.004833 -0.092137 0.011668
v -0.000000 -0.150474 0.012823
v 0.000000 -0.092137 0.012630
v -0.011847 -0.150474 0.004907
v -0.012823 -0.150474 -0.000000
v -0.011847 -0.150474 -0.004907
v -0.009068 -0.150474 -0.009068
v -0.009068 -0.150474 0.009068
v -0.004907 -0.150474 -0.011847
v -0.004907 -0.150474 0.011847
v -0.000000 -0.150474 -0.012823
v -0.000000 -0.150474 0.012823
v -0.005476 -0.089421 0.013220
v -0.004833 -0.092137 0.011668
v 0.000000 -0.092137 0.012630
v 0.000000 -0.089421 0.014310
v -0.008931 -0.092137 0.008931
v -0.010118 -0.089421 0.010118
v -0.009110 -0.087645 0.017903
v -0.011668 -0.092137 0.004833
v -0.013220 -0.089421 0.005476
v -0.012630 -0.092137 -0.000000
v -0.014310 -0.089421 -0.000000
v -0.020403 -0.087313 0.007460
v -0.020403 -0.088129 -0.000000
v 0.000000 -0.088257 0.017617
v -0.015504 -0.085671 0.018873
v -0.020403 -0.085235 0.014629
v -0.020403 -0.082284 0.020399
v -0.020403 -0.087313 -0.007460
v -0.013220 -0.089421 -0.005476
v -0.010118 -0.089421 -0.010118
v -0.011668 -0.092137 -0.004833
v -0.008931 -0.092137 -0.008931
v -0.005476 -0.089421 -0.013220
v -0.004833 -0.092137 -0.011668
v 0.000000 -0.089421 -0.014310
v 0.000000 -0.088257 -0.017617
v -0.009110 -0.087645 -0.017903
v -0.015504 -0.085671 -0.018873
v 0.000000 -0.092137 -0.012630
v -0.020403 -0.085235 -0.014629
v -0.020403 -0.082284 -0.020399
v -0.009110 -0.087645 0.017903
v 0.000000 -0.082284 0.020397
v -0.015504 -0.085671 0.018873
v 0.000000 -0.088257 0.017617
v -0.020403 -0.082284 0.020399
v 0.000000 -0.079644 0.022661
v -0.020403 -0.079644 0.022661
v 0.000000 -0.078420 0.021954
v -0.020403 -0.078420 0.021954
v -0.020403 -0.078420 -0.021954
v 0.000000 -0.078420 -0.021954
v 0.000000 -0.079644 -0.022661
v -0.020403 -0.079644 -0.022661
v 0.000000 -0.082284 -0.020397
v -0.020403 -0.082284 -0.020399
v -0.015504 -0.085671 -0.018873
v -0.009110 -0.087645 -0.017903
v 0.000000 -0.088257 -0.017617
v -0.020403 -0.082284 -0.020399
v -0.020403 -0.078420 -0.021954
v -0.020403 -0.079644 -0.022661
v -0.020403 -0.078420 0.021954
v -0.020403 -0.085235 -0.014629
v -0.020403 -0.087313 -0.007460
v -0.020403 -0.088129 -0.000000
v -0.020403 -0.087313 0.007460
v -0.020403 -0.085235 0.014629
v -0.020403 -0.079644 0.022661
v -0.020403 -0.082284 0.020399
vt 0.992302 0.125295
vt 0.992302 0.142237
vt 0.794709 0.142331
vt 0.794709 0.125385
vt 0.992302 0.108352
vt 0.794709 0.108438
vt 0.992302 0.091416
vt 0.794709 0.091492
vt 0.992302 0.074482
vt 0.794709 0.074553
vt 0.992302 0.057555
vt 0.794709 0.057613
vt 0.992302 0.040631
vt 0.794709 0.040671
vt 0.992302 0.023715
vt 0.794709 0.023733
vt 0.992302 0.006805
vt 0.794709 0.006805
vt 0.735516 0.648339
vt 0.765126 0.642115
vt 0.766563 0.797014
vt 0.736937 0.791402
vt 0.711705 0.774893
vt 0.710559 0.665427
vt 0.694693 0.749985
vt 0.694051 0.690753
vt 0.688488 0.720445
vt 0.930289 0.974066
vt 0.934326 0.993607
vt 0.921964 0.993818
vt 0.918997 0.978725
vt 0.910717 0.966432
vt 0.919253 0.957828
vt 0.898534 0.958400
vt 0.903044 0.947189
vt 0.884310 0.955819
vt 0.884074 0.943616
vt 0.946787 0.960452
vt 0.946444 0.993245
vt 0.909802 0.921747
vt 0.950618 0.936959
vt 0.935847 0.920019
vt 0.958143 0.916883
vt 0.865285 0.947906
vt 0.883634 0.922575
vt 0.857560 0.922847
vt 0.870201 0.958919
vt 0.849557 0.959066
vt 0.858342 0.967367
vt 0.839151 0.975414
vt 0.822362 0.962691
vt 0.823910 0.994644
vt 0.835718 0.994588
vt 0.850467 0.979795
vt 0.847797 0.994452
vt 0.817619 0.939587
vt 0.831644 0.922163
vt 0.809366 0.919922
vt 0.976806 0.990421
vt 0.956665 0.959489
vt 0.964113 0.937746
vt 0.954413 0.990447
vt 0.976729 0.921079
vt 0.988625 0.990408
vt 0.988544 0.921065
vt 0.993426 0.990401
vt 0.993347 0.921059
vt 0.821333 0.880261
vt 0.808281 0.874789
vt 0.820064 0.875631
vt 0.716332 0.986336
vt 0.787361 0.881684
vt 0.765208 0.894038
vt 0.745406 0.910109
vt 0.729539 0.930074
vt 0.717411 0.952351
vt 0.711689 0.985114
vt 0.710729 0.973340
vt 0.776383 0.922341
vt 0.781183 0.922347
vt 0.781107 0.991687
vt 0.776306 0.991682
vt 0.792928 0.991700
vt 0.792995 0.922360
vt 0.805609 0.939021
vt 0.813066 0.960757
vt 0.815332 0.991727
vt 0.992302 0.125295
vt 0.794709 0.125385
vt 0.794709 0.142331
vt 0.992302 0.142237
vt 0.992302 0.108352
vt 0.794709 0.108438
vt 0.992302 0.091416
vt 0.794709 0.091492
vt 0.992302 0.074482
vt 0.794709 0.074553
vt 0.992302 0.057555
vt 0.794709 0.057613
vt 0.992302 0.040631
vt 0.794709 0.040671
vt 0.992302 0.023715
vt 0.794709 0.023733
vt 0.992302 0.006805
vt 0.794709 0.006805
vt 0.694051 0.690753
vt 0.688488 0.720445
vt 0.694693 0.749985
vt 0.711705 0.774893
vt 0.710559 0.665427
vt 0.736937 0.791402
vt 0.735516 0.648339
vt 0.766563 0.797014
vt 0.765126 0.642115
vt 0.930289 0.974066
vt 0.918997 0.978725
vt 0.921964 0.993818
vt 0.934326 0.993607
vt 0.910717 0.966432
vt 0.919253 0.957828
vt 0.946787 0.960452
vt 0.898534 0.958400
vt 0.903044 0.947189
vt 0.884310 0.955819
vt 0.884074 0.943616
vt 0.909802 0.921747
vt 0.883634 0.922575
vt 0.946444 0.993245
vt 0.950618 0.936959
vt 0.935847 0.920019
vt 0.958143 0.916883
vt 0.857560 0.922847
vt 0.865285 0.947906
vt 0.849557 0.959066
vt 0.870201 0.958919
vt 0.858342 0.967367
vt 0.839151 0.975414
vt 0.850467 0.979795
vt 0.835718 0.994588
vt 0.823910 0.994644
vt 0.822362 0.962691
vt 0.817619 0.939587
vt 0.847797 0.994452
vt 0.831644 0.922163
vt 0.809366 0.919922
vt 0.956665 0.959489
vt 0.976806 0.990421
vt 0.964113 0.937746
vt 0.954413 0.990447
vt 0.976729 0.921079
vt 0.988625 0.990408
vt 0.988544 0.921065
vt 0.993426 0.990401
vt 0.993347 0.921059
vt 0.776383 0.922341
vt 0.776306 0.991682
vt 0.781107 0.991687
vt 0.781183 0.922347
vt 0.792928 0.991700
vt 0.792995 0.922360
vt 0.805609 0.939021
vt 0.813066 0.960757
vt 0.815332 0.991727
vt 0.808281 0.874789
vt 0.821333 0.880261
vt 0.820064 0.875631
vt 0.716332 0.986336
vt 0.787361 0.881684
vt 0.765208 0.894038
vt 0.745406 0.910109
vt 0.729539 0.930074
vt 0.717411 0.952351
vt 0.711689 0.985114
vt 0.710729 0.973340
vn 0.3827 0.0033 -0.9239
vn 0.1951 0.0033 -0.9808
vn 0.7071 0.0033 -0.7071
vn 0.9239 0.0033 -0.3827
vn 1.0000 0.0033 -0.0000
vn 0.9239 0.0033 0.3827
vn 0.7071 0.0033 0.7071
vn 0.3827 0.0033 0.9239
vn 0.1951 0.0033 0.9808
vn -0.0000 -1.0000 0.0000
vn 0.2309 -0.7905 0.5673
vn 0.1192 -0.7781 0.6167
vn 0.1668 -0.5187 0.8385
vn 0.3254 -0.5261 0.7857
vn 0.6013 -0.5261 0.6014
vn 0.3933 -0.8319 0.3915
vn 0.7857 -0.5261 0.3254
vn 0.5473 -0.8022 0.2385
vn 0.8504 -0.5261 0.0000
vn 0.5856 -0.8106 0.0000
vn 0.1819 -0.9473 0.2636
vn 0.0574 -0.9451 0.3216
vn 0.2590 -0.9451 0.1993
vn 0.3327 -0.8911 0.3086
vn 0.3715 -0.8639 0.3401
vn 0.4281 -0.8046 0.4115
vn 0.5473 -0.8022 -0.2385
vn 0.2365 -0.9716 0.0000
vn 0.2590 -0.9451 -0.1993
vn 0.7857 -0.5261 -0.3254
vn 0.3933 -0.8319 -0.3915
vn 0.6013 -0.5261 -0.6013
vn 0.2309 -0.7905 -0.5673
vn 0.1818 -0.9473 -0.2636
vn 0.0574 -0.9451 -0.3216
vn 0.1192 -0.7781 -0.6167
vn 0.3254 -0.5261 -0.7857
vn 0.1668 -0.5187 -0.8385
vn 0.3327 -0.8911 -0.3086
vn 0.3715 -0.8639 -0.3401
vn 0.4281 -0.8046 -0.4115
vn -0.0012 -0.4814 0.8765
vn -0.0024 -0.4253 0.9051
vn -0.0024 -0.4196 0.9077
vn -0.0001 -0.4219 0.9066
vn -0.0000 -0.5362 0.8441
vn -0.0000 -0.0924 0.9957
vn 0.0000 -0.0923 0.9957
vn 0.0000 0.5000 0.8660
vn 1.0000 0.0000 0.0000
vn 0.0000 0.5000 -0.8660
vn -0.0000 -0.0923 -0.9957
vn 0.0000 -0.0924 -0.9957
vn -0.0005 -0.4814 -0.8765
vn -0.0001 -0.5362 -0.8441
vn -0.0024 -0.4197 -0.9077
vn -0.0024 -0.4253 -0.9051
vn -0.0001 -0.4219 -0.9066
vn -0.3827 0.0033 -0.9239
vn -0.1951 0.0033 -0.9808
vn -0.7071 0.0033 -0.7071
vn -0.9239 0.0033 -0.3827
vn -1.0000 0.0033 0.0000
vn -0.9239 0.0033 0.3827
vn -0.7071 0.0033 0.7071
vn -0.3827 0.0033 0.9239
vn -0.1951 0.0033 0.9808
vn -0.2309 -0.7905 0.5673
vn -0.3254 -0.5261 0.7857
vn -0.1668 -0.5187 0.8385
vn -0.1192 -0.7781 0.6167
vn -0.6014 -0.5261 0.6013
vn -0.3929 -0.8319 0.3919
vn -0.1819 -0.9473 0.2636
vn -0.7857 -0.5261 0.3254
vn -0.5474 -0.8022 0.2385
vn -0.8504 -0.5261 0.0000
vn -0.5856 -0.8106 -0.0000
vn -0.2590 -0.9451 0.1993
vn -0.2366 -0.9716 0.0000
vn -0.0574 -0.9451 0.3216
vn -0.3327 -0.8911 0.3086
vn -0.3715 -0.8639 0.3401
vn -0.4281 -0.8046 0.4115
vn -0.2590 -0.9451 -0.1993
vn -0.5474 -0.8022 -0.2385
vn -0.3933 -0.8319 -0.3915
vn -0.7857 -0.5261 -0.3254
vn -0.6014 -0.5261 -0.6013
vn -0.2309 -0.7905 -0.5673
vn -0.3254 -0.5261 -0.7857
vn -0.1192 -0.7781 -0.6167
vn -0.0574 -0.9451 -0.3216
vn -0.1819 -0.9473 -0.2636
vn -0.3327 -0.8911 -0.3086
vn -0.1668 -0.5187 -0.8385
vn -0.3715 -0.8639 -0.3401
vn -0.4281 -0.8046 -0.4115
vn 0.0024 -0.4252 0.9051
vn 0.0006 -0.4814 0.8765
vn 0.0024 -0.4197 0.9077
vn 0.0001 -0.4219 0.9066
vn 0.0001 -0.5362 0.8441
vn 0.0012 -0.4814 -0.8765
vn 0.0001 -0.5362 -0.8441
vn 0.0024 -0.4196 -0.9077
vn 0.0024 -0.4253 -0.9051
vn 0.0001 -0.4219 -0.9066
vn -1.0000 -0.0000 0.0000
usemtl None
s 1
f 1/1/1 2/2/2 3/3/2
f 4/4/1 1/1/1 3/3/2
f 5/5/3 1/1/1 4/4/1
f 6/6/3 5/5/3 4/4/1
f 7/7/4 5/5/3 6/6/3
f 8/8/4 7/7/4 6/6/3
f 9/9/5 7/7/4 8/8/4
f 10/10/5 9/9/5 8/8/4
f 11/11/6 9/9/5 10/10/5
f 12/12/6 11/11/6 10/10/5
f 13/13/7 11/11/6 12/12/6
f 14/14/7 13/13/7 12/12/6
f 15/15/8 13/13/7 14/14/7
f 16/16/8 15/15/8 14/14/7
f 17/17/9 15/15/8 16/16/8
f 18/18/9 17/17/9 16/16/8
f 19/19/10 20/20/10 21/21/10
f 22/22/10 19/19/10 21/21/10
f 22/22/10 23/23/10 19/19/10
f 23/23/10 24/24/10 19/19/10
f 23/23/10 25/25/10 24/24/10
f 25/25/10 26/26/10 24/24/10
f 25/25/10 27/27/10 26/26/10
f 28/28/11 29/29/12 30/30/13
f 31/31/14 28/28/11 30/30/13
f 31/31/14 32/32/15 28/28/11
f 32/32/15 33/33/16 28/28/11
f 32/32/15 34/34/17 33/33/16
f 34/34/17 35/35/18 33/33/16
f 34/34/17 36/36/19 35/35/18
f 36/36/19 37/37/20 35/35/18
f 29/29/12 28/28/11 38/38/21
f 38/38/21 28/28/11 33/33/16
f 39/39/22 29/29/12 38/38/21
f 40/40/23 33/33/16 35/35/18
f 40/40/23 38/38/21 33/33/16
f 40/40/23 41/41/24 38/38/21
f 40/40/23 42/42/25 41/41/24
f 42/42/25 43/43/26 41/41/24
f 37/37/20 36/36/19 44/44/27
f 37/37/20 44/44/27 45/45/28
f 35/35/18 37/37/20 45/45/28
f 40/40/23 35/35/18 45/45/28
f 44/44/27 46/46/29 45/45/28
f 36/36/19 47/47/30 44/44/27
f 44/44/27 47/47/30 48/48/31
f 46/46/29 44/44/27 48/48/31
f 47/47/30 49/49/32 48/48/31
f 48/48/31 49/49/32 50/50/33
f 48/48/31 50/50/33 51/51/34
f 46/46/29 48/48/31 51/51/34
f 52/52/35 51/51/34 50/50/33
f 53/53/36 52/52/35 50/50/33
f 50/50/33 54/54/37 53/53/36
f 49/49/32 54/54/37 50/50/33
f 54/54/37 55/55/38 53/53/36
f 56/56/39 46/46/29 51/51/34
f 56/56/39 57/57/40 46/46/29
f 56/56/39 58/58/41 57/57/40
f 59/59/42 60/60/43 61/61/44
f 59/59/42 62/62/45 60/60/43
f 59/59/42 61/61/44 63/63/46
f 64/64/47 59/59/42 63/63/46
f 65/65/48 64/64/47 63/63/46
f 66/66/49 64/64/47 65/65/48
f 67/67/49 66/66/49 65/65/48
f 68/68/50 69/69/50 70/70/50
f 71/71/50 69/69/50 68/68/50
f 71/71/50 72/72/50 69/69/50
f 71/71/50 73/73/50 72/72/50
f 71/71/50 74/74/50 73/73/50
f 71/71/50 75/75/50 74/74/50
f 71/71/50 76/76/50 75/75/50
f 77/77/50 76/76/50 71/71/50
f 78/78/50 76/76/50 77/77/50
f 79/79/51 80/80/52 81/81/53
f 82/82/51 79/79/51 81/81/53
f 81/81/53 80/80/52 83/83/54
f 80/80/52 84/84/55 83/83/54
f 84/84/55 85/85/56 83/83/54
f 85/85/56 86/86/57 83/83/54
f 83/83/54 86/86/57 87/87/58
f 88/88/59 89/89/59 90/90/60
f 91/91/60 88/88/59 90/90/60
f 88/88/59 92/92/61 89/89/59
f 92/92/61 93/93/61 89/89/59
f 92/92/61 94/94/62 93/93/61
f 94/94/62 95/95/62 93/93/61
f 94/94/62 96/96/63 95/95/62
f 96/96/63 97/97/63 95/95/62
f 96/96/63 98/98/64 97/97/63
f 98/98/64 99/99/64 97/97/63
f 98/98/64 100/100/65 99/99/64
f 100/100/65 101/101/65 99/99/64
f 100/100/65 102/102/66 101/101/65
f 102/102/66 103/103/66 101/101/65
f 102/102/66 104/104/67 103/103/66
f 104/104/67 105/105/67 103/103/66
f 106/106/10 107/107/10 108/108/10
f 106/106/10 108/108/10 109/109/10
f 110/110/10 106/106/10 109/109/10
f 110/110/10 109/109/10 111/111/10
f 112/112/10 110/110/10 111/111/10
f 112/112/10 111/111/10 113/113/10
f 114/114/10 112/112/10 113/113/10
f 115/115/68 116/116/69 117/117/70
f 118/118/71 115/115/68 117/117/70
f 119/119/72 116/116/69 115/115/68
f 120/120/73 119/119/72 115/115/68
f 120/120/73 115/115/68 121/121/74
f 115/115/68 118/118/71 121/121/74
f 122/122/75 119/119/72 120/120/73
f 123/123/76 122/122/75 120/120/73
f 124/124/77 122/122/75 123/123/76
f 125/125/78 124/124/77 123/123/76
f 123/123/76 126/126/79 125/125/78
f 126/126/79 123/123/76 120/120/73
f 126/126/79 120/120/73 121/121/74
f 126/126/79 127/127/80 125/125/78
f 118/118/71 128/128/81 121/121/74
f 129/129/82 126/126/79 121/121/74
f 130/130/83 126/126/79 129/129/82
f 131/131/84 130/130/83 129/129/82
f 127/127/80 132/132/85 125/125/78
f 132/132/85 133/133/86 125/125/78
f 124/124/77 125/125/78 133/133/86
f 132/132/85 134/134/87 133/133/86
f 135/135/88 133/133/86 134/134/87
f 135/135/88 124/124/77 133/133/86
f 136/136/89 135/135/88 134/134/87
f 136/136/89 134/134/87 137/137/90
f 138/138/91 136/136/89 137/137/90
f 138/138/91 137/137/90 139/139/92
f 140/140/93 139/139/92 137/137/90
f 141/141/94 140/140/93 137/137/90
f 141/141/94 137/137/90 134/134/87
f 132/132/85 141/141/94 134/134/87
f 132/132/85 142/142/95 141/141/94
f 143/143/96 138/138/91 139/139/92
f 144/144/97 142/142/95 132/132/85
f 145/145/98 142/142/95 144/144/97
f 146/146/99 147/147/100 148/148/101
f 149/149/102 147/147/100 146/146/99
f 148/148/101 147/147/100 150/150/103
f 147/147/100 151/151/47 150/150/103
f 151/151/47 152/152/48 150/150/103
f 151/151/47 153/153/49 152/152/48
f 153/153/49 154/154/49 152/152/48
f 155/155/51 156/156/51 157/157/53
f 158/158/52 155/155/51 157/157/53
f 158/158/52 157/157/53 159/159/104
f 160/160/105 158/158/52 159/159/104
f 161/161/106 160/160/105 159/159/104
f 162/162/107 161/161/106 159/159/104
f 162/162/107 159/159/104 163/163/108
f 164/164/109 165/165/109 166/166/109
f 164/164/109 167/167/109 165/165/109
f 168/168/109 167/167/109 164/164/109
f 169/169/109 167/167/109 168/168/109
f 170/170/109 167/167/109 169/169/109
f 171/171/109 167/167/109 170/170/109
f 172/172/109 167/167/109 171/171/109
f 172/172/109 173/173/109 167/167/109
f 174/174/109 173/173/109 172/172/109
