# Mesh "MTB_Grips" exported with Unity Assets Bundle Extractor; 182 vertices, 576 indices, 256 bits per vertex
g MTB_Grips
# SubMesh 0
# Vertices
v 0.229414 0.068945 -0.010246
vt 0.931487 0.977669
vn -0.995775 -0.023399 0.088798
v 0.228829 0.066825 -0.017360
vt 0.884923 0.963939
vn -0.995775 -0.023399 0.088798
v 0.228735 0.070843 -0.017360
vt 0.884923 0.990146
vn -0.995772 -0.023499 0.088798
v 0.229317 0.065460 -0.012248
vt 0.918384 0.954973
vn -0.995775 -0.023399 0.088798
v 0.230001 0.063728 -0.005037
vt 0.965575 0.943582
vn -0.995766 -0.023399 0.088897
v 0.229739 0.061711 -0.008505
vt 0.942879 0.930478
vn -0.995766 -0.023399 0.088897
v 0.228406 0.065440 -0.022472
vt 0.851461 0.954973
vn -0.995781 -0.023500 0.088698
v 0.228146 0.068915 -0.024474
vt 0.838358 0.977669
vn -0.995772 -0.023499 0.088798
v 0.230340 0.056592 -0.003132
vt 0.978052 0.897017
vn -0.995772 -0.023499 0.088798
v 0.229983 0.056584 -0.007135
vt 0.951845 0.897017
vn -0.995770 -0.023599 0.088797
v 0.228162 0.061675 -0.026215
vt 0.826966 0.930478
vn -0.995764 -0.023499 0.088897
v 0.227805 0.063677 -0.029683
vt 0.804270 0.943582
vn -0.995764 -0.023499 0.088897
v 0.230339 0.049447 -0.005037
vt 0.965575 0.850452
vn -0.995764 -0.023499 0.088897
v 0.229982 0.051449 -0.008505
vt 0.942879 0.863555
vn -0.995764 -0.023499 0.088897
v 0.228161 0.056540 -0.027586
vt 0.818000 0.897017
vn -0.995772 -0.023499 0.088798
v 0.227804 0.056532 -0.031589
vt 0.791793 0.897017
vn -0.995772 -0.023499 0.088798
v 0.229997 0.044209 -0.010246
vt 0.931488 0.816364
vn -0.995772 -0.023499 0.088798
v 0.229737 0.047684 -0.012248
vt 0.918384 0.839060
vn -0.995781 -0.023500 0.088698
v 0.228403 0.051413 -0.026215
vt 0.826966 0.863555
vn -0.995770 -0.023599 0.088797
v 0.228142 0.049396 -0.029683
vt 0.804270 0.850452
vn -0.995781 -0.023500 0.088698
v 0.229409 0.042281 -0.017360
vt 0.884923 0.803887
vn -0.995770 -0.023599 0.088797
v 0.229313 0.046299 -0.017360
vt 0.884923 0.830094
vn -0.995761 -0.023599 0.088897
v 0.228826 0.047664 -0.022472
vt 0.851462 0.839060
vn -0.995784 -0.023400 0.088699
v 0.228730 0.044179 -0.024474
vt 0.838358 0.816364
vn -0.995772 -0.023499 0.088798
v 0.228735 0.070843 -0.017361
vt 0.629989 0.788615
vn -0.023501 0.999724 0.000000
v 0.229533 0.068948 -0.024599
vt 0.624326 0.758404
vn -0.065102 0.864722 -0.498013
v 0.230122 0.070876 -0.017484
vt 0.624334 0.788615
vn -0.023501 0.999724 0.000100
v 0.228146 0.068915 -0.024474
vt 0.629984 0.758406
vn -0.065500 0.864700 -0.498000
v 0.229192 0.063709 -0.029807
vt 0.624325 0.728195
vn -0.088801 0.498008 -0.862614
v 0.227805 0.063677 -0.029683
vt 0.629980 0.728191
vn -0.088896 0.498079 -0.862563
v 0.229414 0.068945 -0.010246
vt 0.629993 0.818822
vn 0.024301 0.866827 0.498016
v 0.230801 0.068978 -0.010370
vt 0.624338 0.818822
vn 0.024101 0.866832 0.498018
v 0.229191 0.056565 -0.031713
vt 0.624323 0.697988
vn -0.088597 -0.002100 -0.996065
v 0.227804 0.056532 -0.031589
vt 0.629975 0.697981
vn -0.088498 -0.002000 -0.996074
v 0.230001 0.063728 -0.005037
vt 0.629998 0.849027
vn 0.065501 0.501607 0.862612
v 0.231388 0.063761 -0.005162
vt 0.624342 0.849026
vn 0.065302 0.501614 0.862624
v 0.229529 0.049428 -0.029807
vt 0.624322 0.667781
vn -0.065299 -0.501688 -0.862580
v 0.228142 0.049396 -0.029683
vt 0.629970 0.667773
vn -0.065503 -0.501725 -0.862543
v 0.230340 0.056592 -0.003132
vt 0.630003 0.879230
vn 0.089201 0.002000 0.996012
v 0.231727 0.056625 -0.003256
vt 0.624344 0.879232
vn 0.088903 0.002200 0.996038
v 0.230117 0.044212 -0.024599
vt 0.624321 0.637574
vn -0.023800 -0.866795 -0.498097
v 0.228730 0.044179 -0.024474
vt 0.629966 0.637564
vn -0.023699 -0.866865 -0.497980
v 0.230339 0.049447 -0.005037
vt 0.630008 0.909447
vn 0.088901 -0.498003 0.862606
v 0.231726 0.049480 -0.005162
vt 0.624341 0.909443
vn 0.088801 -0.498008 0.862614
v 0.230796 0.042313 -0.017484
vt 0.624339 0.607360
vn -0.000200 -0.966198 -0.257800
v 0.229409 0.042281 -0.017361
vt 0.629961 0.607359
vn -0.000200 -0.966223 -0.257706
v 0.229997 0.044209 -0.010246
vt 0.630012 0.939660
vn 0.064899 -0.864691 0.498095
v 0.231385 0.044242 -0.010370
vt 0.624326 0.939649
vn 0.064797 -0.864764 0.497980
v 0.229409 0.042281 -0.017361
vt 0.630017 0.969853
vn 0.045701 -0.965116 0.257804
v 0.230796 0.042313 -0.017484
vt 0.624101 0.969853
vn 0.045601 -0.965120 0.257805
v 0.358417 0.052469 -0.041298
vt 0.098545 0.667894
vn -0.065099 -0.501695 -0.862592
v 0.358079 0.059605 -0.043204
vt 0.098439 0.698174
vn -0.088795 -0.002100 -0.996048
v 0.358079 0.066750 -0.041298
vt 0.098378 0.728483
vn -0.088702 0.498012 -0.862621
v 0.358421 0.071989 -0.036090
vt 0.098428 0.758776
vn -0.064797 0.864764 -0.497980
v 0.359009 0.073916 -0.028975
vt 0.098433 0.789128
vn -0.023601 0.999721 0.000000
v 0.359688 0.072018 -0.021861
vt 0.098414 0.819459
vn 0.024001 0.866834 0.498019
v 0.360276 0.066801 -0.016653
vt 0.098482 0.849724
vn 0.065099 0.501695 0.862592
v 0.359684 0.045354 -0.028975
vt 0.099361 0.969934
vn 0.045801 -0.965111 0.257803
v 0.360614 0.059665 -0.014746
vt 0.098561 0.879884
vn 0.088795 0.002100 0.996048
v 0.360613 0.052521 -0.016653
vt 0.098596 0.909983
vn 0.088702 -0.498012 0.862621
v 0.360272 0.047282 -0.021861
vt 0.098748 0.939972
vn 0.064800 -0.864696 0.498098
v 0.358678 0.054486 -0.037831
vt 0.839373 0.860793
vn 0.995770 0.023599 -0.088797
v 0.358079 0.059605 -0.043204
vt 0.857547 0.841691
vn 0.995772 0.023499 -0.088798
v 0.358417 0.052469 -0.041298
vt 0.832255 0.848467
vn 0.995772 0.023499 -0.088798
v 0.358435 0.059613 -0.039200
vt 0.857547 0.855924
vn 0.995772 0.023499 -0.088798
v 0.358079 0.066750 -0.041298
vt 0.882838 0.848467
vn 0.995764 0.023499 -0.088897
v 0.358436 0.064747 -0.037831
vt 0.875720 0.860794
vn 0.995764 0.023499 -0.088897
v 0.358421 0.071989 -0.036090
vt 0.901354 0.866983
vn 0.995772 0.023499 -0.088798
v 0.358681 0.068512 -0.034087
vt 0.889027 0.874101
vn 0.995775 0.023399 -0.088798
v 0.359101 0.050737 -0.034087
vt 0.826066 0.874101
vn 0.995772 0.023499 -0.088798
v 0.359004 0.047253 -0.036090
vt 0.813740 0.866983
vn 0.995772 0.023499 -0.088798
v 0.358681 0.068512 -0.034087
vt 0.086154 0.758637
vn 0.995775 0.023399 -0.088798
v 0.359105 0.069898 -0.028975
vt 0.086159 0.789007
vn 0.995770 0.023599 -0.088797
v 0.358421 0.071989 -0.036090
vt 0.098428 0.758776
vn 0.995772 0.023499 -0.088798
v 0.359009 0.073916 -0.028975
vt 0.098433 0.789128
vn 0.995768 0.023699 -0.088797
v 0.359593 0.068534 -0.023863
vt 0.086164 0.819383
vn 0.995779 0.023600 -0.088698
v 0.359688 0.072018 -0.021861
vt 0.098414 0.819459
vn 0.995779 0.023600 -0.088698
v 0.360015 0.064785 -0.020120
vt 0.086169 0.849702
vn 0.995781 0.023500 -0.088698
v 0.360276 0.066801 -0.016653
vt 0.098482 0.849724
vn 0.995781 0.023500 -0.088698
v 0.360257 0.059657 -0.018750
vt 0.086173 0.879828
vn 0.995772 0.023499 -0.088798
v 0.360614 0.059665 -0.014746
vt 0.098561 0.879884
vn 0.995772 0.023499 -0.088798
v 0.360256 0.054523 -0.020120
vt 0.086178 0.909957
vn 0.995761 0.023599 -0.088897
v 0.360613 0.052521 -0.016653
vt 0.098596 0.909983
vn 0.995761 0.023599 -0.088897
v 0.360012 0.050758 -0.023863
vt 0.086182 0.940041
vn 0.995772 0.023499 -0.088798
v 0.360272 0.047282 -0.021861
vt 0.098748 0.939972
vn 0.995775 0.023399 -0.088798
v 0.359684 0.045354 -0.028975
vt 0.099361 0.969934
vn 0.995772 0.023499 -0.088798
v 0.359589 0.049372 -0.028975
vt 0.086187 0.969936
vn 0.995772 0.023499 -0.088798
v 0.359101 0.050737 -0.034087
vt 0.086136 0.637385
vn 0.995772 0.023499 -0.088798
v 0.359004 0.047253 -0.036090
vt 0.098772 0.637661
vn 0.995772 0.023499 -0.088798
v 0.359589 0.049372 -0.028975
vt 0.086131 0.607443
vn 0.995772 0.023499 -0.088798
v 0.359684 0.045354 -0.028975
vt 0.099336 0.607441
vn 0.995772 0.023499 -0.088798
v 0.359004 0.047253 -0.036090
vt 0.098772 0.637661
vn -0.024001 -0.866834 -0.498019
v 0.359684 0.045354 -0.028975
vt 0.099336 0.607441
vn -0.000200 -0.966198 -0.257800
v -0.359557 0.073925 -0.031951
vt 0.629989 0.788615
vn 0.025599 0.999672 0.000000
v -0.357454 0.071957 -0.038902
vt 0.624326 0.758404
vn 0.075898 0.864376 -0.497086
v -0.358173 0.073889 -0.031801
vt 0.624334 0.788615
vn 0.025599 0.999672 0.000000
v -0.358840 0.071993 -0.039052
vt 0.629984 0.758406
vn 0.075898 0.864376 -0.497086
v -0.357027 0.066715 -0.044101
vt 0.624325 0.728195
vn 0.105903 0.497414 -0.861025
v -0.358411 0.066751 -0.044251
vt 0.629980 0.728191
vn 0.106002 0.497409 -0.861016
v -0.360374 0.072032 -0.024850
vt 0.629993 0.818822
vn -0.031599 0.867181 0.496989
v -0.358989 0.071997 -0.024700
vt 0.624338 0.818822
vn -0.031600 0.867113 0.497108
v -0.357004 0.059570 -0.046004
vt 0.624323 0.697988
vn 0.107500 -0.002800 -0.994201
v -0.358388 0.059605 -0.046153
vt 0.629975 0.697981
vn 0.107599 -0.002800 -0.994190
v -0.361069 0.066819 -0.019651
vt 0.629998 0.849027
vn -0.079801 0.502109 0.861115
v -0.359684 0.066783 -0.019502
vt 0.624342 0.849026
vn -0.079996 0.502175 0.861058
v -0.357391 0.052435 -0.044101
vt 0.624322 0.667781
vn 0.080301 -0.502207 -0.861011
v -0.358776 0.052471 -0.044251
vt 0.629970 0.667773
vn 0.080301 -0.502207 -0.861011
v -0.361457 0.059684 -0.017749
vt 0.630003 0.879230
vn -0.107500 0.002800 0.994201
v -0.360073 0.059649 -0.017599
vt 0.624344 0.879232
vn -0.107500 0.002800 0.994201
v -0.358087 0.047222 -0.038902
vt 0.624321 0.637574
vn 0.031600 -0.867113 -0.497108
v -0.359472 0.047258 -0.039052
vt 0.629966 0.637564
vn 0.031600 -0.867113 -0.497108
v -0.361434 0.052539 -0.019651
vt 0.630008 0.909447
vn -0.105301 -0.497403 0.861105
v -0.360049 0.052503 -0.019502
vt 0.624341 0.909443
vn -0.105601 -0.497505 0.861009
v -0.358903 0.045329 -0.031801
vt 0.624339 0.607360
vn 0.003100 -0.966350 -0.257213
v -0.360288 0.045365 -0.031951
vt 0.629961 0.607359
vn 0.003100 -0.966350 -0.257213
v -0.361006 0.047297 -0.024850
vt 0.630012 0.939660
vn -0.075898 -0.864376 0.497086
v -0.359621 0.047262 -0.024700
vt 0.624326 0.939649
vn -0.075898 -0.864376 0.497086
v -0.360288 0.045365 -0.031951
vt 0.630017 0.969853
vn -0.052601 -0.964924 0.257206
v -0.358903 0.045329 -0.031801
vt 0.624101 0.969853
vn -0.052502 -0.964929 0.257208
v -0.228748 0.049147 -0.030193
vt 0.098545 0.667894
vn 0.080202 -0.502211 -0.861018
v -0.228360 0.056281 -0.032095
vt 0.098439 0.698174
vn 0.107401 -0.002800 -0.994212
v -0.228384 0.063427 -0.030193
vt 0.098378 0.728483
vn 0.105804 0.497420 -0.861034
v -0.228811 0.068668 -0.024994
vt 0.098428 0.758776
vn 0.075798 0.864382 -0.497090
v -0.229530 0.070601 -0.017893
vt 0.098433 0.789128
vn 0.025599 0.999672 0.000000
v -0.230345 0.068708 -0.010792
vt 0.098414 0.819459
vn -0.031600 0.867113 0.497108
v -0.231041 0.063495 -0.005593
vt 0.098482 0.849724
vn -0.080301 0.502207 0.861011
v -0.230260 0.042041 -0.017893
vt 0.099361 0.969934
vn -0.052500 -0.964904 0.257301
v -0.231429 0.056360 -0.003691
vt 0.098561 0.879884
vn -0.107401 0.002700 0.994212
v -0.231406 0.049215 -0.005593
vt 0.098596 0.909983
vn -0.105804 -0.497420 0.861034
v -0.230978 0.043973 -0.010792
vt 0.098748 0.939972
vn -0.075798 -0.864382 0.497090
v -0.229071 0.051166 -0.026732
vt 0.086140 0.667631
vn 0.993889 -0.025500 0.107399
v -0.228360 0.056281 -0.032095
vt 0.098439 0.698174
vn 0.993881 -0.025400 0.107498
v -0.228748 0.049147 -0.030193
vt 0.098545 0.667894
vn 0.993891 -0.025400 0.107399
v -0.228792 0.056292 -0.028099
vt 0.086145 0.697945
vn 0.993881 -0.025400 0.107498
v -0.228384 0.063427 -0.030193
vt 0.098378 0.728483
vn 0.993894 -0.025300 0.107399
v -0.228809 0.061427 -0.026732
vt 0.086150 0.728283
vn 0.993891 -0.025400 0.107399
v -0.228811 0.068668 -0.024994
vt 0.098428 0.758776
vn 0.993894 -0.025300 0.107399
v -0.229116 0.065194 -0.022996
vt 0.086154 0.758637
vn 0.993883 -0.025300 0.107498
v -0.229633 0.066583 -0.017893
vt 0.086159 0.789007
vn 0.993881 -0.025400 0.107498
v -0.229530 0.070601 -0.017893
vt 0.098433 0.789128
vn 0.993881 -0.025400 0.107498
v -0.230219 0.065222 -0.012791
vt 0.086164 0.819383
vn 0.993900 -0.025500 0.107300
v -0.230345 0.068708 -0.010792
vt 0.098414 0.819459
vn 0.993897 -0.025600 0.107300
v -0.230719 0.061476 -0.009055
vt 0.086169 0.849702
vn 0.993891 -0.025400 0.107399
v -0.231041 0.063495 -0.005593
vt 0.098482 0.849724
vn 0.993891 -0.025400 0.107399
v -0.230997 0.056349 -0.007687
vt 0.086173 0.879828
vn 0.993891 -0.025400 0.107399
v -0.231429 0.056360 -0.003691
vt 0.098561 0.879884
vn 0.993891 -0.025400 0.107399
v -0.229571 0.047419 -0.022996
vt 0.086136 0.637385
vn 0.993881 -0.025400 0.107498
v -0.230981 0.051214 -0.009055
vt 0.086178 0.909957
vn 0.993891 -0.025400 0.107399
v -0.231406 0.049215 -0.005593
vt 0.098596 0.909983
vn 0.993891 -0.025400 0.107399
v -0.230674 0.047447 -0.012791
vt 0.086182 0.940041
vn 0.993894 -0.025300 0.107399
v -0.230978 0.043973 -0.010792
vt 0.098748 0.939972
vn 0.993894 -0.025300 0.107399
v -0.230260 0.042041 -0.017893
vt 0.099361 0.969934
vn 0.993883 -0.025300 0.107498
v -0.230157 0.046058 -0.017893
vt 0.086187 0.969936
vn 0.993881 -0.025400 0.107498
v -0.229443 0.043933 -0.024994
vt 0.098772 0.637661
vn 0.993883 -0.025300 0.107498
v -0.230157 0.046058 -0.017893
vt 0.086131 0.607443
vn 0.993881 -0.025400 0.107498
v -0.230260 0.042041 -0.017893
vt 0.099336 0.607441
vn 0.993883 -0.025300 0.107498
v -0.229443 0.043933 -0.024994
vt 0.098772 0.637661
vn 0.031599 -0.867181 -0.496989
v -0.230260 0.042041 -0.017893
vt 0.099336 0.607441
vn 0.003100 -0.966350 -0.257213
v -0.360374 0.072032 -0.024850
vt 0.918214 0.968970
vn -0.993881 0.025400 -0.107498
v -0.359660 0.069907 -0.031951
vt 0.859787 0.951742
vn -0.993891 0.025400 -0.107399
v -0.359557 0.073925 -0.031951
vt 0.859787 0.984625
vn -0.993891 0.025400 -0.107399
v -0.360246 0.068546 -0.026848
vt 0.901773 0.940491
vn -0.993881 0.025400 -0.107498
v -0.361069 0.066819 -0.019651
vt 0.960986 0.926198
vn -0.993891 0.025400 -0.107399
v -0.360746 0.064800 -0.023112
vt 0.932508 0.909756
vn -0.993889 0.025500 -0.107399
v -0.359144 0.068519 -0.037054
vt 0.817800 0.940491
vn -0.993891 0.025400 -0.107399
v -0.358840 0.071993 -0.039052
vt 0.801358 0.968970
vn -0.993891 0.025400 -0.107399
v -0.361457 0.059684 -0.017749
vt 0.976642 0.867770
vn -0.993881 0.025400 -0.107498
v -0.361025 0.059672 -0.021745
vt 0.943758 0.867770
vn -0.993881 0.025400 -0.107498
v -0.358837 0.064751 -0.040790
vt 0.787064 0.909756
vn -0.993870 0.025399 -0.107597
v -0.358411 0.066751 -0.044251
vt 0.758586 0.926198
vn -0.993870 0.025399 -0.107597
v -0.361434 0.052539 -0.019651
vt 0.960986 0.809342
vn -0.993870 0.025399 -0.107597
v -0.361008 0.054538 -0.023112
vt 0.932508 0.825783
vn -0.993870 0.025399 -0.107597
v -0.358820 0.059616 -0.042157
vt 0.775814 0.867770
vn -0.993881 0.025400 -0.107498
v -0.358388 0.059605 -0.046153
vt 0.742930 0.867770
vn -0.993878 0.025499 -0.107498
v -0.361006 0.047297 -0.024850
vt 0.918215 0.766569
vn -0.993891 0.025400 -0.107399
v -0.360701 0.050771 -0.026848
vt 0.901773 0.795047
vn -0.993891 0.025400 -0.107399
v -0.359099 0.054490 -0.040790
vt 0.787064 0.825783
vn -0.993881 0.025400 -0.107498
v -0.358776 0.052471 -0.044251
vt 0.758586 0.809342
vn -0.993881 0.025400 -0.107498
v -0.360288 0.045365 -0.031951
vt 0.859787 0.750914
vn -0.993891 0.025400 -0.107399
v -0.360185 0.049382 -0.031951
vt 0.859787 0.783797
vn -0.993891 0.025400 -0.107399
v -0.359599 0.050743 -0.037054
vt 0.817801 0.795047
vn -0.993881 0.025400 -0.107498
v -0.359472 0.047258 -0.039052
vt 0.801358 0.766569
vn -0.993881 0.025400 -0.107498
# Faces (1 to 182)
g MTB_Grips_0
f -180/-180/-180 -181/-181/-181 -182/-182/-182
f -182/-182/-182 -181/-181/-181 -179/-179/-179
f -179/-179/-179 -178/-178/-178 -182/-182/-182
f -177/-177/-177 -178/-178/-178 -179/-179/-179
f -180/-180/-180 -176/-176/-176 -181/-181/-181
f -175/-175/-175 -176/-176/-176 -180/-180/-180
f -177/-177/-177 -174/-174/-174 -178/-178/-178
f -173/-173/-173 -174/-174/-174 -177/-177/-177
f -175/-175/-175 -172/-172/-172 -176/-176/-176
f -171/-171/-171 -172/-172/-172 -175/-175/-175
f -173/-173/-173 -170/-170/-170 -174/-174/-174
f -169/-169/-169 -170/-170/-170 -173/-173/-173
f -171/-171/-171 -168/-168/-168 -172/-172/-172
f -167/-167/-167 -168/-168/-168 -171/-171/-171
f -169/-169/-169 -166/-166/-166 -170/-170/-170
f -165/-165/-165 -166/-166/-166 -169/-169/-169
f -167/-167/-167 -164/-164/-164 -168/-168/-168
f -163/-163/-163 -164/-164/-164 -167/-167/-167
f -165/-165/-165 -162/-162/-162 -166/-166/-166
f -161/-161/-161 -162/-162/-162 -165/-165/-165
f -163/-163/-163 -160/-160/-160 -164/-164/-164
f -159/-159/-159 -160/-160/-160 -163/-163/-163
f -160/-160/-160 -159/-159/-159 -161/-161/-161
f -161/-161/-161 -159/-159/-159 -162/-162/-162
f -156/-156/-156 -157/-157/-157 -158/-158/-158
f -158/-158/-158 -157/-157/-157 -155/-155/-155
f -154/-154/-154 -155/-155/-155 -157/-157/-157
f -153/-153/-153 -155/-155/-155 -154/-154/-154
f -152/-152/-152 -156/-156/-156 -158/-158/-158
f -151/-151/-151 -156/-156/-156 -152/-152/-152
f -150/-150/-150 -153/-153/-153 -154/-154/-154
f -149/-149/-149 -153/-153/-153 -150/-150/-150
f -148/-148/-148 -151/-151/-151 -152/-152/-152
f -147/-147/-147 -151/-151/-151 -148/-148/-148
f -146/-146/-146 -149/-149/-149 -150/-150/-150
f -145/-145/-145 -149/-149/-149 -146/-146/-146
f -144/-144/-144 -147/-147/-147 -148/-148/-148
f -143/-143/-143 -147/-147/-147 -144/-144/-144
f -142/-142/-142 -145/-145/-145 -146/-146/-146
f -141/-141/-141 -145/-145/-145 -142/-142/-142
f -140/-140/-140 -143/-143/-143 -144/-144/-144
f -139/-139/-139 -143/-143/-143 -140/-140/-140
f -138/-138/-138 -141/-141/-141 -142/-142/-142
f -137/-137/-137 -141/-141/-141 -138/-138/-138
f -136/-136/-136 -139/-139/-139 -140/-140/-140
f -135/-135/-135 -139/-139/-139 -136/-136/-136
f -136/-136/-136 -134/-134/-134 -135/-135/-135
f -135/-135/-135 -134/-134/-134 -133/-133/-133
f -132/-132/-132 -142/-142/-142 -146/-146/-146
f -132/-132/-132 -146/-146/-146 -131/-131/-131
f -131/-131/-131 -146/-146/-146 -150/-150/-150
f -131/-131/-131 -150/-150/-150 -130/-130/-130
f -130/-130/-130 -150/-150/-150 -154/-154/-154
f -130/-130/-130 -154/-154/-154 -129/-129/-129
f -129/-129/-129 -154/-154/-154 -157/-157/-157
f -129/-129/-129 -157/-157/-157 -128/-128/-128
f -128/-128/-128 -157/-157/-157 -156/-156/-156
f -128/-128/-128 -156/-156/-156 -127/-127/-127
f -127/-127/-127 -156/-156/-156 -151/-151/-151
f -127/-127/-127 -151/-151/-151 -126/-126/-126
f -125/-125/-125 -135/-135/-135 -133/-133/-133
f -126/-126/-126 -151/-151/-151 -147/-147/-147
f -126/-126/-126 -147/-147/-147 -124/-124/-124
f -124/-124/-124 -147/-147/-147 -143/-143/-143
f -124/-124/-124 -143/-143/-143 -123/-123/-123
f -123/-123/-123 -143/-143/-143 -139/-139/-139
f -123/-123/-123 -139/-139/-139 -122/-122/-122
f -122/-122/-122 -135/-135/-135 -125/-125/-125
f -122/-122/-122 -139/-139/-139 -135/-135/-135
f -119/-119/-119 -120/-120/-120 -121/-121/-121
f -121/-121/-121 -120/-120/-120 -118/-118/-118
f -120/-120/-120 -117/-117/-117 -118/-118/-118
f -118/-118/-118 -117/-117/-117 -116/-116/-116
f -117/-117/-117 -115/-115/-115 -116/-116/-116
f -116/-116/-116 -115/-115/-115 -114/-114/-114
f -113/-113/-113 -119/-119/-119 -121/-121/-121
f -112/-112/-112 -119/-119/-119 -113/-113/-113
f -109/-109/-109 -110/-110/-110 -111/-111/-111
f -108/-108/-108 -110/-110/-110 -109/-109/-109
f -108/-108/-108 -107/-107/-107 -110/-110/-110
f -106/-106/-106 -107/-107/-107 -108/-108/-108
f -106/-106/-106 -105/-105/-105 -107/-107/-107
f -104/-104/-104 -105/-105/-105 -106/-106/-106
f -104/-104/-104 -103/-103/-103 -105/-105/-105
f -102/-102/-102 -103/-103/-103 -104/-104/-104
f -102/-102/-102 -101/-101/-101 -103/-103/-103
f -100/-100/-100 -101/-101/-101 -102/-102/-102
f -100/-100/-100 -99/-99/-99 -101/-101/-101
f -98/-98/-98 -99/-99/-99 -100/-100/-100
f -98/-98/-98 -97/-97/-97 -99/-99/-99
f -99/-99/-99 -97/-97/-97 -96/-96/-96
f -93/-93/-93 -94/-94/-94 -95/-95/-95
f -92/-92/-92 -94/-94/-94 -93/-93/-93
f -91/-91/-91 -142/-142/-142 -132/-132/-132
f -91/-91/-91 -138/-138/-138 -142/-142/-142
f -90/-90/-90 -138/-138/-138 -91/-91/-91
f -87/-87/-87 -88/-88/-88 -89/-89/-89
f -89/-89/-89 -88/-88/-88 -86/-86/-86
f -85/-85/-85 -86/-86/-86 -88/-88/-88
f -84/-84/-84 -86/-86/-86 -85/-85/-85
f -83/-83/-83 -87/-87/-87 -89/-89/-89
f -82/-82/-82 -87/-87/-87 -83/-83/-83
f -81/-81/-81 -84/-84/-84 -85/-85/-85
f -80/-80/-80 -84/-84/-84 -81/-81/-81
f -79/-79/-79 -82/-82/-82 -83/-83/-83
f -78/-78/-78 -82/-82/-82 -79/-79/-79
f -77/-77/-77 -80/-80/-80 -81/-81/-81
f -76/-76/-76 -80/-80/-80 -77/-77/-77
f -75/-75/-75 -78/-78/-78 -79/-79/-79
f -74/-74/-74 -78/-78/-78 -75/-75/-75
f -73/-73/-73 -76/-76/-76 -77/-77/-77
f -72/-72/-72 -76/-76/-76 -73/-73/-73
f -71/-71/-71 -74/-74/-74 -75/-75/-75
f -70/-70/-70 -74/-74/-74 -71/-71/-71
f -69/-69/-69 -72/-72/-72 -73/-73/-73
f -68/-68/-68 -72/-72/-72 -69/-69/-69
f -67/-67/-67 -70/-70/-70 -71/-71/-71
f -66/-66/-66 -70/-70/-70 -67/-67/-67
f -67/-67/-67 -65/-65/-65 -66/-66/-66
f -66/-66/-66 -65/-65/-65 -64/-64/-64
f -63/-63/-63 -73/-73/-73 -77/-77/-77
f -63/-63/-63 -77/-77/-77 -62/-62/-62
f -62/-62/-62 -77/-77/-77 -81/-81/-81
f -62/-62/-62 -81/-81/-81 -61/-61/-61
f -61/-61/-61 -81/-81/-81 -85/-85/-85
f -61/-61/-61 -85/-85/-85 -60/-60/-60
f -60/-60/-60 -85/-85/-85 -88/-88/-88
f -60/-60/-60 -88/-88/-88 -59/-59/-59
f -59/-59/-59 -88/-88/-88 -87/-87/-87
f -59/-59/-59 -87/-87/-87 -58/-58/-58
f -58/-58/-58 -87/-87/-87 -82/-82/-82
f -58/-58/-58 -82/-82/-82 -57/-57/-57
f -56/-56/-56 -66/-66/-66 -64/-64/-64
f -57/-57/-57 -82/-82/-82 -78/-78/-78
f -57/-57/-57 -78/-78/-78 -55/-55/-55
f -55/-55/-55 -78/-78/-78 -74/-74/-74
f -55/-55/-55 -74/-74/-74 -54/-54/-54
f -54/-54/-54 -74/-74/-74 -70/-70/-70
f -54/-54/-54 -70/-70/-70 -53/-53/-53
f -53/-53/-53 -66/-66/-66 -56/-56/-56
f -53/-53/-53 -70/-70/-70 -66/-66/-66
f -50/-50/-50 -51/-51/-51 -52/-52/-52
f -52/-52/-52 -51/-51/-51 -49/-49/-49
f -51/-51/-51 -48/-48/-48 -49/-49/-49
f -49/-49/-49 -48/-48/-48 -47/-47/-47
f -48/-48/-48 -46/-46/-46 -47/-47/-47
f -47/-47/-47 -46/-46/-46 -45/-45/-45
f -46/-46/-46 -44/-44/-44 -45/-45/-45
f -43/-43/-43 -44/-44/-44 -46/-46/-46
f -43/-43/-43 -42/-42/-42 -44/-44/-44
f -41/-41/-41 -42/-42/-42 -43/-43/-43
f -41/-41/-41 -40/-40/-40 -42/-42/-42
f -39/-39/-39 -40/-40/-40 -41/-41/-41
f -39/-39/-39 -38/-38/-38 -40/-40/-40
f -37/-37/-37 -38/-38/-38 -39/-39/-39
f -36/-36/-36 -50/-50/-50 -52/-52/-52
f -37/-37/-37 -35/-35/-35 -38/-38/-38
f -34/-34/-34 -35/-35/-35 -37/-37/-37
f -34/-34/-34 -33/-33/-33 -35/-35/-35
f -32/-32/-32 -33/-33/-33 -34/-34/-34
f -32/-32/-32 -31/-31/-31 -33/-33/-33
f -33/-33/-33 -31/-31/-31 -30/-30/-30
f -29/-29/-29 -50/-50/-50 -36/-36/-36
f -28/-28/-28 -29/-29/-29 -36/-36/-36
f -27/-27/-27 -29/-29/-29 -28/-28/-28
f -26/-26/-26 -73/-73/-73 -63/-63/-63
f -26/-26/-26 -69/-69/-69 -73/-73/-73
f -25/-25/-25 -69/-69/-69 -26/-26/-26
f -22/-22/-22 -23/-23/-23 -24/-24/-24
f -24/-24/-24 -23/-23/-23 -21/-21/-21
f -21/-21/-21 -20/-20/-20 -24/-24/-24
f -19/-19/-19 -20/-20/-20 -21/-21/-21
f -22/-22/-22 -18/-18/-18 -23/-23/-23
f -17/-17/-17 -18/-18/-18 -22/-22/-22
f -19/-19/-19 -16/-16/-16 -20/-20/-20
f -15/-15/-15 -16/-16/-16 -19/-19/-19
f -17/-17/-17 -14/-14/-14 -18/-18/-18
f -13/-13/-13 -14/-14/-14 -17/-17/-17
f -15/-15/-15 -12/-12/-12 -16/-16/-16
f -11/-11/-11 -12/-12/-12 -15/-15/-15
f -13/-13/-13 -10/-10/-10 -14/-14/-14
f -9/-9/-9 -10/-10/-10 -13/-13/-13
f -11/-11/-11 -8/-8/-8 -12/-12/-12
f -7/-7/-7 -8/-8/-8 -11/-11/-11
f -9/-9/-9 -6/-6/-6 -10/-10/-10
f -5/-5/-5 -6/-6/-6 -9/-9/-9
f -7/-7/-7 -4/-4/-4 -8/-8/-8
f -3/-3/-3 -4/-4/-4 -7/-7/-7
f -5/-5/-5 -2/-2/-2 -6/-6/-6
f -1/-1/-1 -2/-2/-2 -5/-5/-5
f -2/-2/-2 -1/-1/-1 -3/-3/-3
f -3/-3/-3 -1/-1/-1 -4/-4/-4

