# Mesh "Crankarm_01_Cap_LOD1" exported with Unity Assets Bundle Extractor; 201 vertices, 456 indices, 448 bits per vertex
g Crankarm_01_Cap_LOD1
# SubMesh 0
# Vertices
v 0.001574 -0.003711 -0.002142
vt 0.515007 0.437359
vn 1.000000 0.000001 0.000000
v 0.001574 -0.000000 0.000000
vt 0.513075 0.441062
vn 1.000000 -0.000002 0.000000
v 0.001574 -0.000744 -0.004220
vt 0.517153 0.440163
vn 1.000000 -0.000008 0.000000
v 0.001574 -0.000000 -0.004285
vt 0.517248 0.440884
vn 1.000000 -0.000010 0.000000
v 0.001574 0.003282 -0.002754
vt 0.515893 0.444145
vn 1.000000 0.000000 0.000000
v 0.001574 0.003711 -0.002142
vt 0.515315 0.444587
vn 1.000000 0.000001 0.000000
v 0.001574 0.004026 0.001465
vt 0.511815 0.445045
vn 1.000000 0.000001 0.000000
v 0.001574 0.003711 0.002142
vt 0.511142 0.444765
vn 1.000000 -0.000001 0.000000
v 0.001574 0.000744 0.004220
vt 0.508996 0.441962
vn 1.000000 -0.000001 0.000000
v 0.001574 -0.000000 0.004285
vt 0.508901 0.441240
vn 1.000000 0.000000 0.000000
v 0.001574 -0.003282 0.002754
vt 0.510256 0.437980
vn 1.000000 0.000000 0.000000
v 0.001574 -0.003711 0.002142
vt 0.510834 0.437537
vn 1.000000 -0.000001 0.000000
v 0.001574 -0.004026 -0.001465
vt 0.514335 0.437080
vn 1.000000 -0.000001 0.000000
v 0.005504 0.008274 0.004777
vt 0.508766 0.449319
vn 1.000000 0.000001 0.000000
v 0.005504 0.004407 0.002544
vt 0.510779 0.445461
vn 1.000000 0.000001 0.000000
v 0.005504 0.000884 0.005012
vt 0.508230 0.442131
vn 1.000000 -0.000001 0.000000
v 0.005504 0.004777 0.008274
vt 0.505215 0.446059
vn 1.000000 -0.000001 0.000000
v 0.005504 0.009553 0.000000
vt 0.513471 0.450367
vn 1.000000 0.000000 0.000000
v 0.005504 0.004782 0.001740
vt 0.511578 0.445792
vn 1.000000 0.000000 0.000000
v 0.005504 0.008274 -0.004777
vt 0.518071 0.448922
vn 1.000000 -0.000002 0.000000
v 0.005504 0.004407 -0.002544
vt 0.515736 0.445249
vn 1.000000 -0.000002 0.000000
v 0.005504 0.004777 -0.008274
vt 0.521331 0.445371
vn 1.000000 -0.000002 0.000000
v 0.005504 0.003898 -0.003271
vt 0.516422 0.444723
vn 1.000000 -0.000002 0.000000
v 0.005504 0.000000 -0.009553
vt 0.522379 0.440665
vn 1.000000 0.000001 0.000000
v 0.005504 -0.000000 -0.005089
vt 0.518031 0.440851
vn 1.000000 0.000001 0.000000
v 0.005504 -0.004777 -0.008274
vt 0.520934 0.436066
vn 1.000000 0.000001 0.000000
v 0.005504 -0.000884 -0.005012
vt 0.517919 0.439993
vn 1.000000 0.000001 0.000000
v 0.005504 -0.008274 -0.004777
vt 0.517383 0.432806
vn 1.000000 0.000000 0.000000
v 0.005504 -0.004407 -0.002544
vt 0.515370 0.436664
vn 1.000000 0.000000 0.000000
v 0.005504 -0.009553 0.000000
vt 0.512678 0.431758
vn 1.000000 0.000000 0.000000
v 0.005504 -0.004782 -0.001741
vt 0.514571 0.436333
vn 1.000000 0.000000 0.000000
v 0.005504 -0.008274 0.004777
vt 0.508078 0.433203
vn 1.000000 0.000000 0.000000
v 0.005504 -0.004407 0.002544
vt 0.510413 0.436876
vn 1.000000 0.000000 0.000000
v 0.005504 -0.004777 0.008274
vt 0.504818 0.436754
vn 1.000000 -0.000001 0.000000
v 0.005504 -0.003898 0.003271
vt 0.509727 0.437401
vn 1.000000 -0.000001 0.000000
v 0.005504 0.000000 0.009553
vt 0.503770 0.441459
vn 1.000000 -0.000002 0.000000
v 0.005504 -0.000000 0.005089
vt 0.508118 0.441274
vn 1.000000 -0.000002 0.000000
v 0.003657 0.010300 0.005947
vt 0.507711 0.451341
vn 0.784898 0.536610 0.309814
v 0.005504 0.008274 0.004777
vt 0.508766 0.449319
vn 0.784898 0.536610 0.309814
v 0.005504 0.004777 0.008274
vt 0.505215 0.446059
vn 0.784899 0.309813 0.536609
v 0.003657 0.005947 0.010300
vt 0.503290 0.447282
vn 0.784899 0.309813 0.536609
v 0.001574 0.000744 0.004220
vt 0.508996 0.441962
vn 0.197569 -0.335718 -0.921010
v 0.005504 0.000884 0.005012
vt 0.508230 0.442131
vn 0.197569 -0.335718 -0.921010
v 0.005504 0.004407 0.002544
vt 0.510779 0.445461
vn 0.197575 -0.750654 -0.630462
v 0.001574 0.003711 0.002142
vt 0.511142 0.444765
vn 0.197575 -0.750654 -0.630462
v 0.001574 -0.000000 0.004285
vt 0.508901 0.441240
vn 0.197569 0.170655 -0.965320
v 0.005504 -0.000000 0.005089
vt 0.508118 0.441274
vn 0.197569 0.170655 -0.965320
v 0.001574 -0.003282 0.002754
vt 0.510256 0.437980
vn 0.197573 0.629767 -0.751238
v 0.005504 -0.003898 0.003271
vt 0.509727 0.437401
vn 0.197573 0.629767 -0.751238
v 0.003657 0.011893 0.000000
vt 0.513569 0.452646
vn 0.784898 0.619625 0.000000
v 0.005504 0.009553 0.000000
vt 0.513471 0.450367
vn 0.784898 0.619625 0.000000
v 0.005504 0.008274 0.004777
vt 0.508766 0.449319
vn 0.784898 0.536610 0.309814
v 0.003657 0.010300 0.005947
vt 0.507711 0.451341
vn 0.784898 0.536610 0.309814
v 0.001574 0.003711 0.002142
vt 0.511142 0.444765
vn 0.197575 -0.750654 -0.630462
v 0.005504 0.004407 0.002544
vt 0.510779 0.445461
vn 0.197575 -0.750654 -0.630462
v 0.005504 0.004782 0.001740
vt 0.511578 0.445792
vn 0.197574 -0.965475 -0.169774
v 0.001574 0.004026 0.001465
vt 0.511815 0.445045
vn 0.197574 -0.965475 -0.169774
v 0.003657 0.010300 -0.005947
vt 0.519294 0.450847
vn 0.784896 0.536613 -0.309815
v 0.005504 0.008274 -0.004777
vt 0.518071 0.448922
vn 0.784896 0.536613 -0.309815
v 0.005504 0.009553 0.000000
vt 0.513471 0.450367
vn 0.784898 0.619625 0.000000
v 0.003657 0.011893 0.000000
vt 0.513569 0.452646
vn 0.784898 0.619625 0.000000
v 0.001574 0.004026 0.001465
vt 0.511815 0.445045
vn 0.197574 -0.965475 -0.169774
v 0.005504 0.004782 0.001740
vt 0.511578 0.445792
vn 0.197574 -0.965475 -0.169774
v 0.005504 0.004407 -0.002544
vt 0.515736 0.445249
vn 0.197575 -0.921320 0.334863
v 0.001574 0.003711 -0.002142
vt 0.515315 0.444587
vn 0.197575 -0.921320 0.334863
v 0.003657 0.005947 -0.010300
vt 0.523353 0.446426
vn 0.784896 0.309815 -0.536613
v 0.005504 0.004777 -0.008274
vt 0.521331 0.445371
vn 0.784896 0.309815 -0.536613
v 0.005504 0.008274 -0.004777
vt 0.518071 0.448922
vn 0.784896 0.536613 -0.309815
v 0.003657 0.010300 -0.005947
vt 0.519294 0.450847
vn 0.784896 0.536613 -0.309815
v 0.003657 0.000000 -0.011893
vt 0.524658 0.440568
vn 0.784895 0.000001 -0.619628
v 0.005504 0.000000 -0.009553
vt 0.522379 0.440665
vn 0.784895 0.000001 -0.619628
v 0.003657 -0.005947 -0.010300
vt 0.522859 0.434843
vn 0.784894 -0.309816 -0.536615
v 0.005504 -0.004777 -0.008274
vt 0.520934 0.436066
vn 0.784894 -0.309816 -0.536615
v 0.001574 0.003711 -0.002142
vt 0.515315 0.444587
vn 0.197575 -0.921320 0.334863
v 0.005504 0.004407 -0.002544
vt 0.515736 0.445249
vn 0.197575 -0.921320 0.334863
v 0.005504 0.003898 -0.003271
vt 0.516422 0.444723
vn 0.197573 -0.629762 0.751242
v 0.001574 0.003282 -0.002754
vt 0.515893 0.444145
vn 0.197573 -0.629762 0.751242
v 0.001574 0.003282 -0.002754
vt 0.515893 0.444145
vn 0.197573 -0.629762 0.751242
v 0.005504 0.003898 -0.003271
vt 0.516422 0.444723
vn 0.197573 -0.629762 0.751242
v 0.005504 -0.000000 -0.005089
vt 0.518031 0.440851
vn 0.197572 -0.170659 0.965319
v 0.001574 -0.000000 -0.004285
vt 0.517248 0.440884
vn 0.197572 -0.170659 0.965319
v 0.005504 -0.000884 -0.005012
vt 0.517919 0.439993
vn 0.197570 0.335715 0.921011
v 0.001574 -0.000744 -0.004220
vt 0.517153 0.440163
vn 0.197570 0.335715 0.921011
v 0.005504 -0.004407 -0.002544
vt 0.515370 0.436664
vn 0.197571 0.750643 0.630476
v 0.001574 -0.003711 -0.002142
vt 0.515007 0.437359
vn 0.197571 0.750643 0.630476
v 0.003657 -0.010300 -0.005947
vt 0.518438 0.430784
vn 0.784893 -0.536617 -0.309815
v 0.005504 -0.008274 -0.004777
vt 0.517383 0.432806
vn 0.784893 -0.536617 -0.309815
v 0.005504 -0.004777 -0.008274
vt 0.520934 0.436066
vn 0.784894 -0.309816 -0.536615
v 0.003657 -0.005947 -0.010300
vt 0.522859 0.434843
vn 0.784894 -0.309816 -0.536615
v 0.003657 -0.011893 0.000000
vt 0.512580 0.429479
vn 0.784894 -0.619631 0.000000
v 0.005504 -0.009553 0.000000
vt 0.512678 0.431758
vn 0.784894 -0.619631 0.000000
v 0.005504 -0.008274 -0.004777
vt 0.517383 0.432806
vn 0.784893 -0.536617 -0.309815
v 0.003657 -0.010300 -0.005947
vt 0.518438 0.430784
vn 0.784893 -0.536617 -0.309815
v 0.001574 -0.003711 -0.002142
vt 0.515007 0.437359
vn 0.197571 0.750643 0.630476
v 0.005504 -0.004407 -0.002544
vt 0.515370 0.436664
vn 0.197571 0.750643 0.630476
v 0.005504 -0.004782 -0.001741
vt 0.514571 0.436333
vn 0.197570 0.965473 0.169787
v 0.001574 -0.004026 -0.001465
vt 0.514335 0.437080
vn 0.197570 0.965473 0.169787
v 0.003657 -0.010300 0.005947
vt 0.506855 0.431278
vn 0.784896 -0.536614 0.309814
v 0.005504 -0.008274 0.004777
vt 0.508078 0.433203
vn 0.784896 -0.536614 0.309814
v 0.005504 -0.009553 0.000000
vt 0.512678 0.431758
vn 0.784894 -0.619631 0.000000
v 0.003657 -0.011893 0.000000
vt 0.512580 0.429479
vn 0.784894 -0.619631 0.000000
v 0.001574 -0.004026 -0.001465
vt 0.514335 0.437080
vn 0.197570 0.965473 0.169787
v 0.005504 -0.004782 -0.001741
vt 0.514571 0.436333
vn 0.197570 0.965473 0.169787
v 0.005504 -0.004407 0.002544
vt 0.510413 0.436876
vn 0.197574 0.921322 -0.334859
v 0.001574 -0.003711 0.002142
vt 0.510834 0.437537
vn 0.197574 0.921322 -0.334859
v 0.003657 -0.005947 0.010300
vt 0.502796 0.435699
vn 0.784897 -0.309813 0.536612
v 0.005504 -0.004777 0.008274
vt 0.504818 0.436754
vn 0.784897 -0.309813 0.536612
v 0.005504 -0.008274 0.004777
vt 0.508078 0.433203
vn 0.784896 -0.536614 0.309814
v 0.003657 -0.010300 0.005947
vt 0.506855 0.431278
vn 0.784896 -0.536614 0.309814
v 0.003657 0.000000 0.011893
vt 0.501491 0.441556
vn 0.784898 0.000001 0.619625
v 0.005504 0.000000 0.009553
vt 0.503770 0.441459
vn 0.784898 0.000001 0.619625
v 0.003657 0.005947 0.010300
vt 0.503290 0.447282
vn 0.784899 0.309813 0.536609
v 0.005504 0.004777 0.008274
vt 0.505215 0.446059
vn 0.784899 0.309813 0.536609
v 0.001574 -0.003711 0.002142
vt 0.510834 0.437537
vn 0.197574 0.921322 -0.334859
v 0.005504 -0.004407 0.002544
vt 0.510413 0.436876
vn 0.197574 0.921322 -0.334859
v 0.005504 -0.003898 0.003271
vt 0.509727 0.437401
vn 0.197573 0.629767 -0.751238
v 0.001574 -0.003282 0.002754
vt 0.510256 0.437980
vn 0.197573 0.629767 -0.751238
v -0.015403 -0.013676 -0.013594
vt 0.194074 0.659976
vn -0.000031 -0.999953 0.009669
v -0.012919 -0.013670 -0.012928
vt 0.194781 0.657340
vn -0.000017 -0.999953 0.009669
v -0.010436 -0.013676 -0.013594
vt 0.194074 0.654704
vn 0.000026 -0.999953 0.009711
v -0.008618 -0.013694 -0.015412
vt 0.192144 0.652774
vn 0.000031 -0.999953 0.009655
v -0.017221 -0.013694 -0.015412
vt 0.192144 0.661906
vn -0.000011 -0.999954 0.009597
v -0.007952 -0.013718 -0.017895
vt 0.189508 0.652067
vn 0.000084 -0.999954 0.009620
v -0.008618 -0.013742 -0.020378
vt 0.186872 0.652774
vn 0.000026 -0.999954 0.009629
v -0.017886 -0.013718 -0.017895
vt 0.189508 0.662613
vn 0.000073 -0.999953 0.009686
v -0.017221 -0.013742 -0.020378
vt 0.186872 0.661906
vn 0.000007 -0.999953 0.009676
v -0.010436 -0.013759 -0.022196
vt 0.184942 0.654704
vn -0.000031 -0.999953 0.009672
v -0.015403 -0.013759 -0.022196
vt 0.184942 0.659976
vn -0.000001 -0.999954 0.009604
v -0.012919 -0.013766 -0.022862
vt 0.184235 0.657340
vn 0.000006 -0.999954 0.009642
v -0.008618 -0.013694 -0.015412
vt 0.188925 0.644404
vn 0.865996 -0.004186 0.500033
v -0.008618 -0.006878 -0.015354
vt 0.188891 0.654975
vn 0.865996 -0.004186 0.500033
v -0.007952 -0.006902 -0.017838
vt 0.190675 0.654938
vn 1.000000 0.000000 -0.000005
v -0.007952 -0.013718 -0.017895
vt 0.190714 0.644367
vn 1.000000 0.000000 -0.000005
v -0.008618 -0.006926 -0.020321
vt 0.192464 0.654901
vn 0.865995 0.004186 -0.500035
v -0.008618 -0.013742 -0.020378
vt 0.192498 0.644330
vn 0.865995 0.004186 -0.500035
v -0.010436 -0.006943 -0.022139
vt 0.194258 0.654874
vn 0.499953 0.007249 -0.866022
v -0.010436 -0.013759 -0.022196
vt 0.194278 0.644303
vn 0.499953 0.007249 -0.866022
v -0.012919 -0.006950 -0.022805
vt 0.196055 0.654864
vn -0.000000 0.008370 -0.999965
v -0.012919 -0.013766 -0.022862
vt 0.196055 0.644293
vn -0.000000 0.008370 -0.999965
v -0.010436 -0.013676 -0.013594
vt 0.187131 0.644431
vn 0.499954 -0.007249 0.866022
v -0.010436 -0.006860 -0.013537
vt 0.187112 0.655003
vn 0.499954 -0.007249 0.866022
v -0.012919 -0.013670 -0.012928
vt 0.185335 0.644441
vn -0.000000 -0.008370 0.999965
v -0.012919 -0.006854 -0.012871
vt 0.185335 0.655012
vn -0.000000 -0.008370 0.999965
v -0.012919 -0.013766 -0.022862
vt 0.185332 0.644293
vn -0.000000 0.008370 -0.999965
v -0.012919 -0.006950 -0.022805
vt 0.185332 0.654864
vn -0.000000 0.008370 -0.999965
v -0.015403 -0.006943 -0.022139
vt 0.187129 0.654874
vn -0.499950 0.007249 -0.866024
v -0.015403 -0.013759 -0.022196
vt 0.187109 0.644303
vn -0.499950 0.007249 -0.866024
v -0.017221 -0.006926 -0.020321
vt 0.188923 0.654901
vn -0.865993 0.004186 -0.500038
v -0.017221 -0.013742 -0.020378
vt 0.188889 0.644330
vn -0.865993 0.004186 -0.500038
v -0.017886 -0.006902 -0.017838
vt 0.190712 0.654938
vn -1.000000 0.000000 -0.000005
v -0.017886 -0.013718 -0.017895
vt 0.190673 0.644367
vn -1.000000 0.000000 -0.000005
v -0.017221 -0.006878 -0.015354
vt 0.192496 0.654975
vn -0.865994 -0.004186 0.500037
v -0.017221 -0.013694 -0.015412
vt 0.192462 0.644404
vn -0.865994 -0.004186 0.500037
v -0.015403 -0.006860 -0.013537
vt 0.194275 0.655003
vn -0.499951 -0.007249 0.866024
v -0.015403 -0.013676 -0.013594
vt 0.194256 0.644431
vn -0.499951 -0.007249 0.866024
v -0.012919 -0.006854 -0.012871
vt 0.196052 0.655012
vn -0.000000 -0.008370 0.999965
v -0.012919 -0.013670 -0.012928
vt 0.196052 0.644441
vn -0.000000 -0.008370 0.999965
v -0.012123 0.010569 -0.020640
vt 0.195982 0.653628
vn 0.258820 0.000000 -0.965926
v -0.012123 -0.006938 -0.020640
vt 0.181995 0.653628
vn 0.168307 0.753367 -0.635697
v -0.009948 -0.006912 -0.018464
vt 0.182016 0.656512
vn 0.631006 0.755412 -0.176589
v -0.009948 0.010595 -0.018464
vt 0.196003 0.656512
vn 0.965924 0.000000 -0.258826
v -0.015094 0.010578 -0.019844
vt 0.195990 0.650744
vn -0.707097 0.000000 -0.707116
v -0.015094 -0.006928 -0.019844
vt 0.182002 0.650744
vn -0.460582 0.754129 -0.468139
v -0.015891 0.010615 -0.016872
vt 0.196019 0.647860
vn -0.965924 0.000000 0.258826
v -0.015891 -0.006892 -0.016872
vt 0.182031 0.647860
vn -0.633102 0.756887 0.162181
v -0.013715 0.010641 -0.014697
vt 0.196040 0.644976
vn -0.258811 0.000000 0.965928
v -0.013715 -0.006865 -0.014697
vt 0.182052 0.644976
vn -0.170395 0.758871 0.628554
v -0.010744 -0.006875 -0.015493
vt 0.182045 0.659396
vn 0.464785 0.758141 0.457380
v -0.010744 0.010632 -0.015493
vt 0.196032 0.659396
vn 0.707105 0.000000 0.707109
v -0.013715 -0.006865 -0.014697
vt 0.182053 0.662280
vn -0.170395 0.758871 0.628554
v -0.013715 0.010641 -0.014697
vt 0.196040 0.662280
vn -0.258811 0.000000 0.965928
v -0.017221 -0.006878 -0.015354
vt 0.192870 0.649291
vn -0.001804 0.999955 -0.009282
v -0.015891 -0.006892 -0.016872
vt 0.191766 0.648031
vn -0.633102 0.756887 0.162181
v -0.013715 -0.006865 -0.014697
vt 0.189959 0.649838
vn -0.170395 0.758871 0.628554
v -0.015403 -0.006860 -0.013537
vt 0.191360 0.650801
vn -0.001804 0.999955 -0.009282
v -0.017886 -0.006902 -0.017838
vt 0.193423 0.647229
vn -0.000157 0.999954 -0.009573
v -0.015891 -0.006892 -0.016872
vt 0.191766 0.648031
vn -0.000157 0.999954 -0.009573
v -0.017221 -0.006926 -0.020321
vt 0.192870 0.645166
vn 0.001997 0.999943 -0.010489
v -0.015094 -0.006928 -0.019844
vt 0.191104 0.645563
vn -0.460582 0.754129 -0.468139
v -0.015403 -0.006943 -0.022139
vt 0.191360 0.643656
vn 0.002786 0.999973 -0.006854
v -0.015094 -0.006928 -0.019844
vt 0.191104 0.645563
vn 0.002786 0.999973 -0.006854
v -0.012123 -0.006938 -0.020640
vt 0.188636 0.644902
vn 0.168307 0.753367 -0.635697
v -0.012919 -0.006950 -0.022805
vt 0.189298 0.643104
vn 0.001278 0.999980 -0.006246
v -0.010436 -0.006943 -0.022139
vt 0.187235 0.643656
vn -0.001269 0.999987 -0.004880
v -0.012123 -0.006938 -0.020640
vt 0.188636 0.644902
vn -0.001269 0.999987 -0.004880
v -0.008618 -0.006926 -0.020321
vt 0.185725 0.645166
vn -0.002772 0.999962 -0.008266
v -0.009948 -0.006912 -0.018464
vt 0.186830 0.646708
vn 0.631006 0.755412 -0.176589
v -0.007952 -0.006902 -0.017838
vt 0.185172 0.647229
vn -0.002032 0.999956 -0.009105
v -0.009948 -0.006912 -0.018464
vt 0.186830 0.646708
vn -0.002032 0.999956 -0.009105
v -0.008618 -0.006878 -0.015354
vt 0.185725 0.649291
vn 0.000301 0.999940 -0.010945
v -0.010744 -0.006875 -0.015493
vt 0.187491 0.649176
vn 0.464785 0.758141 0.457380
v -0.010436 -0.006860 -0.013537
vt 0.187235 0.650801
vn 0.001748 0.999967 -0.007890
v -0.010744 -0.006875 -0.015493
vt 0.187491 0.649176
vn 0.001748 0.999967 -0.007890
v -0.012919 -0.006854 -0.012871
vt 0.189298 0.651354
vn 0.001020 0.999973 -0.007275
v -0.013715 -0.006865 -0.014697
vt 0.189959 0.649838
vn -0.001007 0.999982 -0.005855
v -0.015094 0.010578 -0.019844
vt 0.188252 0.645583
vn -0.000011 0.999925 -0.012212
v -0.012123 0.010569 -0.020640
vt 0.187240 0.647327
vn -0.000011 0.999925 -0.012212
v -0.009948 0.010595 -0.018464
vt 0.188244 0.649075
vn -0.000011 0.999925 -0.012212
v -0.015891 0.010615 -0.016872
vt 0.190268 0.645587
vn -0.000011 0.999925 -0.012212
v -0.010744 0.010632 -0.015493
vt 0.190260 0.649079
vn -0.000011 0.999925 -0.012212
v -0.013715 0.010641 -0.014697
vt 0.191272 0.647336
vn -0.000011 0.999925 -0.012212
# Faces (1 to 201)
g Crankarm_01_Cap_LOD1_0
f -199/-199/-199 -200/-200/-200 -201/-201/-201
f -198/-198/-198 -200/-200/-200 -199/-199/-199
f -197/-197/-197 -200/-200/-200 -198/-198/-198
f -196/-196/-196 -200/-200/-200 -197/-197/-197
f -195/-195/-195 -200/-200/-200 -196/-196/-196
f -194/-194/-194 -200/-200/-200 -195/-195/-195
f -193/-193/-193 -200/-200/-200 -194/-194/-194
f -192/-192/-192 -200/-200/-200 -193/-193/-193
f -191/-191/-191 -200/-200/-200 -192/-192/-192
f -190/-190/-190 -200/-200/-200 -191/-191/-191
f -189/-189/-189 -200/-200/-200 -190/-190/-190
f -201/-201/-201 -200/-200/-200 -189/-189/-189
f -186/-186/-186 -187/-187/-187 -188/-188/-188
f -185/-185/-185 -186/-186/-186 -188/-188/-188
f -188/-188/-188 -187/-187/-187 -184/-184/-184
f -187/-187/-187 -183/-183/-183 -184/-184/-184
f -184/-184/-184 -183/-183/-183 -182/-182/-182
f -183/-183/-183 -181/-181/-181 -182/-182/-182
f -182/-182/-182 -181/-181/-181 -180/-180/-180
f -181/-181/-181 -179/-179/-179 -180/-180/-180
f -180/-180/-180 -179/-179/-179 -178/-178/-178
f -179/-179/-179 -177/-177/-177 -178/-178/-178
f -178/-178/-178 -177/-177/-177 -176/-176/-176
f -177/-177/-177 -175/-175/-175 -176/-176/-176
f -176/-176/-176 -175/-175/-175 -174/-174/-174
f -175/-175/-175 -173/-173/-173 -174/-174/-174
f -174/-174/-174 -173/-173/-173 -172/-172/-172
f -173/-173/-173 -171/-171/-171 -172/-172/-172
f -172/-172/-172 -171/-171/-171 -170/-170/-170
f -171/-171/-171 -169/-169/-169 -170/-170/-170
f -170/-170/-170 -169/-169/-169 -168/-168/-168
f -169/-169/-169 -167/-167/-167 -168/-168/-168
f -168/-168/-168 -167/-167/-167 -166/-166/-166
f -167/-167/-167 -165/-165/-165 -166/-166/-166
f -166/-166/-166 -165/-165/-165 -185/-185/-185
f -165/-165/-165 -186/-186/-186 -185/-185/-185
f -162/-162/-162 -163/-163/-163 -164/-164/-164
f -161/-161/-161 -162/-162/-162 -164/-164/-164
f -158/-158/-158 -159/-159/-159 -160/-160/-160
f -157/-157/-157 -158/-158/-158 -160/-160/-160
f -160/-160/-160 -159/-159/-159 -156/-156/-156
f -159/-159/-159 -155/-155/-155 -156/-156/-156
f -156/-156/-156 -155/-155/-155 -154/-154/-154
f -155/-155/-155 -153/-153/-153 -154/-154/-154
f -150/-150/-150 -151/-151/-151 -152/-152/-152
f -149/-149/-149 -150/-150/-150 -152/-152/-152
f -146/-146/-146 -147/-147/-147 -148/-148/-148
f -145/-145/-145 -146/-146/-146 -148/-148/-148
f -142/-142/-142 -143/-143/-143 -144/-144/-144
f -141/-141/-141 -142/-142/-142 -144/-144/-144
f -138/-138/-138 -139/-139/-139 -140/-140/-140
f -137/-137/-137 -138/-138/-138 -140/-140/-140
f -134/-134/-134 -135/-135/-135 -136/-136/-136
f -133/-133/-133 -134/-134/-134 -136/-136/-136
f -136/-136/-136 -135/-135/-135 -132/-132/-132
f -135/-135/-135 -131/-131/-131 -132/-132/-132
f -132/-132/-132 -131/-131/-131 -130/-130/-130
f -131/-131/-131 -129/-129/-129 -130/-130/-130
f -126/-126/-126 -127/-127/-127 -128/-128/-128
f -125/-125/-125 -126/-126/-126 -128/-128/-128
f -122/-122/-122 -123/-123/-123 -124/-124/-124
f -121/-121/-121 -122/-122/-122 -124/-124/-124
f -120/-120/-120 -122/-122/-122 -121/-121/-121
f -119/-119/-119 -120/-120/-120 -121/-121/-121
f -118/-118/-118 -120/-120/-120 -119/-119/-119
f -117/-117/-117 -118/-118/-118 -119/-119/-119
f -114/-114/-114 -115/-115/-115 -116/-116/-116
f -113/-113/-113 -114/-114/-114 -116/-116/-116
f -110/-110/-110 -111/-111/-111 -112/-112/-112
f -109/-109/-109 -110/-110/-110 -112/-112/-112
f -106/-106/-106 -107/-107/-107 -108/-108/-108
f -105/-105/-105 -106/-106/-106 -108/-108/-108
f -102/-102/-102 -103/-103/-103 -104/-104/-104
f -101/-101/-101 -102/-102/-102 -104/-104/-104
f -98/-98/-98 -99/-99/-99 -100/-100/-100
f -97/-97/-97 -98/-98/-98 -100/-100/-100
f -94/-94/-94 -95/-95/-95 -96/-96/-96
f -93/-93/-93 -94/-94/-94 -96/-96/-96
f -96/-96/-96 -95/-95/-95 -92/-92/-92
f -95/-95/-95 -91/-91/-91 -92/-92/-92
f -92/-92/-92 -91/-91/-91 -90/-90/-90
f -91/-91/-91 -89/-89/-89 -90/-90/-90
f -86/-86/-86 -87/-87/-87 -88/-88/-88
f -85/-85/-85 -86/-86/-86 -88/-88/-88
f -82/-82/-82 -83/-83/-83 -84/-84/-84
f -81/-81/-81 -82/-82/-82 -84/-84/-84
f -81/-81/-81 -84/-84/-84 -80/-80/-80
f -79/-79/-79 -81/-81/-81 -80/-80/-80
f -79/-79/-79 -80/-80/-80 -78/-78/-78
f -80/-80/-80 -77/-77/-77 -78/-78/-78
f -77/-77/-77 -76/-76/-76 -78/-78/-78
f -76/-76/-76 -75/-75/-75 -78/-78/-78
f -76/-76/-76 -74/-74/-74 -75/-75/-75
f -74/-74/-74 -73/-73/-73 -75/-75/-75
f -70/-70/-70 -71/-71/-71 -72/-72/-72
f -69/-69/-69 -70/-70/-70 -72/-72/-72
f -68/-68/-68 -70/-70/-70 -69/-69/-69
f -67/-67/-67 -68/-68/-68 -69/-69/-69
f -66/-66/-66 -68/-68/-68 -67/-67/-67
f -65/-65/-65 -66/-66/-66 -67/-67/-67
f -64/-64/-64 -66/-66/-66 -65/-65/-65
f -63/-63/-63 -64/-64/-64 -65/-65/-65
f -72/-72/-72 -71/-71/-71 -62/-62/-62
f -71/-71/-71 -61/-61/-61 -62/-62/-62
f -62/-62/-62 -61/-61/-61 -60/-60/-60
f -61/-61/-61 -59/-59/-59 -60/-60/-60
f -56/-56/-56 -57/-57/-57 -58/-58/-58
f -55/-55/-55 -56/-56/-56 -58/-58/-58
f -54/-54/-54 -56/-56/-56 -55/-55/-55
f -53/-53/-53 -54/-54/-54 -55/-55/-55
f -52/-52/-52 -54/-54/-54 -53/-53/-53
f -51/-51/-51 -52/-52/-52 -53/-53/-53
f -50/-50/-50 -52/-52/-52 -51/-51/-51
f -49/-49/-49 -50/-50/-50 -51/-51/-51
f -48/-48/-48 -50/-50/-50 -49/-49/-49
f -47/-47/-47 -48/-48/-48 -49/-49/-49
f -46/-46/-46 -48/-48/-48 -47/-47/-47
f -45/-45/-45 -46/-46/-46 -47/-47/-47
f -42/-42/-42 -43/-43/-43 -44/-44/-44
f -41/-41/-41 -42/-42/-42 -44/-44/-44
f -44/-44/-44 -43/-43/-43 -40/-40/-40
f -43/-43/-43 -39/-39/-39 -40/-40/-40
f -40/-40/-40 -39/-39/-39 -38/-38/-38
f -39/-39/-39 -37/-37/-37 -38/-38/-38
f -38/-38/-38 -37/-37/-37 -36/-36/-36
f -37/-37/-37 -35/-35/-35 -36/-36/-36
f -34/-34/-34 -42/-42/-42 -41/-41/-41
f -33/-33/-33 -34/-34/-34 -41/-41/-41
f -32/-32/-32 -34/-34/-34 -33/-33/-33
f -31/-31/-31 -32/-32/-32 -33/-33/-33
f -28/-28/-28 -29/-29/-29 -30/-30/-30
f -27/-27/-27 -28/-28/-28 -30/-30/-30
f -30/-30/-30 -25/-25/-25 -26/-26/-26
f -26/-26/-26 -29/-29/-29 -24/-24/-24
f -29/-29/-29 -23/-23/-23 -24/-24/-24
f -24/-24/-24 -21/-21/-21 -22/-22/-22
f -23/-23/-23 -20/-20/-20 -22/-22/-22
f -20/-20/-20 -19/-19/-19 -22/-22/-22
f -19/-19/-19 -17/-17/-17 -18/-18/-18
f -18/-18/-18 -20/-20/-20 -16/-16/-16
f -20/-20/-20 -15/-15/-15 -16/-16/-16
f -16/-16/-16 -13/-13/-13 -14/-14/-14
f -14/-14/-14 -15/-15/-15 -12/-12/-12
f -15/-15/-15 -11/-11/-11 -12/-12/-12
f -12/-12/-12 -9/-9/-9 -10/-10/-10
f -10/-10/-10 -11/-11/-11 -8/-8/-8
f -11/-11/-11 -28/-28/-28 -8/-8/-8
f -8/-8/-8 -7/-7/-7 -27/-27/-27
f -4/-4/-4 -5/-5/-5 -6/-6/-6
f -6/-6/-6 -3/-3/-3 -4/-4/-4
f -3/-3/-3 -2/-2/-2 -4/-4/-4
f -3/-3/-3 -1/-1/-1 -2/-2/-2

