# Blender v2.79 (sub 0) OBJ File: ''
# www.blender.org
mtllib longerpegs.mtl
g Longer
v -0.193853 0.017477 0.004308
v -0.193853 0.017477 -0.004308
v -0.193853 0.015535 0.003829
v -0.193853 0.015535 -0.003829
v -0.193853 0.013473 -0.011936
v -0.193853 0.011976 -0.010610
v -0.193853 0.006383 -0.016830
v -0.193853 0.005674 -0.014960
v -0.193853 -0.002170 -0.017869
v -0.193853 -0.001929 -0.015883
v -0.193853 -0.010225 -0.014814
v -0.193853 -0.009089 -0.013168
v -0.193853 -0.015938 -0.008365
v -0.193853 -0.014167 -0.007436
v -0.193853 -0.018000 -0.000000
v -0.193853 -0.016000 -0.000000
v -0.193853 -0.015938 0.008365
v -0.193853 -0.014167 0.007436
v -0.193853 -0.010225 0.014814
v -0.193853 -0.009089 0.013168
v -0.193853 -0.002170 0.017869
v -0.193853 -0.001929 0.015883
v -0.193853 0.006383 0.016830
v -0.193853 0.005674 0.014960
v -0.193853 0.013473 0.011936
v -0.193853 0.011976 0.010610
v -0.055793 0.017477 0.004308
v -0.055793 0.017477 -0.004308
v -0.193853 0.017477 0.004308
v -0.193853 0.017477 -0.004308
v -0.193853 0.013473 -0.011936
v -0.055793 0.013473 -0.011936
v -0.193853 0.006383 -0.016830
v -0.055793 0.006383 -0.016830
v -0.193853 -0.002170 -0.017869
v -0.055793 -0.002170 -0.017869
v -0.193853 -0.010225 -0.014814
v -0.055793 -0.010225 -0.014814
v -0.193853 -0.015938 -0.008365
v -0.055793 -0.015938 -0.008365
v -0.193853 -0.018000 -0.000000
v -0.055793 -0.018000 -0.000000
v -0.055793 0.013473 0.011936
v -0.193853 0.013473 0.011936
v -0.055793 0.006383 0.016830
v -0.193853 0.006383 0.016830
v -0.055793 -0.002170 0.017869
v -0.193853 -0.002170 0.017869
v -0.055793 -0.010225 0.014814
v -0.193853 -0.010225 0.014814
v -0.055793 -0.015938 0.008365
v -0.193853 -0.015938 0.008365
v -0.055793 -0.018000 -0.000000
v -0.193853 -0.018000 -0.000000
v -0.055793 0.017477 0.004308
v -0.055793 0.000000 0.000000
v -0.055793 0.017477 -0.004308
v -0.055793 0.013473 -0.011936
v -0.055793 0.006383 -0.016830
v -0.055793 -0.002170 -0.017869
v -0.055793 -0.010225 -0.014814
v -0.055793 -0.015938 -0.008365
v -0.055793 -0.018000 -0.000000
v -0.055793 -0.015938 0.008365
v -0.055793 -0.010225 0.014814
v -0.055793 -0.002170 0.017869
v -0.055793 0.006383 0.016830
v -0.055793 0.013473 0.011936
v -0.058969 0.015536 0.003829
v -0.058969 0.015536 -0.003829
v -0.058969 0.000000 0.000000
v -0.058969 0.011977 -0.010611
v -0.058969 0.005674 -0.014961
v -0.058969 -0.001929 -0.015884
v -0.058969 -0.009090 -0.013169
v -0.058969 -0.014168 -0.007436
v -0.058969 -0.016001 -0.000000
v -0.058969 -0.014168 0.007436
v -0.058969 -0.009090 0.013169
v -0.058969 -0.001929 0.015884
v -0.058969 0.005674 0.014961
v -0.058969 0.011977 0.010611
v -0.058969 -0.001929 0.015884
v -0.193853 -0.001929 0.015883
v -0.058969 0.005674 0.014961
v -0.193853 0.005674 0.014960
v -0.058969 0.011977 0.010611
v -0.193853 0.011976 0.010610
v -0.058969 0.015536 0.003829
v -0.193853 0.015535 0.003829
v -0.058969 0.015536 -0.003829
v -0.193853 0.015535 -0.003829
v -0.058969 0.011977 -0.010611
v -0.193853 0.011976 -0.010610
v -0.058969 0.005674 -0.014961
v -0.193853 0.005674 -0.014960
v -0.058969 -0.001929 -0.015884
v -0.193853 -0.001929 -0.015883
v -0.058969 -0.009090 -0.013169
v -0.193853 -0.009089 -0.013168
v -0.058969 -0.014168 -0.007436
v -0.193853 -0.014167 -0.007436
v -0.058969 -0.016001 -0.000000
v -0.193853 -0.016000 -0.000000
v -0.193853 -0.014167 0.007436
v -0.058969 -0.014168 0.007436
v -0.193853 -0.016000 -0.000000
v -0.058969 -0.016001 -0.000000
v -0.058969 -0.009090 0.013169
v -0.193853 -0.009089 0.013168
v 0.193853 0.017477 -0.004308
v 0.193853 0.017477 0.004308
v 0.193853 0.015535 -0.003829
v 0.193853 0.015535 0.003829
v 0.193853 0.013473 0.011936
v 0.193853 0.011976 0.010610
v 0.193853 0.006383 0.016830
v 0.193853 0.005674 0.014960
v 0.193853 -0.002170 0.017869
v 0.193853 -0.001929 0.015883
v 0.193853 -0.010225 0.014814
v 0.193853 -0.009089 0.013168
v 0.193853 -0.015938 0.008365
v 0.193853 -0.014167 0.007436
v 0.193853 -0.018000 -0.000000
v 0.193853 -0.016000 -0.000000
v 0.193853 -0.015938 -0.008365
v 0.193853 -0.014167 -0.007436
v 0.193853 -0.010225 -0.014814
v 0.193853 -0.009089 -0.013168
v 0.193853 -0.002170 -0.017869
v 0.193853 -0.001929 -0.015883
v 0.193853 0.006383 -0.016830
v 0.193853 0.005674 -0.014960
v 0.193853 0.013473 -0.011936
v 0.193853 0.011976 -0.010610
v 0.055793 0.017477 -0.004308
v 0.055793 0.017477 0.004308
v 0.193853 0.017477 -0.004308
v 0.193853 0.017477 0.004308
v 0.193853 0.013473 0.011936
v 0.055793 0.013473 0.011936
v 0.193853 0.006383 0.016830
v 0.055793 0.006383 0.016830
v 0.193853 -0.002170 0.017869
v 0.055793 -0.002170 0.017869
v 0.193853 -0.010225 0.014814
v 0.055793 -0.010225 0.014814
v 0.193853 -0.015938 0.008365
v 0.055793 -0.015938 0.008365
v 0.193853 -0.018000 -0.000000
v 0.055793 -0.018000 -0.000000
v 0.055793 0.013473 -0.011936
v 0.193853 0.013473 -0.011936
v 0.055793 0.006383 -0.016830
v 0.193853 0.006383 -0.016830
v 0.055793 -0.002170 -0.017869
v 0.193853 -0.002170 -0.017869
v 0.055793 -0.010225 -0.014814
v 0.193853 -0.010225 -0.014814
v 0.055793 -0.015938 -0.008365
v 0.193853 -0.015938 -0.008365
v 0.055793 -0.018000 -0.000000
v 0.193853 -0.018000 -0.000000
v 0.055793 0.017477 -0.004308
v 0.055793 0.000000 0.000000
v 0.055793 0.017477 0.004308
v 0.055793 0.013473 0.011936
v 0.055793 0.006383 0.016830
v 0.055793 -0.002170 0.017869
v 0.055793 -0.010225 0.014814
v 0.055793 -0.015938 0.008365
v 0.055793 -0.018000 -0.000000
v 0.055793 -0.015938 -0.008365
v 0.055793 -0.010225 -0.014814
v 0.055793 -0.002170 -0.017869
v 0.055793 0.006383 -0.016830
v 0.055793 0.013473 -0.011936
v 0.058969 0.015536 -0.003829
v 0.058969 0.015536 0.003829
v 0.058969 0.000000 0.000000
v 0.058969 0.011977 0.010611
v 0.058969 0.005674 0.014961
v 0.058969 -0.001929 0.015884
v 0.058969 -0.009090 0.013169
v 0.058969 -0.014168 0.007436
v 0.058969 -0.016001 -0.000000
v 0.058969 -0.014168 -0.007436
v 0.058969 -0.009090 -0.013169
v 0.058969 -0.001929 -0.015884
v 0.058969 0.005674 -0.014961
v 0.058969 0.011977 -0.010611
v 0.058969 -0.001929 -0.015884
v 0.193853 -0.001929 -0.015883
v 0.058969 0.005674 -0.014961
v 0.193853 0.005674 -0.014960
v 0.058969 0.011977 -0.010611
v 0.193853 0.011976 -0.010610
v 0.058969 0.015536 -0.003829
v 0.193853 0.015535 -0.003829
v 0.058969 0.015536 0.003829
v 0.193853 0.015535 0.003829
v 0.058969 0.011977 0.010611
v 0.193853 0.011976 0.010610
v 0.058969 0.005674 0.014961
v 0.193853 0.005674 0.014960
v 0.058969 -0.001929 0.015884
v 0.193853 -0.001929 0.015883
v 0.058969 -0.009090 0.013169
v 0.193853 -0.009089 0.013168
v 0.058969 -0.014168 0.007436
v 0.193853 -0.014167 0.007436
v 0.058969 -0.016001 -0.000000
v 0.193853 -0.016000 -0.000000
v 0.193853 -0.014167 -0.007436
v 0.058969 -0.014168 -0.007436
v 0.193853 -0.016000 -0.000000
v 0.058969 -0.016001 -0.000000
v 0.058969 -0.009090 -0.013169
v 0.193853 -0.009089 -0.013168
vt 0.726691 0.668358
vt 0.734913 0.668358
vt 0.727147 0.670211
vt 0.734456 0.670211
vt 0.742194 0.672179
vt 0.740928 0.673608
vt 0.746865 0.678946
vt 0.745080 0.679623
vt 0.747856 0.687109
vt 0.745961 0.686879
vt 0.744940 0.694797
vt 0.743369 0.693713
vt 0.738785 0.700250
vt 0.737898 0.698560
vt 0.730802 0.702218
vt 0.730802 0.700309
vt 0.722818 0.700250
vt 0.723705 0.698560
vt 0.716663 0.694797
vt 0.718234 0.693713
vt 0.713747 0.687109
vt 0.715642 0.686879
vt 0.714738 0.678946
vt 0.716523 0.679623
vt 0.719410 0.672179
vt 0.720675 0.673608
vt 0.725635 0.503817
vt 0.733915 0.503811
vt 0.725635 0.584635
vt 0.733915 0.584641
vt 0.742197 0.584648
vt 0.742197 0.503804
vt 0.750484 0.584653
vt 0.750483 0.503799
vt 0.758773 0.584658
vt 0.758773 0.503794
vt 0.767065 0.584659
vt 0.767065 0.503793
vt 0.775356 0.584655
vt 0.775356 0.503797
vt 0.783645 0.584652
vt 0.783645 0.503800
vt 0.717354 0.503827
vt 0.717353 0.584625
vt 0.709072 0.503834
vt 0.709072 0.584618
vt 0.700793 0.503838
vt 0.700793 0.584614
vt 0.692517 0.503839
vt 0.692517 0.584613
vt 0.684243 0.503837
vt 0.684242 0.584615
vt 0.675964 0.503832
vt 0.675964 0.584620
vt 0.726668 0.701752
vt 0.730779 0.685071
vt 0.734891 0.701752
vt 0.742172 0.697930
vt 0.746843 0.691163
vt 0.747834 0.683000
vt 0.744918 0.675311
vt 0.738763 0.669859
vt 0.730779 0.667891
vt 0.722796 0.669859
vt 0.716641 0.675311
vt 0.713725 0.683000
vt 0.714716 0.691163
vt 0.719387 0.697930
vt 0.734459 0.699860
vt 0.727149 0.699860
vt 0.730804 0.685031
vt 0.720676 0.696463
vt 0.716524 0.690447
vt 0.715643 0.683191
vt 0.718235 0.676356
vt 0.723707 0.671509
vt 0.730804 0.669759
vt 0.737901 0.671509
vt 0.743373 0.676356
vt 0.745965 0.683191
vt 0.745084 0.690447
vt 0.740931 0.696463
vt 0.695287 0.701918
vt 0.695299 0.685247
vt 0.696862 0.701919
vt 0.696878 0.685248
vt 0.698439 0.701920
vt 0.698458 0.685248
vt 0.700015 0.701921
vt 0.700027 0.685278
vt 0.701595 0.701936
vt 0.701602 0.685265
vt 0.703173 0.701937
vt 0.703179 0.685265
vt 0.704751 0.701938
vt 0.704756 0.685265
vt 0.706329 0.701937
vt 0.706335 0.685265
vt 0.707907 0.701937
vt 0.707914 0.685266
vt 0.709484 0.701937
vt 0.709493 0.685266
vt 0.711061 0.701938
vt 0.711071 0.685267
vt 0.692140 0.685247
vt 0.692134 0.701919
vt 0.690561 0.685248
vt 0.690557 0.701919
vt 0.693711 0.701918
vt 0.693719 0.685247
vt 0.762647 0.668357
vt 0.770870 0.668357
vt 0.763104 0.670211
vt 0.770413 0.670211
vt 0.778151 0.672179
vt 0.776885 0.673607
vt 0.782822 0.678946
vt 0.781037 0.679623
vt 0.783813 0.687109
vt 0.781918 0.686879
vt 0.780897 0.694797
vt 0.779326 0.693713
vt 0.774743 0.700250
vt 0.773855 0.698560
vt 0.766759 0.702218
vt 0.766759 0.700309
vt 0.758775 0.700250
vt 0.759662 0.698560
vt 0.752620 0.694797
vt 0.754191 0.693713
vt 0.749704 0.687109
vt 0.751599 0.686879
vt 0.750695 0.678946
vt 0.752480 0.679623
vt 0.755366 0.672178
vt 0.756632 0.673607
vt 0.733995 0.666482
vt 0.725715 0.666488
vt 0.733995 0.585665
vt 0.725715 0.585658
vt 0.717432 0.585651
vt 0.717432 0.666496
vt 0.709145 0.585645
vt 0.709145 0.666501
vt 0.700855 0.585640
vt 0.700855 0.666507
vt 0.692563 0.585639
vt 0.692563 0.666508
vt 0.684271 0.585643
vt 0.684271 0.666504
vt 0.675982 0.585645
vt 0.675982 0.666501
vt 0.742276 0.666472
vt 0.742276 0.585675
vt 0.750557 0.666464
vt 0.750556 0.585683
vt 0.758835 0.666461
vt 0.758835 0.585686
vt 0.767111 0.666459
vt 0.767110 0.585687
vt 0.775384 0.666461
vt 0.775384 0.585685
vt 0.783663 0.666466
vt 0.783663 0.585680
vt 0.762580 0.702023
vt 0.766691 0.685342
vt 0.770803 0.702023
vt 0.778084 0.698202
vt 0.782755 0.691434
vt 0.783746 0.683272
vt 0.780830 0.675583
vt 0.774675 0.670130
vt 0.766691 0.668162
vt 0.758707 0.670130
vt 0.752552 0.675583
vt 0.749636 0.683272
vt 0.750627 0.691434
vt 0.755299 0.698202
vt 0.770430 0.699848
vt 0.763120 0.699848
vt 0.766775 0.685020
vt 0.756648 0.696451
vt 0.752495 0.690435
vt 0.751614 0.683179
vt 0.754207 0.676344
vt 0.759678 0.671497
vt 0.766775 0.669748
vt 0.773873 0.671497
vt 0.779344 0.676344
vt 0.781936 0.683179
vt 0.781055 0.690435
vt 0.776902 0.696451
vt 0.695402 0.684470
vt 0.695393 0.667803
vt 0.696980 0.684470
vt 0.696971 0.667802
vt 0.698558 0.684469
vt 0.698549 0.667801
vt 0.700136 0.684468
vt 0.700127 0.667801
vt 0.701709 0.684469
vt 0.701709 0.667799
vt 0.703287 0.684469
vt 0.703287 0.667799
vt 0.704865 0.684468
vt 0.704865 0.667800
vt 0.706442 0.684467
vt 0.706442 0.667800
vt 0.708019 0.684467
vt 0.708019 0.667801
vt 0.709597 0.684467
vt 0.709597 0.667801
vt 0.711174 0.684467
vt 0.711174 0.667801
vt 0.692238 0.667805
vt 0.692246 0.684471
vt 0.690660 0.667807
vt 0.690668 0.684472
vt 0.693824 0.684471
vt 0.693815 0.667804
vn -1.0000 0.0000 0.0000
vn 0.0000 0.9709 0.2393
vn 0.0000 0.9709 -0.2393
vn 0.0000 0.7485 -0.6631
vn 0.0000 0.3546 -0.9350
vn 0.0000 -0.1205 -0.9927
vn 0.0000 -0.5681 -0.8230
vn 0.0000 -0.8855 -0.4647
vn 0.0000 -1.0000 0.0000
vn 0.0000 0.7485 0.6631
vn 0.0000 0.3546 0.9350
vn 0.0000 -0.1205 0.9927
vn 0.0000 -0.5681 0.8230
vn 0.0000 -0.8855 0.4647
vn 1.0000 0.0000 0.0000
vn 0.0000 0.1205 -0.9927
vn 0.0000 -0.3546 -0.9350
vn 0.0000 -0.7485 -0.6631
vn 0.0000 -0.9709 -0.2393
vn 0.0000 -0.9709 0.2393
vn 0.0000 -0.7485 0.6631
vn 0.0000 -0.3546 0.9350
vn 0.0000 0.1205 0.9927
vn 0.0000 0.5681 0.8230
vn 0.0000 0.5680 0.8230
vn 0.0000 0.8855 0.4647
vn 0.0000 1.0000 -0.0000
vn 0.0000 0.8855 -0.4647
vn 0.0000 0.5681 -0.8230
vn 0.0000 0.5680 -0.8230
usemtl None.001
s 1
f 1/1/1 2/2/1 3/3/1
f 3/3/1 2/2/1 4/4/1
f 5/5/1 4/4/1 2/2/1
f 6/6/1 4/4/1 5/5/1
f 7/7/1 6/6/1 5/5/1
f 8/8/1 6/6/1 7/7/1
f 9/9/1 8/8/1 7/7/1
f 10/10/1 8/8/1 9/9/1
f 11/11/1 10/10/1 9/9/1
f 12/12/1 10/10/1 11/11/1
f 13/13/1 12/12/1 11/11/1
f 14/14/1 12/12/1 13/13/1
f 15/15/1 14/14/1 13/13/1
f 16/16/1 14/14/1 15/15/1
f 17/17/1 16/16/1 15/15/1
f 18/18/1 16/16/1 17/17/1
f 19/19/1 18/18/1 17/17/1
f 20/20/1 18/18/1 19/19/1
f 21/21/1 20/20/1 19/19/1
f 22/22/1 20/20/1 21/21/1
f 23/23/1 22/22/1 21/21/1
f 24/24/1 22/22/1 23/23/1
f 25/25/1 24/24/1 23/23/1
f 26/26/1 24/24/1 25/25/1
f 1/1/1 26/26/1 25/25/1
f 3/3/1 26/26/1 1/1/1
f 27/27/2 28/28/3 29/29/2
f 29/29/2 28/28/3 30/30/3
f 28/28/3 31/31/4 30/30/3
f 32/32/4 31/31/4 28/28/3
f 32/32/4 33/33/5 31/31/4
f 34/34/5 33/33/5 32/32/4
f 34/34/5 35/35/6 33/33/5
f 36/36/6 35/35/6 34/34/5
f 36/36/6 37/37/7 35/35/6
f 38/38/7 37/37/7 36/36/6
f 38/38/7 39/39/8 37/37/7
f 40/40/8 39/39/8 38/38/7
f 40/40/8 41/41/9 39/39/8
f 42/42/9 41/41/9 40/40/8
f 27/27/2 29/29/2 43/43/10
f 43/43/10 29/29/2 44/44/10
f 43/43/10 44/44/10 45/45/11
f 45/45/11 44/44/10 46/46/11
f 45/45/11 46/46/11 47/47/12
f 47/47/12 46/46/11 48/48/12
f 47/47/12 48/48/12 49/49/13
f 49/49/13 48/48/12 50/50/13
f 49/49/13 50/50/13 51/51/14
f 51/51/14 50/50/13 52/52/14
f 51/51/14 52/52/14 53/53/9
f 53/53/9 52/52/14 54/54/9
f 55/55/15 56/56/15 57/57/15
f 56/56/15 58/58/15 57/57/15
f 56/56/15 59/59/15 58/58/15
f 56/56/15 60/60/15 59/59/15
f 56/56/15 61/61/15 60/60/15
f 56/56/15 62/62/15 61/61/15
f 56/56/15 63/63/15 62/62/15
f 56/56/15 64/64/15 63/63/15
f 56/56/15 65/65/15 64/64/15
f 56/56/15 66/66/15 65/65/15
f 56/56/15 67/67/15 66/66/15
f 56/56/15 68/68/15 67/67/15
f 56/56/15 55/55/15 68/68/15
f 69/69/1 70/70/1 71/71/1
f 72/72/1 71/71/1 70/70/1
f 73/73/1 71/71/1 72/72/1
f 74/74/1 71/71/1 73/73/1
f 75/75/1 71/71/1 74/74/1
f 76/76/1 71/71/1 75/75/1
f 77/77/1 71/71/1 76/76/1
f 78/78/1 71/71/1 77/77/1
f 79/79/1 71/71/1 78/78/1
f 80/80/1 71/71/1 79/79/1
f 81/81/1 71/71/1 80/80/1
f 82/82/1 71/71/1 81/81/1
f 69/69/1 71/71/1 82/82/1
f 83/83/16 84/84/16 85/85/17
f 85/85/17 84/84/16 86/86/17
f 86/86/17 87/87/18 85/85/17
f 88/88/18 87/87/18 86/86/17
f 88/88/18 89/89/19 87/87/18
f 90/90/19 89/89/19 88/88/18
f 90/90/19 91/91/20 89/89/19
f 92/92/20 91/91/20 90/90/19
f 92/92/20 93/93/21 91/91/20
f 94/94/21 93/93/21 92/92/20
f 94/94/21 95/95/22 93/93/21
f 96/96/22 95/95/22 94/94/21
f 96/96/22 97/97/23 95/95/22
f 98/98/23 97/97/23 96/96/22
f 98/98/23 99/99/24 97/97/23
f 100/100/25 99/99/24 98/98/23
f 100/100/25 101/101/26 99/99/24
f 102/102/26 101/101/26 100/100/25
f 102/102/26 103/103/27 101/101/26
f 104/104/27 103/103/27 102/102/26
f 105/105/28 106/106/28 107/107/27
f 107/107/27 106/106/28 108/108/27
f 105/105/28 109/109/29 106/106/28
f 110/110/30 109/109/29 105/105/28
f 110/110/30 83/83/16 109/109/29
f 84/84/16 83/83/16 110/110/30
f 111/111/15 112/112/15 113/113/15
f 113/113/15 112/112/15 114/114/15
f 115/115/15 114/114/15 112/112/15
f 116/116/15 114/114/15 115/115/15
f 117/117/15 116/116/15 115/115/15
f 118/118/15 116/116/15 117/117/15
f 119/119/15 118/118/15 117/117/15
f 120/120/15 118/118/15 119/119/15
f 121/121/15 120/120/15 119/119/15
f 122/122/15 120/120/15 121/121/15
f 123/123/15 122/122/15 121/121/15
f 124/124/15 122/122/15 123/123/15
f 125/125/15 124/124/15 123/123/15
f 126/126/15 124/124/15 125/125/15
f 127/127/15 126/126/15 125/125/15
f 128/128/15 126/126/15 127/127/15
f 129/129/15 128/128/15 127/127/15
f 130/130/15 128/128/15 129/129/15
f 131/131/15 130/130/15 129/129/15
f 132/132/15 130/130/15 131/131/15
f 133/133/15 132/132/15 131/131/15
f 134/134/15 132/132/15 133/133/15
f 135/135/15 134/134/15 133/133/15
f 136/136/15 134/134/15 135/135/15
f 111/111/15 136/136/15 135/135/15
f 113/113/15 136/136/15 111/111/15
f 137/137/3 138/138/2 139/139/3
f 139/139/3 138/138/2 140/140/2
f 138/138/2 141/141/10 140/140/2
f 142/142/10 141/141/10 138/138/2
f 142/142/10 143/143/11 141/141/10
f 144/144/11 143/143/11 142/142/10
f 144/144/11 145/145/12 143/143/11
f 146/146/12 145/145/12 144/144/11
f 146/146/12 147/147/13 145/145/12
f 148/148/13 147/147/13 146/146/12
f 148/148/13 149/149/14 147/147/13
f 150/150/14 149/149/14 148/148/13
f 150/150/14 151/151/9 149/149/14
f 152/152/9 151/151/9 150/150/14
f 137/137/3 139/139/3 153/153/4
f 153/153/4 139/139/3 154/154/4
f 153/153/4 154/154/4 155/155/5
f 155/155/5 154/154/4 156/156/5
f 155/155/5 156/156/5 157/157/6
f 157/157/6 156/156/5 158/158/6
f 157/157/6 158/158/6 159/159/7
f 159/159/7 158/158/6 160/160/7
f 159/159/7 160/160/7 161/161/8
f 161/161/8 160/160/7 162/162/8
f 161/161/8 162/162/8 163/163/9
f 163/163/9 162/162/8 164/164/9
f 165/165/1 166/166/1 167/167/1
f 166/166/1 168/168/1 167/167/1
f 166/166/1 169/169/1 168/168/1
f 166/166/1 170/170/1 169/169/1
f 166/166/1 171/171/1 170/170/1
f 166/166/1 172/172/1 171/171/1
f 166/166/1 173/173/1 172/172/1
f 166/166/1 174/174/1 173/173/1
f 166/166/1 175/175/1 174/174/1
f 166/166/1 176/176/1 175/175/1
f 166/166/1 177/177/1 176/176/1
f 166/166/1 178/178/1 177/177/1
f 166/166/1 165/165/1 178/178/1
f 179/179/15 180/180/15 181/181/15
f 182/182/15 181/181/15 180/180/15
f 183/183/15 181/181/15 182/182/15
f 184/184/15 181/181/15 183/183/15
f 185/185/15 181/181/15 184/184/15
f 186/186/15 181/181/15 185/185/15
f 187/187/15 181/181/15 186/186/15
f 188/188/15 181/181/15 187/187/15
f 189/189/15 181/181/15 188/188/15
f 190/190/15 181/181/15 189/189/15
f 191/191/15 181/181/15 190/190/15
f 192/192/15 181/181/15 191/191/15
f 179/179/15 181/181/15 192/192/15
f 193/193/23 194/194/23 195/195/22
f 195/195/22 194/194/23 196/196/22
f 196/196/22 197/197/21 195/195/22
f 198/198/21 197/197/21 196/196/22
f 198/198/21 199/199/20 197/197/21
f 200/200/20 199/199/20 198/198/21
f 200/200/20 201/201/19 199/199/20
f 202/202/19 201/201/19 200/200/20
f 202/202/19 203/203/18 201/201/19
f 204/204/18 203/203/18 202/202/19
f 204/204/18 205/205/17 203/203/18
f 206/206/17 205/205/17 204/204/18
f 206/206/17 207/207/16 205/205/17
f 208/208/16 207/207/16 206/206/17
f 208/208/16 209/209/29 207/207/16
f 210/210/30 209/209/29 208/208/16
f 210/210/30 211/211/28 209/209/29
f 212/212/28 211/211/28 210/210/30
f 212/212/28 213/213/27 211/211/28
f 214/214/27 213/213/27 212/212/28
f 215/215/26 216/216/26 217/217/27
f 217/217/27 216/216/26 218/218/27
f 215/215/26 219/219/24 216/216/26
f 220/220/25 219/219/24 215/215/26
f 220/220/25 193/193/23 219/219/24
f 194/194/23 193/193/23 220/220/25
