# Blender v2.80 (sub 37) OBJ File: ''
# www.blender.org
mtllib FrameBadge.mtl
o Plane
v 0.015294 0.025492 0.010108
v -0.016336 0.025493 0.009340
v 0.015293 -0.030845 0.010110
v -0.016338 -0.030844 0.009342
v 0.015294 -0.002677 0.010109
v -0.000470 0.025492 0.018623
v -0.016337 -0.002676 0.009341
v -0.000472 -0.030845 0.018625
v -0.000471 -0.002676 0.018624
v 0.015294 0.011408 0.010109
v -0.009306 0.025493 0.015361
v -0.016338 -0.016760 0.009341
v 0.008668 -0.030845 0.016076
v 0.015293 -0.016761 0.010109
v 0.008669 0.025492 0.016075
v -0.016337 0.011409 0.009340
v -0.009308 -0.030845 0.015362
v -0.000471 -0.016761 0.018624
v -0.000470 0.011408 0.018624
v 0.008669 -0.002677 0.016076
v -0.009307 -0.002676 0.015361
v -0.009306 0.011408 0.015361
v 0.008669 0.011408 0.016075
v 0.008668 -0.016761 0.016076
v -0.009307 -0.016760 0.015362
vt 0.250000 0.250000
vt 0.000000 0.250000
vt 0.000000 0.000000
vt 0.250000 0.000000
vt 0.750000 0.250000
vt 0.500000 0.250000
vt 0.500000 0.000000
vt 0.750000 0.000000
vt 0.750000 0.750000
vt 0.500000 0.750000
vt 0.500000 0.500000
vt 0.750000 0.500000
vt 0.250000 0.750000
vt 0.000000 0.750000
vt 0.000000 0.500000
vt 0.250000 0.500000
vt 0.500000 1.000000
vt 0.250000 1.000000
vt 0.000000 1.000000
vt 1.000000 0.750000
vt 1.000000 0.500000
vt 1.000000 1.000000
vt 0.750000 1.000000
vt 1.000000 0.250000
vt 1.000000 0.000000
vn -0.5063 0.0000 0.8623
vn -0.6504 0.0000 0.7595
vn 0.4816 0.0000 0.8763
vn -0.0409 0.0000 0.9991
vn 0.6692 0.0000 0.7430
usemtl None
s 1
f 25/1/1 12/2/2 4/3/2 17/4/1
f 24/5/3 18/6/4 8/7/4 13/8/3
f 23/9/3 19/10/4 9/11/4 20/12/3
f 22/13/1 16/14/2 7/15/2 21/16/1
f 19/10/4 22/13/1 21/16/1 9/11/4
f 6/17/4 11/18/1 22/13/1 19/10/4
f 11/18/1 2/19/2 16/14/2 22/13/1
f 10/20/5 23/9/3 20/12/3 5/21/5
f 1/22/5 15/23/3 23/9/3 10/20/5
f 15/23/3 6/17/4 19/10/4 23/9/3
f 14/24/5 24/5/3 13/8/3 3/25/5
f 5/21/5 20/12/3 24/5/3 14/24/5
f 20/12/3 9/11/4 18/6/4 24/5/3
f 18/6/4 25/1/1 17/4/1 8/7/4
f 9/11/4 21/16/1 25/1/1 18/6/4
f 21/16/1 7/15/2 12/2/2 25/1/1
