# Blender v2.79 (sub 0) OBJ File: ''
# www.blender.org
mtllib Default.mtl
g Default
v 0.003657 0.000000 -0.006995
v 0.003657 0.000000 -0.014125
v 0.003657 0.007062 -0.012232
v 0.003657 0.006995 0.000000
v 0.003657 0.014125 0.000000
v 0.003657 0.012232 -0.007062
v 0.003657 -0.006995 -0.000000
v 0.003657 -0.007062 -0.012232
v 0.003657 -0.012232 -0.007062
v 0.003657 -0.014125 -0.000000
v 0.003657 0.007062 0.012232
v 0.003657 -0.000000 0.014125
v 0.003657 -0.000000 0.006995
v 0.003657 0.012232 0.007062
v 0.003657 -0.012232 0.007062
v 0.003657 -0.007062 0.012232
v -0.008227 0.008574 0.172867
v -0.002919 0.009142 0.172867
v -0.002919 0.010586 0.167589
v -0.008227 0.009815 0.167589
v -0.002919 0.005278 0.176731
v -0.008227 0.004950 0.176491
v -0.002919 -0.000000 0.178146
v -0.008227 -0.000000 0.177818
v -0.012189 0.008350 0.167589
v -0.012189 0.007232 0.171764
v -0.012189 0.004175 0.174821
v -0.012189 -0.000000 0.175940
v 0.002389 -0.000000 0.177818
v 0.002389 0.004950 0.176491
v 0.002389 0.008574 0.172867
v 0.002389 0.009815 0.167589
v 0.006351 0.007232 0.171764
v 0.006351 0.008350 0.167589
v 0.006351 0.004175 0.174821
v 0.006351 -0.000000 0.175940
v -0.002919 -0.005278 0.176731
v -0.002919 -0.000000 0.178146
v -0.008227 -0.000000 0.177818
v -0.008227 -0.004950 0.176491
v -0.002919 -0.009142 0.172867
v -0.008227 -0.008574 0.172867
v -0.002919 -0.010586 0.167589
v -0.008227 -0.009815 0.167589
v -0.012189 -0.000000 0.175940
v -0.012189 -0.004175 0.174821
v -0.012189 -0.007232 0.171764
v -0.012189 -0.008350 0.167589
v 0.002389 -0.009815 0.167589
v 0.002389 -0.008574 0.172867
v 0.002389 -0.004950 0.176491
v 0.002389 -0.000000 0.177818
v 0.006351 -0.004175 0.174821
v 0.006351 -0.000000 0.175940
v 0.006351 -0.007232 0.171764
v 0.006351 -0.008350 0.167589
v 0.006351 0.006218 0.171179
v 0.006351 -0.000000 0.167589
v 0.006429 0.007219 0.167446
v 0.006351 0.003590 0.173808
v 0.006351 -0.000000 0.174770
v 0.006351 -0.003590 0.173808
v 0.006351 -0.006218 0.171179
v 0.006429 -0.007219 0.167446
v 0.001015 -0.000000 0.001771
v -0.000928 0.005867 0.001767
v -0.000928 -0.005867 0.001767
v 0.006351 0.008350 0.167589
v 0.006351 0.007232 0.171764
v 0.006351 0.004175 0.174821
v 0.006351 -0.000000 0.175940
v 0.006351 -0.004175 0.174821
v 0.006351 -0.007232 0.171764
v 0.006351 -0.008350 0.167589
v -0.001056 -0.006978 0.000641
v -0.005941 -0.012087 0.000641
v 0.002389 -0.009815 0.167589
v -0.012919 -0.013957 0.000641
v -0.002919 -0.010586 0.167589
v -0.019898 -0.012087 0.000641
v -0.008227 -0.009815 0.167589
v -0.024783 -0.006978 0.000641
v -0.012189 -0.008350 0.167589
v -0.001056 0.006979 0.000641
v 0.002389 0.009815 0.167589
v -0.005941 0.012087 0.000641
v -0.002919 0.010586 0.167589
v -0.012919 0.013957 0.000641
v -0.008227 0.009815 0.167589
v -0.019898 0.012087 0.000641
v -0.012189 0.008350 0.167589
v -0.024783 0.006979 0.000641
v -0.024911 0.005867 0.001767
v -0.012267 0.007219 0.167446
v -0.012267 0.007219 0.167446
v -0.012189 -0.000000 0.167589
v -0.012189 0.006218 0.171179
v -0.012189 0.003590 0.173808
v -0.012189 -0.000000 0.174770
v -0.012189 -0.003590 0.173808
v -0.012189 -0.006218 0.171179
v -0.012267 -0.007219 0.167446
v -0.026853 -0.000000 0.001771
v -0.024911 -0.005867 0.001767
v -0.024911 0.005867 0.001767
v -0.012189 0.007232 0.171764
v -0.012189 0.008350 0.167589
v -0.012189 0.004175 0.174821
v -0.012189 -0.000000 0.175940
v -0.012189 -0.004175 0.174821
v -0.012189 -0.007232 0.171764
v -0.012189 -0.008350 0.167589
v -0.024783 -0.006978 0.000641
v -0.021285 0.005955 -0.025376
v -0.020707 0.008243 -0.022587
v -0.012919 0.008716 -0.022693
v -0.012870 0.005955 -0.025376
v -0.004456 0.005955 -0.025376
v -0.005131 0.008243 -0.022587
v -0.021285 -0.005955 -0.025376
v -0.020707 -0.008469 -0.022587
v -0.019898 -0.012087 0.000641
v -0.024783 -0.006978 0.000641
v -0.021394 -0.001894 -0.025376
v -0.021285 -0.005955 -0.025376
v -0.024783 -0.006978 0.000641
v -0.025266 -0.001890 -0.011273
v -0.020707 0.008243 -0.022587
v -0.021285 0.005955 -0.025376
v -0.024783 0.006979 0.000641
v -0.019898 0.012087 0.000641
v -0.025268 0.001857 -0.011276
v -0.021401 0.001662 -0.025376
v -0.012919 0.008716 -0.022693
v -0.020707 0.008243 -0.022587
v -0.019898 0.012087 0.000641
v -0.012919 0.013957 0.000641
v -0.005131 0.008243 -0.022587
v -0.005941 0.012087 0.000641
v -0.012919 -0.008995 -0.022699
v -0.005131 -0.008469 -0.022587
v -0.005941 -0.012087 0.000641
v -0.012919 -0.013957 0.000641
v -0.020707 -0.008469 -0.022587
v -0.019898 -0.012087 0.000641
v -0.024783 0.006979 0.000641
v -0.025268 0.001857 -0.011276
v -0.026876 -0.000000 0.000641
v -0.025266 -0.001890 -0.011273
v -0.024783 -0.006978 0.000641
v -0.004456 -0.005955 -0.025376
v -0.012870 -0.005955 -0.025376
v -0.012892 -0.001843 -0.025376
v -0.004389 -0.001793 -0.025376
v -0.021394 -0.001894 -0.025376
v -0.021285 -0.005955 -0.025376
v 0.001038 -0.000000 0.000641
v -0.000657 0.001850 -0.011106
v -0.001056 0.006979 0.000641
v -0.000656 -0.001843 -0.011061
v -0.001056 -0.006978 0.000641
v -0.012961 -0.001867 -0.011167
v -0.012962 0.001854 -0.011191
v -0.000657 0.001850 -0.011106
v -0.000656 -0.001843 -0.011061
v -0.025266 -0.001890 -0.011273
v -0.025268 0.001857 -0.011276
v -0.012962 0.001854 -0.011191
v -0.012895 0.001736 -0.025376
v -0.004390 0.001809 -0.025376
v -0.000657 0.001850 -0.011106
v -0.025268 0.001857 -0.011276
v -0.021401 0.001662 -0.025376
v -0.000656 -0.001843 -0.011061
v -0.004389 -0.001793 -0.025376
v -0.012892 -0.001843 -0.025376
v -0.012961 -0.001867 -0.011167
v -0.021394 -0.001894 -0.025376
v -0.025266 -0.001890 -0.011273
v -0.012870 0.005955 -0.025376
v -0.004456 0.005955 -0.025376
v -0.004390 0.001809 -0.025376
v -0.012895 0.001736 -0.025376
v -0.021401 0.001662 -0.025376
v -0.021285 0.005955 -0.025376
v -0.004456 -0.005955 -0.025376
v -0.005131 -0.008469 -0.022587
v -0.012919 -0.008995 -0.022699
v -0.012870 -0.005955 -0.025376
v -0.021285 -0.005955 -0.025376
v -0.020707 -0.008469 -0.022587
v -0.000928 0.005867 0.001767
v 0.001015 -0.000000 0.001771
v 0.001038 -0.000000 0.000641
v -0.001056 0.006979 0.000641
v -0.001056 -0.006978 0.000641
v -0.000928 -0.005867 0.001767
v -0.001056 0.006979 0.000641
v -0.004456 0.005955 -0.025376
v -0.005131 0.008243 -0.022587
v -0.005941 0.012087 0.000641
v -0.004390 0.001809 -0.025376
v -0.000657 0.001850 -0.011106
v -0.001056 -0.006978 0.000641
v -0.005941 -0.012087 0.000641
v -0.005131 -0.008469 -0.022587
v -0.004456 -0.005955 -0.025376
v -0.004389 -0.001793 -0.025376
v -0.000656 -0.001843 -0.011061
v -0.024911 -0.005867 0.001767
v -0.026853 -0.000000 0.001771
v -0.026876 -0.000000 0.000641
v -0.024783 -0.006978 0.000641
v -0.024783 0.006979 0.000641
v -0.024911 0.005867 0.001767
v 0.003657 0.014125 0.000000
v 0.003657 0.012232 -0.007062
v -0.029233 0.012232 -0.007062
v -0.029233 0.014125 0.000000
v -0.029233 0.007062 -0.012232
v 0.003657 0.007062 -0.012232
v -0.029233 0.000000 -0.014125
v 0.003657 0.000000 -0.014125
v -0.029233 -0.007062 -0.012232
v 0.003657 -0.007062 -0.012232
v -0.029233 -0.012232 -0.007062
v 0.003657 -0.012232 -0.007062
v -0.029233 -0.014125 -0.000000
v 0.003657 -0.014125 -0.000000
v 0.003657 -0.014125 -0.000000
v 0.003657 -0.012232 0.007062
v -0.029233 -0.012232 0.007062
v -0.029233 -0.014125 -0.000000
v -0.029233 -0.007062 0.012232
v 0.003657 -0.007062 0.012232
v -0.029233 -0.000000 0.014125
v 0.003657 -0.000000 0.014125
v 0.003657 -0.000000 0.014125
v 0.003657 0.007062 0.012232
v -0.029233 0.007062 0.012232
v -0.029233 -0.000000 0.014125
v -0.029233 0.012232 0.007062
v 0.003657 0.012232 0.007062
v -0.029233 0.014125 0.000000
v 0.003657 0.014125 0.000000
v -0.029233 0.000000 0.000000
v -0.029233 -0.000000 0.014125
v -0.029233 0.007062 0.012232
v -0.029233 0.014125 0.000000
v -0.029233 0.012232 0.007062
v -0.029233 0.007062 -0.012232
v -0.029233 0.000000 -0.014125
v -0.029233 0.012232 -0.007062
v -0.029233 -0.007062 -0.012232
v -0.029233 -0.012232 -0.007062
v -0.029233 -0.014125 -0.000000
v -0.029233 -0.012232 0.007062
v -0.029233 -0.007062 0.012232
vt 0.622746 0.388921
vt 0.622746 0.382118
vt 0.629484 0.383924
vt 0.629420 0.395595
vt 0.636223 0.395595
vt 0.634417 0.388856
vt 0.616072 0.395595
vt 0.616008 0.383924
vt 0.611075 0.388856
vt 0.609269 0.395595
vt 0.629484 0.407266
vt 0.622746 0.409071
vt 0.622746 0.402269
vt 0.634417 0.402333
vt 0.611075 0.402333
vt 0.616008 0.407266
vt 0.774612 0.442923
vt 0.774333 0.447827
vt 0.769462 0.447735
vt 0.769578 0.442659
vt 0.779325 0.447922
vt 0.779388 0.442892
vt 0.784698 0.448020
vt 0.784445 0.442524
vt 0.769691 0.438644
vt 0.774310 0.438691
vt 0.778910 0.438578
vt 0.783408 0.438047
vt 0.784255 0.453506
vt 0.779209 0.452953
vt 0.774439 0.452739
vt 0.769407 0.452810
vt 0.773981 0.456953
vt 0.769386 0.456825
vt 0.778573 0.457253
vt 0.783062 0.457955
vt 0.779433 0.481532
vt 0.784806 0.481389
vt 0.784608 0.486899
vt 0.779537 0.486568
vt 0.774440 0.481661
vt 0.774758 0.486565
vt 0.769574 0.481782
vt 0.769730 0.486857
vt 0.783606 0.491400
vt 0.779087 0.490896
vt 0.774483 0.490799
vt 0.769876 0.490870
vt 0.769479 0.476706
vt 0.774507 0.476748
vt 0.779274 0.476503
vt 0.784309 0.475906
vt 0.778604 0.472212
vt 0.783076 0.471479
vt 0.774019 0.472538
vt 0.769426 0.472690
vt 0.772804 0.458844
vt 0.769400 0.464758
vt 0.769252 0.457902
vt 0.775306 0.461337
vt 0.776225 0.464746
vt 0.775315 0.468154
vt 0.772828 0.470653
vt 0.769283 0.471614
vt 0.612159 0.465366
vt 0.612198 0.459606
vt 0.612210 0.471130
vt 0.769386 0.456825
vt 0.773358 0.457879
vt 0.776268 0.460779
vt 0.777336 0.464745
vt 0.776277 0.468707
vt 0.773386 0.471612
vt 0.769426 0.472690
vt 0.611149 0.472180
vt 0.611249 0.478850
vt 0.769479 0.476706
vt 0.611355 0.485661
vt 0.769574 0.481782
vt 0.611445 0.492496
vt 0.769730 0.486857
vt 0.611546 0.499242
vt 0.769876 0.490870
vt 0.611135 0.458565
vt 0.769407 0.452810
vt 0.611219 0.451908
vt 0.769462 0.447735
vt 0.611311 0.445124
vt 0.769578 0.442659
vt 0.611380 0.438330
vt 0.769691 0.438644
vt 0.611453 0.431642
vt 0.612542 0.430621
vt 0.769592 0.437563
vt 0.769592 0.437563
vt 0.769992 0.430718
vt 0.773172 0.436748
vt 0.775759 0.434352
vt 0.776804 0.430984
vt 0.776025 0.427545
vt 0.773631 0.424953
vt 0.770128 0.423862
vt 0.612648 0.424769
vt 0.612852 0.418878
vt 0.612542 0.430621
vt 0.773690 0.437729
vt 0.769691 0.438644
vt 0.776699 0.434943
vt 0.777912 0.431027
vt 0.777007 0.427029
vt 0.774225 0.424014
vt 0.770309 0.422792
vt 0.611816 0.417766
vt 0.585080 0.435319
vt 0.588308 0.437190
vt 0.587967 0.445232
vt 0.583616 0.445248
vt 0.584898 0.455325
vt 0.588145 0.453335
vt 0.584796 0.494737
vt 0.588186 0.492844
vt 0.611445 0.492496
vt 0.611546 0.499242
vt 0.582890 0.422925
vt 0.583054 0.418478
vt 0.611816 0.417766
vt 0.598886 0.423635
vt 0.588308 0.437190
vt 0.585080 0.435319
vt 0.611453 0.431642
vt 0.611380 0.438330
vt 0.598997 0.427863
vt 0.584141 0.430964
vt 0.587967 0.445232
vt 0.588308 0.437190
vt 0.611380 0.438330
vt 0.611311 0.445124
vt 0.588145 0.453335
vt 0.611219 0.451908
vt 0.588042 0.484992
vt 0.588329 0.477088
vt 0.611249 0.478850
vt 0.611355 0.485661
vt 0.588186 0.492844
vt 0.611445 0.492496
vt 0.611453 0.431642
vt 0.598997 0.427863
vt 0.611539 0.424833
vt 0.598886 0.423635
vt 0.611816 0.417766
vt 0.585074 0.474907
vt 0.576780 0.476771
vt 0.575841 0.472730
vt 0.584217 0.470772
vt 0.567502 0.474685
vt 0.568517 0.478650
vt 0.611071 0.465362
vt 0.598834 0.462853
vt 0.611135 0.458565
vt 0.598943 0.467714
vt 0.611149 0.472180
vt 0.670044 0.398096
vt 0.670054 0.394546
vt 0.681795 0.394587
vt 0.681785 0.398112
vt 0.658303 0.398081
vt 0.658313 0.394507
vt 0.670054 0.394546
vt 0.670071 0.381012
vt 0.678187 0.380984
vt 0.681795 0.394587
vt 0.658313 0.394507
vt 0.661956 0.381039
vt 0.681785 0.398112
vt 0.678088 0.411733
vt 0.669976 0.411653
vt 0.670044 0.398096
vt 0.661865 0.411573
vt 0.658303 0.398081
vt 0.576465 0.453288
vt 0.584898 0.455325
vt 0.583963 0.459504
vt 0.575411 0.457515
vt 0.566856 0.455498
vt 0.568027 0.451219
vt 0.585074 0.474907
vt 0.588329 0.477088
vt 0.588042 0.484992
vt 0.583527 0.484872
vt 0.584796 0.494737
vt 0.588186 0.492844
vt 0.612198 0.459606
vt 0.612159 0.465366
vt 0.611071 0.465362
vt 0.611135 0.458565
vt 0.611149 0.472180
vt 0.612210 0.471130
vt 0.611135 0.458565
vt 0.584898 0.455325
vt 0.588145 0.453335
vt 0.611219 0.451908
vt 0.583963 0.459504
vt 0.598834 0.462853
vt 0.611149 0.472180
vt 0.611249 0.478850
vt 0.588329 0.477088
vt 0.585074 0.474907
vt 0.584217 0.470772
vt 0.598943 0.467714
vt 0.612852 0.418878
vt 0.612648 0.424769
vt 0.611539 0.424833
vt 0.611816 0.417766
vt 0.611453 0.431642
vt 0.612542 0.430621
vt 0.741764 0.412931
vt 0.734580 0.412931
vt 0.734580 0.379473
vt 0.741764 0.379473
vt 0.729321 0.379473
vt 0.729320 0.412931
vt 0.722136 0.379473
vt 0.722136 0.412931
vt 0.714951 0.379473
vt 0.714951 0.412932
vt 0.709692 0.379473
vt 0.709692 0.412932
vt 0.702507 0.379473
vt 0.702507 0.412931
vt 0.702507 0.412931
vt 0.695323 0.412931
vt 0.695323 0.379473
vt 0.702507 0.379473
vt 0.690063 0.379473
vt 0.690063 0.412931
vt 0.682879 0.379473
vt 0.682879 0.412931
vt 0.761393 0.412931
vt 0.754209 0.412931
vt 0.754209 0.379473
vt 0.761393 0.379473
vt 0.748949 0.379473
vt 0.748949 0.412931
vt 0.741764 0.379473
vt 0.741764 0.412931
vt 0.593506 0.395759
vt 0.593506 0.382282
vt 0.600244 0.384087
vt 0.606982 0.395759
vt 0.605177 0.389020
vt 0.600244 0.407430
vt 0.593506 0.409235
vt 0.605177 0.402497
vt 0.586767 0.407430
vt 0.581834 0.402497
vt 0.580029 0.395759
vt 0.581834 0.389020
vt 0.586767 0.384087
vn 1.0000 -0.0000 0.0000
vn -0.2485 0.8430 0.4771
vn 0.0000 0.8689 0.4950
vn -0.0000 0.9910 0.1340
vn -0.3284 0.9358 0.1278
vn -0.0000 0.4999 0.8661
vn -0.2496 0.4845 0.8384
vn -0.0000 -0.0000 1.0000
vn -0.2501 -0.0000 0.9682
vn -0.8456 0.5282 0.0773
vn -0.8342 0.4806 0.2705
vn -0.8476 0.2658 0.4593
vn -0.8499 0.0000 0.5270
vn 0.2501 -0.0000 0.9682
vn 0.2496 0.4845 0.8384
vn 0.2484 0.8430 0.4772
vn 0.3284 0.9358 0.1278
vn 0.8342 0.4806 0.2705
vn 0.8456 0.5281 0.0774
vn 0.8475 0.2658 0.4593
vn 0.8499 -0.0000 0.5270
vn -0.0000 -0.4999 0.8661
vn -0.2496 -0.4845 0.8384
vn 0.0000 -0.8689 0.4950
vn -0.2485 -0.8430 0.4772
vn -0.0000 -0.9910 0.1340
vn -0.3284 -0.9358 0.1278
vn -0.8475 -0.2658 0.4593
vn -0.8342 -0.4806 0.2705
vn -0.8456 -0.5281 0.0774
vn 0.3284 -0.9358 0.1278
vn 0.2485 -0.8430 0.4772
vn 0.2496 -0.4845 0.8384
vn 0.8476 -0.2658 0.4593
vn 0.8342 -0.4806 0.2705
vn 0.8456 -0.5282 0.0773
vn 0.9999 0.0049 0.0090
vn 1.0000 0.0000 0.0099
vn 0.9977 0.0649 0.0181
vn 0.9999 -0.0050 0.0090
vn 0.9977 -0.0649 0.0181
vn 0.9980 -0.0000 0.0639
vn 0.9826 0.1800 0.0465
vn 0.9826 -0.1800 0.0465
vn 0.8456 0.5281 0.0773
vn 0.8341 0.4807 0.2705
vn 0.8476 0.2659 0.4593
vn 0.8476 -0.2659 0.4593
vn 0.8341 -0.4807 0.2705
vn 0.8456 -0.5281 0.0773
vn 0.9034 -0.4263 0.0453
vn 0.4126 -0.9108 0.0140
vn -0.0000 -0.9998 0.0180
vn -0.4126 -0.9108 0.0140
vn -0.9034 -0.4263 0.0453
vn 0.9034 0.4263 0.0453
vn 0.4126 0.9108 0.0140
vn -0.0000 0.9998 0.0180
vn -0.4126 0.9108 0.0140
vn -0.8456 0.5281 0.0773
vn -0.9034 0.4263 0.0453
vn -0.9826 0.1799 0.0465
vn -0.9977 0.0649 0.0181
vn -0.9977 0.0648 0.0181
vn -1.0000 0.0000 0.0099
vn -0.9999 0.0050 0.0090
vn -1.0000 0.0000 0.0000
vn -0.9999 -0.0049 0.0090
vn -0.9977 -0.0649 0.0181
vn -0.9980 0.0000 0.0639
vn -0.9826 -0.1800 0.0465
vn -0.9826 0.1800 0.0465
vn -0.8341 0.4807 0.2705
vn -0.8476 0.2659 0.4593
vn -0.8476 -0.2659 0.4593
vn -0.8341 -0.4807 0.2705
vn -0.8456 -0.5281 0.0773
vn -0.0141 0.4019 -0.9156
vn -0.0943 0.8883 -0.4495
vn 0.0000 0.8924 -0.4513
vn 0.0000 0.4021 -0.9156
vn 0.0142 0.4022 -0.9155
vn 0.0943 0.8885 -0.4492
vn -0.8783 -0.4564 -0.1422
vn -0.7911 -0.6035 -0.1001
vn -0.7910 -0.6035 -0.1001
vn -0.9079 -0.4008 -0.1230
vn -0.9384 -0.2951 -0.1799
vn -0.9714 -0.1960 -0.1338
vn -0.7810 0.6159 -0.1035
vn -0.8756 0.4607 -0.1449
vn -0.9063 0.4037 -0.1250
vn -0.9718 0.1938 -0.1345
vn -0.9398 0.2895 -0.1814
vn -0.1553 0.9701 -0.1866
vn 0.0000 0.9820 -0.1889
vn 0.0943 0.8884 -0.4492
vn 0.1553 0.9701 -0.1866
vn 0.0000 -0.8836 -0.4683
vn 0.0981 -0.8794 -0.4659
vn 0.1590 -0.9714 -0.1762
vn 0.0000 -0.9839 -0.1785
vn -0.0981 -0.8792 -0.4662
vn -0.1590 -0.9714 -0.1762
vn -0.9946 -0.0001 -0.1034
vn 0.0150 -0.3800 -0.9249
vn 0.0000 -0.3799 -0.9250
vn -0.0000 0.0000 -1.0000
vn -0.0150 -0.3797 -0.9250
vn 0.9936 -0.0005 -0.1127
vn 0.9727 0.1863 -0.1381
vn 0.9082 0.3994 -0.1254
vn 0.9726 -0.1868 -0.1382
vn 0.9106 -0.3941 -0.1242
vn 0.0078 -0.0064 -0.9999
vn 0.0078 -0.0092 -0.9999
vn 0.0077 -0.0035 -1.0000
vn 0.0078 -0.0035 -1.0000
vn 0.0033 -1.0000 0.0083
vn 0.0033 -1.0000 0.0084
vn 0.0033 -1.0000 0.0052
vn 0.0034 -1.0000 0.0052
vn 0.0034 -0.9999 0.0116
vn 0.0033 -0.9999 0.0115
vn -0.0036 1.0000 0.0031
vn -0.0035 1.0000 0.0030
vn -0.0036 1.0000 0.0016
vn -0.0035 1.0000 0.0016
vn -0.0036 1.0000 0.0002
vn 0.0142 0.4022 -0.9154
vn -0.0142 0.4019 -0.9156
vn 0.9942 -0.0000 0.1078
vn 0.9034 -0.4263 0.0454
vn 0.9826 -0.1800 0.0466
vn 0.9082 0.3993 -0.1254
vn 0.8794 0.4547 -0.1414
vn 0.7762 0.6221 -0.1023
vn 0.9472 0.2690 -0.1748
vn 0.9106 -0.3942 -0.1242
vn 0.7864 -0.6097 -0.0989
vn 0.7864 -0.6098 -0.0989
vn 0.8836 -0.4470 -0.1394
vn 0.9476 -0.2675 -0.1747
vn -0.9826 -0.1799 0.0465
vn -0.9942 -0.0000 0.1077
vn -0.0000 1.0000 -0.0000
vn 0.0000 0.8660 -0.5000
vn 0.0000 0.5000 -0.8660
vn 0.0000 -0.5000 -0.8660
vn 0.0000 -0.8660 -0.5000
vn 0.0000 -1.0000 -0.0000
vn 0.0000 -0.8660 0.5000
vn 0.0000 -0.5000 0.8660
vn 0.0000 0.5000 0.8660
vn 0.0000 0.8660 0.5000
usemtl None
s 1
f 1/1/1 2/2/1 3/3/1
f 3/3/1 4/4/1 1/1/1
f 3/3/1 5/5/1 4/4/1
f 3/3/1 6/6/1 5/5/1
f 2/2/1 1/1/1 7/7/1
f 8/8/1 2/2/1 7/7/1
f 9/9/1 8/8/1 7/7/1
f 7/7/1 10/10/1 9/9/1
f 4/4/1 5/5/1 11/11/1
f 4/4/1 11/11/1 12/12/1
f 12/12/1 13/13/1 4/4/1
f 7/7/1 13/13/1 12/12/1
f 5/5/1 14/14/1 11/11/1
f 15/15/1 10/10/1 7/7/1
f 7/7/1 16/16/1 15/15/1
f 7/7/1 12/12/1 16/16/1
f 17/17/2 18/18/3 19/19/4
f 20/20/5 17/17/2 19/19/4
f 21/21/6 18/18/3 17/17/2
f 22/22/7 21/21/6 17/17/2
f 23/23/8 21/21/6 22/22/7
f 24/24/9 23/23/8 22/22/7
f 20/20/5 25/25/10 17/17/2
f 25/25/10 26/26/11 17/17/2
f 17/17/2 26/26/11 22/22/7
f 26/26/11 27/27/12 22/22/7
f 22/22/7 27/27/12 24/24/9
f 27/27/12 28/28/13 24/24/9
f 23/23/8 29/29/14 21/21/6
f 29/29/14 30/30/15 21/21/6
f 21/21/6 30/30/15 18/18/3
f 30/30/15 31/31/16 18/18/3
f 18/18/3 31/31/16 32/32/17
f 19/19/4 18/18/3 32/32/17
f 31/31/16 33/33/18 32/32/17
f 33/33/18 34/34/19 32/32/17
f 35/35/20 33/33/18 31/31/16
f 30/30/15 35/35/20 31/31/16
f 36/36/21 35/35/20 30/30/15
f 29/29/14 36/36/21 30/30/15
f 37/37/22 38/38/8 39/39/9
f 40/40/23 37/37/22 39/39/9
f 41/41/24 37/37/22 40/40/23
f 42/42/25 41/41/24 40/40/23
f 43/43/26 41/41/24 42/42/25
f 44/44/27 43/43/26 42/42/25
f 39/39/9 45/45/13 40/40/23
f 45/45/13 46/46/28 40/40/23
f 40/40/23 46/46/28 42/42/25
f 46/46/28 47/47/29 42/42/25
f 42/42/25 47/47/29 44/44/27
f 47/47/29 48/48/30 44/44/27
f 43/43/26 49/49/31 41/41/24
f 49/49/31 50/50/32 41/41/24
f 41/41/24 50/50/32 37/37/22
f 50/50/32 51/51/33 37/37/22
f 37/37/22 51/51/33 38/38/8
f 51/51/33 52/52/14 38/38/8
f 51/51/33 53/53/34 52/52/14
f 53/53/34 54/54/21 52/52/14
f 55/55/35 53/53/34 51/51/33
f 50/50/32 55/55/35 51/51/33
f 56/56/36 55/55/35 50/50/32
f 49/49/31 56/56/36 50/50/32
f 57/57/37 58/58/38 59/59/39
f 60/60/1 58/58/38 57/57/37
f 61/61/1 58/58/38 60/60/1
f 62/62/1 58/58/38 61/61/1
f 63/63/40 58/58/38 62/62/1
f 64/64/41 58/58/38 63/63/40
f 58/58/38 65/65/42 59/59/39
f 65/65/42 66/66/43 59/59/39
f 67/67/44 65/65/42 58/58/38
f 64/64/41 67/67/44 58/58/38
f 57/57/37 59/59/39 68/68/45
f 69/69/46 57/57/37 68/68/45
f 60/60/1 57/57/37 69/69/46
f 70/70/47 60/60/1 69/69/46
f 61/61/1 60/60/1 70/70/47
f 71/71/21 61/61/1 70/70/47
f 62/62/1 61/61/1 71/71/21
f 72/72/48 62/62/1 71/71/21
f 63/63/40 62/62/1 72/72/48
f 73/73/49 63/63/40 72/72/48
f 64/64/41 63/63/40 73/73/49
f 74/74/50 64/64/41 73/73/49
f 67/67/44 64/64/41 74/74/50
f 75/75/51 67/67/44 74/74/50
f 76/76/52 75/75/51 74/74/50
f 77/77/31 76/76/52 74/74/50
f 78/78/53 76/76/52 77/77/31
f 79/79/26 78/78/53 77/77/31
f 80/80/54 78/78/53 79/79/26
f 81/81/27 80/80/54 79/79/26
f 82/82/55 80/80/54 81/81/27
f 83/83/30 82/82/55 81/81/27
f 68/68/45 84/84/56 85/85/17
f 84/84/56 86/86/57 85/85/17
f 85/85/17 86/86/57 87/87/4
f 86/86/57 88/88/58 87/87/4
f 87/87/4 88/88/58 89/89/5
f 88/88/58 90/90/59 89/89/5
f 89/89/5 90/90/59 91/91/60
f 90/90/59 92/92/61 91/91/60
f 68/68/45 59/59/39 84/84/56
f 59/59/39 66/66/43 84/84/56
f 92/92/61 93/93/62 91/91/60
f 93/93/62 94/94/63 91/91/60
f 95/95/64 96/96/65 97/97/66
f 97/97/66 96/96/65 98/98/67
f 98/98/67 96/96/65 99/99/67
f 99/99/67 96/96/65 100/100/67
f 100/100/67 96/96/65 101/101/68
f 101/101/68 96/96/65 102/102/69
f 96/96/65 103/103/70 102/102/69
f 103/103/70 104/104/71 102/102/69
f 105/105/72 103/103/70 96/96/65
f 95/95/64 105/105/72 96/96/65
f 95/95/64 97/97/66 106/106/73
f 107/107/60 95/95/64 106/106/73
f 97/97/66 98/98/67 108/108/74
f 106/106/73 97/97/66 108/108/74
f 98/98/67 99/99/67 109/109/13
f 108/108/74 98/98/67 109/109/13
f 99/99/67 100/100/67 110/110/75
f 109/109/13 99/99/67 110/110/75
f 100/100/67 101/101/68 111/111/76
f 110/110/75 100/100/67 111/111/76
f 101/101/68 102/102/69 112/112/77
f 111/111/76 101/101/68 112/112/77
f 102/102/69 104/104/71 113/113/55
f 112/112/77 102/102/69 113/113/55
f 114/114/78 115/115/79 116/116/80
f 117/117/81 114/114/78 116/116/80
f 117/117/81 116/116/80 118/118/82
f 116/116/80 119/119/83 118/118/82
f 120/120/84 121/121/85 122/122/86
f 123/123/87 120/120/84 122/122/86
f 124/124/88 125/125/84 126/126/87
f 127/127/89 124/124/88 126/126/87
f 128/128/90 129/129/91 130/130/92
f 131/131/90 128/128/90 130/130/92
f 130/130/92 129/129/91 132/132/93
f 129/129/91 133/133/94 132/132/93
f 134/134/80 135/135/79 136/136/95
f 137/137/96 134/134/80 136/136/95
f 138/138/97 134/134/80 137/137/96
f 139/139/98 138/138/97 137/137/96
f 140/140/99 141/141/100 142/142/101
f 143/143/102 140/140/99 142/142/101
f 144/144/103 140/140/99 143/143/102
f 145/145/104 144/144/103 143/143/102
f 146/146/92 147/147/93 148/148/105
f 147/147/93 149/149/89 148/148/105
f 148/148/105 149/149/89 150/150/87
f 151/151/106 152/152/107 153/153/108
f 154/154/108 151/151/106 153/153/108
f 153/153/108 152/152/107 155/155/108
f 152/152/107 156/156/109 155/155/108
f 157/157/110 158/158/111 159/159/112
f 157/157/110 160/160/113 158/158/111
f 161/161/114 160/160/113 157/157/110
f 162/162/115 163/163/115 164/164/116
f 165/165/116 162/162/115 164/164/116
f 162/162/115 166/166/117 163/163/115
f 166/166/117 167/167/118 163/163/115
f 168/168/119 169/169/120 170/170/121
f 171/171/122 168/168/119 170/170/121
f 168/168/119 172/172/123 169/169/120
f 172/172/123 173/173/124 169/169/120
f 174/174/125 175/175/126 176/176/127
f 177/177/128 174/174/125 176/176/127
f 177/177/128 176/176/127 178/178/129
f 179/179/129 177/177/128 178/178/129
f 180/180/81 181/181/130 182/182/108
f 183/183/108 180/180/81 182/182/108
f 183/183/108 184/184/108 180/180/81
f 184/184/108 185/185/131 180/180/81
f 186/186/106 187/187/100 188/188/99
f 189/189/107 186/186/106 188/188/99
f 189/189/107 188/188/99 190/190/109
f 188/188/99 191/191/103 190/190/109
f 192/192/43 193/193/42 194/194/132
f 195/195/56 192/192/43 194/194/132
f 194/194/132 193/193/42 196/196/133
f 193/193/42 197/197/134 196/196/133
f 198/198/135 199/199/136 200/200/137
f 201/201/137 198/198/135 200/200/137
f 199/199/136 198/198/135 202/202/138
f 198/198/135 203/203/111 202/202/138
f 204/204/139 205/205/140 206/206/141
f 207/207/142 204/204/139 206/206/141
f 204/204/139 207/207/142 208/208/143
f 209/209/113 204/204/139 208/208/143
f 210/210/144 211/211/70 212/212/145
f 213/213/55 210/210/144 212/212/145
f 212/212/145 211/211/70 214/214/61
f 211/211/70 215/215/72 214/214/61
f 216/216/146 217/217/147 218/218/147
f 219/219/146 216/216/146 218/218/147
f 218/218/147 217/217/147 220/220/148
f 217/217/147 221/221/148 220/220/148
f 220/220/148 221/221/148 222/222/108
f 221/221/148 223/223/108 222/222/108
f 222/222/108 223/223/108 224/224/149
f 223/223/108 225/225/149 224/224/149
f 224/224/149 225/225/149 226/226/150
f 225/225/149 227/227/150 226/226/150
f 226/226/150 227/227/150 228/228/151
f 227/227/150 229/229/151 228/228/151
f 230/230/151 231/231/152 232/232/152
f 233/233/151 230/230/151 232/232/152
f 232/232/152 231/231/152 234/234/153
f 231/231/152 235/235/153 234/234/153
f 234/234/153 235/235/153 236/236/8
f 235/235/153 237/237/8 236/236/8
f 238/238/8 239/239/154 240/240/154
f 241/241/8 238/238/8 240/240/154
f 240/240/154 239/239/154 242/242/155
f 239/239/154 243/243/155 242/242/155
f 242/242/155 243/243/155 244/244/146
f 243/243/155 245/245/146 244/244/146
f 246/246/67 247/247/67 248/248/67
f 248/248/67 249/249/67 246/246/67
f 248/248/67 250/250/67 249/249/67
f 246/246/67 249/249/67 251/251/67
f 251/251/67 252/252/67 246/246/67
f 249/249/67 253/253/67 251/251/67
f 246/246/67 252/252/67 254/254/67
f 246/246/67 254/254/67 255/255/67
f 255/255/67 256/256/67 246/246/67
f 246/246/67 256/256/67 257/257/67
f 257/257/67 258/258/67 246/246/67
f 258/258/67 247/247/67 246/246/67
