# Blender v2.80 (sub 37) OBJ File: ''
# www.blender.org
mtllib barPads.mtl
g Bar_Pads
v -0.128130 0.188438 0.017024
v 0.129816 0.188438 0.017024
v 0.129816 0.193774 0.019444
v -0.128130 0.193774 0.019444
v -0.128130 0.184112 0.013073
v 0.129816 0.184112 0.013073
v 0.129816 0.199597 0.020097
v -0.128130 0.199597 0.020097
v 0.129816 0.205337 0.018919
v -0.128130 0.205337 0.018919
v 0.129816 0.210431 0.016025
v -0.128130 0.210431 0.016025
v -0.128130 0.181217 0.007978
v 0.129816 0.181217 0.007978
v 0.129816 0.184112 0.013073
v -0.128130 0.184112 0.013073
v -0.128130 0.180039 0.002239
v 0.129816 0.180039 0.002238
v -0.128130 0.180692 -0.003584
v 0.129816 0.180692 -0.003584
v -0.128130 0.183113 -0.008920
v 0.129816 0.183113 -0.008920
v -0.128130 0.187064 -0.013247
v 0.129816 0.187064 -0.013247
v -0.128130 0.192158 -0.016141
v 0.129816 0.192158 -0.016141
v 0.129816 0.187064 -0.013247
v -0.128130 0.187064 -0.013247
v -0.128130 0.197898 -0.017319
v 0.129816 0.197898 -0.017319
v -0.128130 0.203721 -0.016666
v 0.129816 0.203721 -0.016666
v -0.128130 0.209057 -0.014246
v 0.129816 0.209057 -0.014246
v -0.128130 0.213383 -0.010295
v 0.129816 0.213383 -0.010295
v -0.128130 0.216278 -0.005200
v 0.129816 0.216278 -0.005200
v 0.129816 0.213383 -0.010295
v -0.128130 0.213383 -0.010295
v -0.128130 0.217456 0.000539
v 0.129816 0.217456 0.000539
v -0.128130 0.216803 0.006362
v 0.129816 0.216803 0.006362
v -0.128130 0.214382 0.011698
v 0.129816 0.214382 0.011698
v -0.128130 0.210431 0.016025
v 0.129816 0.210431 0.016025
v -0.125111 0.215444 -0.004887
v -0.125111 0.216566 0.000580
v -0.128130 0.216566 0.000580
v -0.128130 0.215444 -0.004887
v -0.128130 0.215944 0.006126
v -0.125111 0.215944 0.006126
v -0.128130 0.213639 0.011208
v -0.125111 0.213639 0.011208
v -0.125111 0.212687 -0.009739
v -0.128130 0.212687 -0.009739
v -0.128130 0.209875 0.015329
v -0.125111 0.209875 0.015329
v 0.128036 0.205023 0.018085
v 0.128036 0.209876 0.015329
v 0.129816 0.209876 0.015329
v 0.129816 0.205023 0.018085
v 0.128036 0.199557 0.019207
v 0.129816 0.199557 0.019207
v 0.128036 0.194011 0.018585
v 0.129816 0.194011 0.018585
v 0.128036 0.188929 0.016280
v 0.129816 0.188929 0.016280
v 0.128036 0.184808 0.012517
v 0.129816 0.184808 0.012517
v 0.129816 0.193774 0.019444
v 0.129816 0.188438 0.017024
v 0.129816 0.188929 0.016280
v 0.129816 0.194011 0.018585
v 0.129816 0.184808 0.012517
v 0.129816 0.184112 0.013073
v 0.129816 0.182051 0.007665
v 0.129816 0.181217 0.007978
v 0.129816 0.180929 0.002198
v 0.129816 0.180039 0.002238
v 0.129816 0.181551 -0.003348
v 0.129816 0.180692 -0.003584
v 0.129816 0.183856 -0.008430
v 0.129816 0.183113 -0.008920
v 0.129816 0.187619 -0.012551
v 0.129816 0.187064 -0.013247
v 0.129816 0.192472 -0.015307
v 0.129816 0.192158 -0.016141
v 0.129816 0.197938 -0.016430
v 0.129816 0.197898 -0.017319
v 0.129816 0.203484 -0.015808
v 0.129816 0.203721 -0.016666
v 0.129816 0.208566 -0.013502
v 0.129816 0.209057 -0.014246
v 0.129816 0.212687 -0.009739
v 0.129816 0.213383 -0.010295
v 0.129816 0.215444 -0.004887
v 0.129816 0.216278 -0.005200
v 0.129816 0.216566 0.000580
v 0.129816 0.217456 0.000539
v 0.129816 0.215944 0.006126
v 0.129816 0.216803 0.006362
v 0.129816 0.213639 0.011208
v 0.129816 0.214382 0.011698
v 0.129816 0.209876 0.015329
v 0.129816 0.210431 0.016025
v 0.129816 0.205023 0.018085
v 0.129816 0.205337 0.018919
v 0.129816 0.199557 0.019207
v 0.129816 0.199597 0.020097
v -0.128130 0.188438 0.017024
v -0.128130 0.193774 0.019444
v -0.128130 0.194011 0.018585
v -0.128130 0.188929 0.016280
v -0.128130 0.184112 0.013073
v -0.128130 0.184808 0.012517
v -0.128130 0.181217 0.007978
v -0.128130 0.182051 0.007665
v -0.128130 0.180039 0.002239
v -0.128130 0.180929 0.002198
v -0.128130 0.180692 -0.003584
v -0.128130 0.181551 -0.003348
v -0.128130 0.183113 -0.008920
v -0.128130 0.183856 -0.008430
v -0.128130 0.187064 -0.013247
v -0.128130 0.187619 -0.012551
v -0.128130 0.192158 -0.016141
v -0.128130 0.192472 -0.015307
v -0.128130 0.197898 -0.017319
v -0.128130 0.197938 -0.016430
v -0.128130 0.203721 -0.016666
v -0.128130 0.203484 -0.015807
v -0.128130 0.209057 -0.014246
v -0.128130 0.208566 -0.013502
v -0.128130 0.213383 -0.010295
v -0.128130 0.212687 -0.009739
v -0.128130 0.216278 -0.005200
v -0.128130 0.215444 -0.004887
v -0.128130 0.217456 0.000539
v -0.128130 0.216566 0.000580
v -0.128130 0.216803 0.006362
v -0.128130 0.215944 0.006126
v -0.128130 0.214382 0.011698
v -0.128130 0.213639 0.011208
v -0.128130 0.210431 0.016025
v -0.128130 0.209875 0.015329
v -0.128130 0.205337 0.018919
v -0.128130 0.205023 0.018085
v -0.128130 0.199597 0.020097
v -0.128130 0.199557 0.019207
v -0.125111 0.181551 -0.003348
v -0.125111 0.180929 0.002198
v -0.125111 0.182051 0.007665
v -0.125111 0.183856 -0.008430
v -0.125111 0.184808 0.012517
v -0.125111 0.187619 -0.012551
v -0.125111 0.188929 0.016280
v -0.125111 0.192472 -0.015307
v -0.125111 0.194011 0.018585
v -0.125111 0.197938 -0.016430
v -0.125111 0.199557 0.019207
v -0.125111 0.203484 -0.015807
v -0.125111 0.205023 0.018085
v -0.125111 0.208566 -0.013502
v -0.125111 0.209875 0.015329
v -0.125111 0.212687 -0.009739
v -0.125111 0.213639 0.011208
v -0.125111 0.215444 -0.004887
v -0.125111 0.215944 0.006126
v -0.125111 0.216566 0.000580
v -0.125111 0.184808 0.012517
v -0.125111 0.182051 0.007665
v -0.128130 0.182051 0.007665
v -0.128130 0.184808 0.012517
v -0.128130 0.180929 0.002198
v -0.125111 0.180929 0.002198
v -0.128130 0.181551 -0.003348
v -0.125111 0.181551 -0.003348
v -0.128130 0.183856 -0.008430
v -0.125111 0.183856 -0.008430
v -0.128130 0.187619 -0.012551
v -0.125111 0.187619 -0.012551
v -0.125111 0.209875 0.015329
v -0.125111 0.205023 0.018085
v -0.128130 0.205023 0.018085
v -0.128130 0.209875 0.015329
v -0.128130 0.199557 0.019207
v -0.125111 0.199557 0.019207
v -0.128130 0.194011 0.018585
v -0.125111 0.194011 0.018585
v -0.128130 0.188929 0.016280
v -0.125111 0.188929 0.016280
v -0.128130 0.184808 0.012517
v -0.125111 0.184808 0.012517
v -0.125111 0.203484 -0.015807
v -0.125111 0.208566 -0.013502
v -0.128130 0.208566 -0.013502
v -0.128130 0.203484 -0.015807
v -0.128130 0.212687 -0.009739
v -0.125111 0.212687 -0.009739
v -0.125111 0.197938 -0.016430
v -0.128130 0.197938 -0.016430
v -0.125111 0.192472 -0.015307
v -0.128130 0.192472 -0.015307
v -0.125111 0.187619 -0.012551
v -0.128130 0.187619 -0.012551
v 0.128036 0.182051 0.007665
v 0.128036 0.180929 0.002198
v 0.128036 0.181551 -0.003348
v 0.128036 0.183856 -0.008430
v 0.128036 0.184808 0.012517
v 0.128036 0.187619 -0.012551
v 0.128036 0.188929 0.016280
v 0.128036 0.192472 -0.015307
v 0.128036 0.194011 0.018585
v 0.128036 0.197938 -0.016430
v 0.128036 0.199557 0.019207
v 0.128036 0.203484 -0.015808
v 0.128036 0.205023 0.018085
v 0.128036 0.208566 -0.013502
v 0.128036 0.209876 0.015329
v 0.128036 0.212687 -0.009739
v 0.128036 0.213639 0.011208
v 0.128036 0.215444 -0.004887
v 0.128036 0.215944 0.006126
v 0.128036 0.216566 0.000580
v 0.128036 0.187619 -0.012551
v 0.128036 0.183856 -0.008430
v 0.129816 0.183856 -0.008430
v 0.129816 0.187619 -0.012551
v 0.129816 0.181551 -0.003348
v 0.128036 0.181551 -0.003348
v 0.129816 0.180929 0.002198
v 0.128036 0.180929 0.002198
v 0.129816 0.182051 0.007665
v 0.128036 0.182051 0.007665
v 0.129816 0.184808 0.012517
v 0.128036 0.184808 0.012517
v 0.128036 0.208566 -0.013502
v 0.128036 0.203484 -0.015808
v 0.129816 0.203484 -0.015808
v 0.129816 0.208566 -0.013502
v 0.128036 0.212687 -0.009739
v 0.129816 0.212687 -0.009739
v 0.129816 0.197938 -0.016430
v 0.128036 0.197938 -0.016430
v 0.129816 0.192472 -0.015307
v 0.128036 0.192472 -0.015307
v 0.129816 0.187619 -0.012551
v 0.128036 0.187619 -0.012551
v 0.128036 0.215944 0.006126
v 0.128036 0.216566 0.000580
v 0.129816 0.216566 0.000580
v 0.129816 0.215944 0.006126
v 0.128036 0.213639 0.011208
v 0.129816 0.213639 0.011208
v 0.128036 0.209876 0.015329
v 0.129816 0.209876 0.015329
v 0.129816 0.215444 -0.004887
v 0.128036 0.215444 -0.004887
v 0.129816 0.212687 -0.009739
v 0.128036 0.212687 -0.009739
vt 0.499901 0.002169
vt 0.499901 0.997830
vt 0.463967 0.997830
vt 0.463967 0.002169
vt 0.530467 0.002169
vt 0.530467 0.997830
vt 0.426185 0.997831
vt 0.426185 0.002169
vt 0.390252 0.997831
vt 0.390252 0.002169
vt 0.359685 0.997831
vt 0.359685 0.002169
vt 0.568282 0.002169
vt 0.568282 0.997830
vt 0.537716 0.997830
vt 0.537715 0.002169
vt 0.604215 0.002169
vt 0.604215 0.997830
vt 0.641998 0.002169
vt 0.641998 0.997830
vt 0.677931 0.002169
vt 0.677931 0.997830
vt 0.708497 0.002169
vt 0.708498 0.997830
vt 0.212221 0.002169
vt 0.212222 0.997830
vt 0.181655 0.997830
vt 0.181655 0.002169
vt 0.248154 0.002169
vt 0.248155 0.997830
vt 0.285937 0.002169
vt 0.285937 0.997830
vt 0.321870 0.002169
vt 0.321871 0.997830
vt 0.352437 0.002169
vt 0.352437 0.997830
vt 0.034191 0.002169
vt 0.034191 0.997831
vt 0.003624 0.997831
vt 0.003624 0.002169
vt 0.070124 0.002169
vt 0.070125 0.997831
vt 0.107906 0.002169
vt 0.107907 0.997831
vt 0.143840 0.002169
vt 0.143840 0.997831
vt 0.174406 0.002169
vt 0.174407 0.997831
vt 0.961542 0.082111
vt 0.961542 0.061624
vt 0.981008 0.061624
vt 0.981008 0.082111
vt 0.981008 0.040083
vt 0.961542 0.040083
vt 0.981008 0.019596
vt 0.961542 0.019596
vt 0.961542 0.099538
vt 0.981008 0.099538
vt 0.981008 0.002169
vt 0.961542 0.002169
vt 0.976911 0.517278
vt 0.976911 0.499851
vt 0.988384 0.499851
vt 0.988384 0.517278
vt 0.976911 0.537765
vt 0.988384 0.537765
vt 0.976911 0.559306
vt 0.988384 0.559306
vt 0.976911 0.579792
vt 0.988384 0.579792
vt 0.976911 0.597219
vt 0.988384 0.597219
vt 0.749629 0.124682
vt 0.727421 0.106385
vt 0.732539 0.104824
vt 0.753690 0.122251
vt 0.721418 0.084338
vt 0.715746 0.084876
vt 0.721418 0.062797
vt 0.715746 0.062259
vt 0.732538 0.042310
vt 0.727421 0.040749
vt 0.753690 0.024883
vt 0.749629 0.022452
vt 0.782803 0.012222
vt 0.780195 0.009158
vt 0.817027 0.005565
vt 0.816128 0.002169
vt 0.853013 0.005565
vt 0.853911 0.002169
vt 0.887237 0.012222
vt 0.889844 0.009158
vt 0.916350 0.024883
vt 0.920411 0.022452
vt 0.937501 0.042310
vt 0.942619 0.040749
vt 0.948622 0.062796
vt 0.954294 0.062259
vt 0.948622 0.084337
vt 0.954294 0.084875
vt 0.937502 0.104824
vt 0.942619 0.106385
vt 0.916350 0.122251
vt 0.920411 0.124682
vt 0.887237 0.134913
vt 0.889845 0.137976
vt 0.853013 0.141569
vt 0.853911 0.144965
vt 0.817027 0.141569
vt 0.816129 0.144965
vt 0.782803 0.134913
vt 0.780196 0.137976
vt 0.749629 0.169586
vt 0.780196 0.156292
vt 0.782803 0.159355
vt 0.753690 0.172017
vt 0.727421 0.187883
vt 0.732539 0.189444
vt 0.715746 0.209393
vt 0.721418 0.209930
vt 0.715746 0.232009
vt 0.721418 0.231471
vt 0.727421 0.253519
vt 0.732538 0.251958
vt 0.749629 0.271816
vt 0.753690 0.269385
vt 0.780196 0.285110
vt 0.782803 0.282047
vt 0.816129 0.292099
vt 0.817027 0.288703
vt 0.853911 0.292099
vt 0.853013 0.288703
vt 0.889844 0.285110
vt 0.887237 0.282047
vt 0.920411 0.271816
vt 0.916350 0.269385
vt 0.942619 0.253519
vt 0.937502 0.251958
vt 0.954294 0.232009
vt 0.948622 0.231472
vt 0.954294 0.209393
vt 0.948622 0.209931
vt 0.942619 0.187883
vt 0.937502 0.189444
vt 0.920411 0.169586
vt 0.916350 0.172017
vt 0.889845 0.156292
vt 0.887237 0.159356
vt 0.853911 0.149303
vt 0.853013 0.152699
vt 0.816129 0.149303
vt 0.817027 0.152699
vt 0.726866 0.536039
vt 0.715746 0.515552
vt 0.715746 0.494011
vt 0.748017 0.553466
vt 0.726866 0.473525
vt 0.777130 0.566128
vt 0.748018 0.456098
vt 0.811354 0.572784
vt 0.777131 0.443436
vt 0.847340 0.572784
vt 0.811355 0.436780
vt 0.881564 0.566128
vt 0.847341 0.436780
vt 0.910677 0.553466
vt 0.881565 0.443437
vt 0.931829 0.536040
vt 0.910678 0.456098
vt 0.942949 0.515553
vt 0.931829 0.473526
vt 0.942949 0.494012
vt 0.996376 0.296437
vt 0.996376 0.313864
vt 0.976911 0.313864
vt 0.976911 0.296437
vt 0.976911 0.334351
vt 0.996376 0.334351
vt 0.976911 0.355892
vt 0.996376 0.355892
vt 0.976911 0.376379
vt 0.996376 0.376379
vt 0.976911 0.393806
vt 0.996376 0.393806
vt 0.981008 0.194731
vt 0.981008 0.212158
vt 0.961542 0.212158
vt 0.961542 0.194731
vt 0.961542 0.232644
vt 0.981008 0.232644
vt 0.961542 0.254185
vt 0.981008 0.254185
vt 0.961542 0.274672
vt 0.981008 0.274672
vt 0.961542 0.292099
vt 0.981008 0.292099
vt 0.950197 0.334351
vt 0.950197 0.313864
vt 0.969663 0.313864
vt 0.969663 0.334351
vt 0.969663 0.296437
vt 0.950197 0.296437
vt 0.950197 0.355892
vt 0.969663 0.355892
vt 0.950197 0.376379
vt 0.969663 0.376379
vt 0.950197 0.393806
vt 0.969663 0.393806
vt 0.847341 0.432442
vt 0.811355 0.432442
vt 0.777131 0.425785
vt 0.748018 0.413124
vt 0.881565 0.425785
vt 0.726866 0.395697
vt 0.910678 0.413123
vt 0.715746 0.375210
vt 0.931829 0.395696
vt 0.715746 0.353669
vt 0.942949 0.375210
vt 0.726865 0.333183
vt 0.942949 0.353669
vt 0.748017 0.315756
vt 0.931829 0.333182
vt 0.777130 0.303094
vt 0.910677 0.315755
vt 0.811354 0.296437
vt 0.881564 0.303094
vt 0.847340 0.296437
vt 0.958189 0.495513
vt 0.958189 0.478086
vt 0.969663 0.478086
vt 0.969663 0.495513
vt 0.969663 0.457599
vt 0.958189 0.457599
vt 0.969663 0.436058
vt 0.958189 0.436058
vt 0.969663 0.415571
vt 0.958189 0.415571
vt 0.969663 0.398144
vt 0.958189 0.398144
vt 0.969663 0.517278
vt 0.969663 0.537765
vt 0.958189 0.537765
vt 0.958189 0.517278
vt 0.969663 0.499851
vt 0.958189 0.499851
vt 0.958189 0.559306
vt 0.969663 0.559306
vt 0.958189 0.579793
vt 0.969663 0.579793
vt 0.958189 0.597219
vt 0.969663 0.597219
vt 0.988384 0.436058
vt 0.988384 0.457599
vt 0.976911 0.457599
vt 0.976911 0.436058
vt 0.988384 0.415571
vt 0.976911 0.415571
vt 0.988384 0.398144
vt 0.976911 0.398144
vt 0.976911 0.478086
vt 0.988384 0.478086
vt 0.976911 0.495513
vt 0.988384 0.495513
vn 0.0000 -0.5505 0.8348
vn 0.0000 -0.2655 0.9641
vn 0.0000 -0.7815 0.6239
vn -0.0001 -0.7815 0.6239
vn 0.0000 0.0454 0.9990
vn 0.0000 0.3518 0.9361
vn -0.0000 0.6239 0.7815
vn 0.0000 -0.9360 0.3519
vn 0.0000 -0.9361 0.3519
vn 0.0001 -0.7815 0.6239
vn -0.0000 -0.9990 0.0454
vn 0.0000 -0.9990 0.0453
vn -0.0000 -0.9641 -0.2656
vn 0.0000 -0.8348 -0.5505
vn 0.0000 -0.6239 -0.7815
vn -0.0001 -0.6239 -0.7815
vn 0.0000 -0.3518 -0.9361
vn 0.0001 -0.6239 -0.7815
vn 0.0000 -0.0454 -0.9990
vn 0.0000 0.2655 -0.9641
vn 0.0000 0.5505 -0.8348
vn 0.0000 0.7815 -0.6239
vn 0.0000 0.9360 -0.3519
vn 0.0000 0.9990 -0.0454
vn 0.0000 0.9641 0.2656
vn 0.0000 0.8348 0.5505
vn 0.0000 -0.9641 -0.2655
vn 0.0000 0.5505 -0.8349
vn 1.0000 0.0000 0.0000
vn -1.0000 0.0000 0.0000
vn 0.0000 0.9641 0.2655
vn 0.0000 0.8349 0.5505
vn 0.0000 -0.2656 0.9641
vn 0.0000 -0.5505 0.8349
vn 0.0000 0.3519 0.9361
vn 0.0000 0.0455 0.9990
vn 0.0000 -0.8349 -0.5505
usemtl Default_OBJ.001
s 1
f 1/1/1 2/2/1 3/3/2
f 4/4/2 1/1/1 3/3/2
f 1/1/1 5/5/3 2/2/1
f 5/5/3 6/6/4 2/2/1
f 4/4/2 3/3/2 7/7/5
f 8/8/5 4/4/2 7/7/5
f 8/8/5 7/7/5 9/9/6
f 10/10/6 8/8/5 9/9/6
f 10/10/6 9/9/6 11/11/7
f 12/12/7 10/10/6 11/11/7
f 13/13/8 14/14/9 15/15/3
f 16/16/10 13/13/8 15/15/3
f 13/13/8 17/17/11 14/14/9
f 17/17/11 18/18/12 14/14/9
f 17/17/11 19/19/13 18/18/12
f 19/19/13 20/20/13 18/18/12
f 19/19/13 21/21/14 20/20/13
f 21/21/14 22/22/14 20/20/13
f 21/21/14 23/23/15 22/22/14
f 23/23/15 24/24/16 22/22/14
f 25/25/17 26/26/17 27/27/15
f 28/28/18 25/25/17 27/27/15
f 25/25/17 29/29/19 26/26/17
f 29/29/19 30/30/19 26/26/17
f 29/29/19 31/31/20 30/30/19
f 31/31/20 32/32/20 30/30/19
f 31/31/20 33/33/21 32/32/20
f 33/33/21 34/34/21 32/32/20
f 33/33/21 35/35/22 34/34/21
f 35/35/22 36/36/22 34/34/21
f 37/37/23 38/38/23 39/39/22
f 40/40/22 37/37/23 39/39/22
f 37/37/23 41/41/24 38/38/23
f 41/41/24 42/42/24 38/38/23
f 41/41/24 43/43/25 42/42/24
f 43/43/25 44/44/25 42/42/24
f 43/43/25 45/45/26 44/44/25
f 45/45/26 46/46/26 44/44/25
f 45/45/26 47/47/7 46/46/26
f 47/47/7 48/48/7 46/46/26
f 49/49/8 50/50/11 51/51/11
f 52/52/8 49/49/8 51/51/11
f 51/51/11 50/50/11 53/53/27
f 50/50/11 54/54/27 53/53/27
f 53/53/27 54/54/27 55/55/14
f 54/54/27 56/56/14 55/55/14
f 57/57/3 49/49/8 52/52/8
f 58/58/3 57/57/3 52/52/8
f 55/55/14 56/56/14 59/59/15
f 56/56/14 60/60/15 59/59/15
f 61/61/17 62/62/15 63/63/15
f 64/64/17 61/61/17 63/63/15
f 65/65/19 61/61/17 64/64/17
f 66/66/19 65/65/19 64/64/17
f 67/67/20 65/65/19 66/66/19
f 68/68/20 67/67/20 66/66/19
f 69/69/28 67/67/20 68/68/20
f 70/70/28 69/69/28 68/68/20
f 71/71/22 69/69/28 70/70/28
f 72/72/22 71/71/22 70/70/28
f 73/73/29 74/74/29 75/75/29
f 76/76/29 73/73/29 75/75/29
f 75/75/29 74/74/29 77/77/29
f 74/74/29 78/78/29 77/77/29
f 77/77/29 78/78/29 79/79/29
f 78/78/29 80/80/29 79/79/29
f 79/79/29 80/80/29 81/81/29
f 80/80/29 82/82/29 81/81/29
f 81/81/29 82/82/29 83/83/29
f 82/82/29 84/84/29 83/83/29
f 83/83/29 84/84/29 85/85/29
f 84/84/29 86/86/29 85/85/29
f 85/85/29 86/86/29 87/87/29
f 86/86/29 88/88/29 87/87/29
f 87/87/29 88/88/29 89/89/29
f 88/88/29 90/90/29 89/89/29
f 89/89/29 90/90/29 91/91/29
f 90/90/29 92/92/29 91/91/29
f 91/91/29 92/92/29 93/93/29
f 92/92/29 94/94/29 93/93/29
f 93/93/29 94/94/29 95/95/29
f 94/94/29 96/96/29 95/95/29
f 95/95/29 96/96/29 97/97/29
f 96/96/29 98/98/29 97/97/29
f 97/97/29 98/98/29 99/99/29
f 98/98/29 100/100/29 99/99/29
f 99/99/29 100/100/29 101/101/29
f 100/100/29 102/102/29 101/101/29
f 101/101/29 102/102/29 103/103/29
f 102/102/29 104/104/29 103/103/29
f 103/103/29 104/104/29 105/105/29
f 104/104/29 106/106/29 105/105/29
f 105/105/29 106/106/29 107/107/29
f 106/106/29 108/108/29 107/107/29
f 107/107/29 108/108/29 109/109/29
f 108/108/29 110/110/29 109/109/29
f 109/109/29 110/110/29 111/111/29
f 110/110/29 112/112/29 111/111/29
f 111/111/29 112/112/29 76/76/29
f 112/112/29 73/73/29 76/76/29
f 113/113/30 114/114/30 115/115/30
f 116/116/30 113/113/30 115/115/30
f 117/117/30 113/113/30 116/116/30
f 118/118/30 117/117/30 116/116/30
f 119/119/30 117/117/30 118/118/30
f 120/120/30 119/119/30 118/118/30
f 121/121/30 119/119/30 120/120/30
f 122/122/30 121/121/30 120/120/30
f 123/123/30 121/121/30 122/122/30
f 124/124/30 123/123/30 122/122/30
f 125/125/30 123/123/30 124/124/30
f 126/126/30 125/125/30 124/124/30
f 127/127/30 125/125/30 126/126/30
f 128/128/30 127/127/30 126/126/30
f 129/129/30 127/127/30 128/128/30
f 130/130/30 129/129/30 128/128/30
f 131/131/30 129/129/30 130/130/30
f 132/132/30 131/131/30 130/130/30
f 133/133/30 131/131/30 132/132/30
f 134/134/30 133/133/30 132/132/30
f 135/135/30 133/133/30 134/134/30
f 136/136/30 135/135/30 134/134/30
f 137/137/30 135/135/30 136/136/30
f 138/138/30 137/137/30 136/136/30
f 139/139/30 137/137/30 138/138/30
f 140/140/30 139/139/30 138/138/30
f 141/141/30 139/139/30 140/140/30
f 142/142/30 141/141/30 140/140/30
f 143/143/30 141/141/30 142/142/30
f 144/144/30 143/143/30 142/142/30
f 145/145/30 143/143/30 144/144/30
f 146/146/30 145/145/30 144/144/30
f 147/147/30 145/145/30 146/146/30
f 148/148/30 147/147/30 146/146/30
f 149/149/30 147/147/30 148/148/30
f 150/150/30 149/149/30 148/148/30
f 151/151/30 149/149/30 150/150/30
f 152/152/30 151/151/30 150/150/30
f 114/114/30 151/151/30 152/152/30
f 115/115/30 114/114/30 152/152/30
f 153/153/30 154/154/30 155/155/30
f 155/155/30 156/156/30 153/153/30
f 155/155/30 157/157/30 156/156/30
f 157/157/30 158/158/30 156/156/30
f 157/157/30 159/159/30 158/158/30
f 159/159/30 160/160/30 158/158/30
f 159/159/30 161/161/30 160/160/30
f 161/161/30 162/162/30 160/160/30
f 161/161/30 163/163/30 162/162/30
f 163/163/30 164/164/30 162/162/30
f 163/163/30 165/165/30 164/164/30
f 165/165/30 166/166/30 164/164/30
f 165/165/30 167/167/30 166/166/30
f 167/167/30 168/168/30 166/166/30
f 167/167/30 169/169/30 168/168/30
f 169/169/30 170/170/30 168/168/30
f 169/169/30 171/171/30 170/170/30
f 171/171/30 172/172/30 170/170/30
f 173/173/22 174/174/23 175/175/23
f 176/176/22 173/173/22 175/175/23
f 175/175/23 174/174/23 177/177/24
f 174/174/23 178/178/24 177/177/24
f 177/177/24 178/178/24 179/179/31
f 178/178/24 180/180/31 179/179/31
f 179/179/31 180/180/31 181/181/32
f 180/180/31 182/182/32 181/181/32
f 181/181/32 182/182/32 183/183/7
f 182/182/32 184/184/7 183/183/7
f 185/185/15 186/186/17 187/187/17
f 188/188/15 185/185/15 187/187/17
f 187/187/17 186/186/17 189/189/19
f 186/186/17 190/190/19 189/189/19
f 189/189/19 190/190/19 191/191/20
f 190/190/19 192/192/20 191/191/20
f 191/191/20 192/192/20 193/193/28
f 192/192/20 194/194/28 193/193/28
f 193/193/28 194/194/28 195/195/22
f 194/194/28 196/196/22 195/195/22
f 197/197/33 198/198/34 199/199/34
f 200/200/33 197/197/33 199/199/34
f 199/199/34 198/198/34 201/201/3
f 198/198/34 202/202/3 201/201/3
f 203/203/5 197/197/33 200/200/33
f 204/204/5 203/203/5 200/200/33
f 205/205/35 203/203/5 204/204/5
f 206/206/35 205/205/35 204/204/5
f 207/207/7 205/205/35 206/206/35
f 208/208/7 207/207/7 206/206/35
f 209/209/29 210/210/29 211/211/29
f 211/211/29 212/212/29 209/209/29
f 212/212/29 213/213/29 209/209/29
f 212/212/29 214/214/29 213/213/29
f 214/214/29 215/215/29 213/213/29
f 214/214/29 216/216/29 215/215/29
f 216/216/29 217/217/29 215/215/29
f 216/216/29 218/218/29 217/217/29
f 218/218/29 219/219/29 217/217/29
f 218/218/29 220/220/29 219/219/29
f 220/220/29 221/221/29 219/219/29
f 220/220/29 222/222/29 221/221/29
f 222/222/29 223/223/29 221/221/29
f 222/222/29 224/224/29 223/223/29
f 224/224/29 225/225/29 223/223/29
f 224/224/29 226/226/29 225/225/29
f 226/226/29 227/227/29 225/225/29
f 226/226/29 228/228/29 227/227/29
f 229/229/7 230/230/32 231/231/32
f 232/232/7 229/229/7 231/231/32
f 231/231/32 230/230/32 233/233/31
f 230/230/32 234/234/31 233/233/31
f 233/233/31 234/234/31 235/235/24
f 234/234/31 236/236/24 235/235/24
f 235/235/24 236/236/24 237/237/23
f 236/236/24 238/238/23 237/237/23
f 237/237/23 238/238/23 239/239/22
f 238/238/23 240/240/22 239/239/22
f 241/241/1 242/242/33 243/243/33
f 244/244/1 241/241/1 243/243/33
f 245/245/3 241/241/1 244/244/1
f 246/246/3 245/245/3 244/244/1
f 243/243/33 242/242/33 247/247/36
f 242/242/33 248/248/36 247/247/36
f 247/247/36 248/248/36 249/249/35
f 248/248/36 250/250/35 249/249/35
f 249/249/35 250/250/35 251/251/7
f 250/250/35 252/252/7 251/251/7
f 253/253/27 254/254/11 255/255/11
f 256/256/27 253/253/27 255/255/11
f 257/257/37 253/253/27 256/256/27
f 258/258/37 257/257/37 256/256/27
f 259/259/15 257/257/37 258/258/37
f 260/260/15 259/259/15 258/258/37
f 255/255/11 254/254/11 261/261/8
f 254/254/11 262/262/8 261/261/8
f 261/261/8 262/262/8 263/263/3
f 262/262/8 264/264/3 263/263/3
