# Blender v2.80 (sub 37) OBJ File: ''
# www.blender.org
mtllib LongSeatPost.mtl
g Longer
v 0.004907 -0.218114 -0.011847
v 0.000000 -0.218461 -0.012823
v 0.000000 -0.042668 -0.012630
v 0.004833 -0.042668 -0.011668
v 0.009068 -0.218114 -0.009068
v 0.008931 -0.042668 -0.008931
v 0.011847 -0.218114 -0.004907
v 0.011668 -0.042668 -0.004833
v 0.012823 -0.218114 -0.000000
v 0.012630 -0.042668 -0.000000
v 0.011847 -0.218114 0.004907
v 0.011668 -0.042668 0.004833
v 0.009068 -0.218114 0.009068
v 0.008931 -0.042668 0.008931
v 0.004907 -0.218114 0.011847
v 0.004833 -0.042668 0.011668
v 0.000000 -0.218114 0.012823
v 0.000000 -0.042668 0.012630
v 0.005476 -0.039952 0.013220
v 0.000000 -0.039952 0.014310
v 0.000000 -0.042668 0.012630
v 0.004833 -0.042668 0.011668
v 0.008931 -0.042668 0.008931
v 0.010118 -0.039952 0.010118
v 0.011668 -0.042668 0.004833
v 0.013220 -0.039952 0.005476
v 0.012630 -0.042668 -0.000000
v 0.014310 -0.039952 -0.000000
v 0.009110 -0.038176 0.017903
v 0.000000 -0.038789 0.017617
v 0.020403 -0.037845 0.007460
v 0.015504 -0.036202 0.018873
v 0.020403 -0.035766 0.014629
v 0.020403 -0.032815 0.020399
v 0.013220 -0.039952 -0.005476
v 0.020403 -0.038661 -0.000000
v 0.020403 -0.037845 -0.007460
v 0.011668 -0.042668 -0.004833
v 0.010118 -0.039952 -0.010118
v 0.008931 -0.042668 -0.008931
v 0.005476 -0.039952 -0.013220
v 0.009110 -0.038176 -0.017903
v 0.000000 -0.038789 -0.017617
v 0.000000 -0.039952 -0.014310
v 0.004833 -0.042668 -0.011668
v 0.000000 -0.042668 -0.012630
v 0.015504 -0.036202 -0.018873
v 0.020403 -0.035766 -0.014629
v 0.020403 -0.032815 -0.020399
v 0.000000 -0.032815 0.020397
v 0.009110 -0.038176 0.017903
v 0.015504 -0.036202 0.018873
v 0.000000 -0.038789 0.017617
v 0.020403 -0.032815 0.020399
v 0.000000 -0.030175 0.022661
v 0.020403 -0.030175 0.022661
v 0.000000 -0.028952 0.021954
v 0.020403 -0.028952 0.021954
v 0.020403 -0.028952 -0.021954
v 0.020403 -0.032815 -0.020399
v 0.020403 -0.030175 -0.022661
v 0.020403 -0.028952 0.021954
v 0.020403 -0.035766 -0.014629
v 0.020403 -0.037845 -0.007460
v 0.020403 -0.038661 -0.000000
v 0.020403 -0.037845 0.007460
v 0.020403 -0.035766 0.014629
v 0.020403 -0.030175 0.022661
v 0.020403 -0.032815 0.020399
v 0.020403 -0.028952 -0.021954
v 0.020403 -0.030175 -0.022661
v 0.000000 -0.030175 -0.022661
v 0.000000 -0.028952 -0.021954
v 0.000000 -0.032815 -0.020397
v 0.020403 -0.032815 -0.020399
v 0.015504 -0.036202 -0.018873
v 0.009110 -0.038176 -0.017903
v 0.000000 -0.038789 -0.017617
v -0.004907 -0.218114 -0.011847
v -0.004833 -0.042668 -0.011668
v 0.000000 -0.042668 -0.012630
v 0.000000 -0.218114 -0.012823
v -0.009068 -0.218114 -0.009068
v -0.008931 -0.042668 -0.008931
v -0.011847 -0.218114 -0.004907
v -0.011668 -0.042668 -0.004833
v -0.012823 -0.218114 -0.000000
v -0.012630 -0.042668 -0.000000
v -0.011847 -0.218114 0.004907
v -0.011668 -0.042668 0.004833
v -0.009068 -0.218114 0.009068
v -0.008931 -0.042668 0.008931
v -0.004907 -0.218114 0.011847
v -0.004833 -0.042668 0.011668
v -0.000054 -0.218114 0.012823
v 0.000000 -0.042668 0.012630
v -0.005476 -0.039952 0.013220
v -0.004833 -0.042668 0.011668
v 0.000000 -0.042668 0.012630
v 0.000000 -0.039952 0.014310
v -0.008931 -0.042668 0.008931
v -0.010118 -0.039952 0.010118
v -0.009110 -0.038176 0.017903
v -0.011668 -0.042668 0.004833
v -0.013220 -0.039952 0.005476
v -0.012630 -0.042668 -0.000000
v -0.014310 -0.039952 -0.000000
v -0.020403 -0.037845 0.007460
v -0.020403 -0.038661 -0.000000
v 0.000000 -0.038789 0.017617
v -0.015504 -0.036202 0.018873
v -0.020403 -0.035766 0.014629
v -0.020403 -0.032815 0.020399
v -0.020403 -0.037845 -0.007460
v -0.013220 -0.039952 -0.005476
v -0.010118 -0.039952 -0.010118
v -0.011668 -0.042668 -0.004833
v -0.008931 -0.042668 -0.008931
v -0.005476 -0.039952 -0.013220
v -0.004833 -0.042668 -0.011668
v 0.000000 -0.039952 -0.014310
v 0.000000 -0.038789 -0.017617
v -0.009110 -0.038176 -0.017903
v -0.015504 -0.036202 -0.018873
v 0.000000 -0.042668 -0.012630
v -0.020403 -0.035766 -0.014629
v -0.020403 -0.032815 -0.020399
v -0.009110 -0.038176 0.017903
v 0.000000 -0.032815 0.020397
v -0.015504 -0.036202 0.018873
v 0.000000 -0.038789 0.017617
v -0.020403 -0.032815 0.020399
v 0.000000 -0.030175 0.022661
v -0.020403 -0.030175 0.022661
v 0.000000 -0.028952 0.021954
v -0.020403 -0.028952 0.021954
v -0.020403 -0.028952 -0.021954
v 0.000000 -0.028952 -0.021954
v 0.000000 -0.030175 -0.022661
v -0.020403 -0.030175 -0.022661
v 0.000000 -0.032815 -0.020397
v -0.020403 -0.032815 -0.020399
v -0.015504 -0.036202 -0.018873
v -0.009110 -0.038176 -0.017903
v 0.000000 -0.038789 -0.017617
v -0.020403 -0.032815 -0.020399
v -0.020403 -0.028952 -0.021954
v -0.020403 -0.030175 -0.022661
v -0.020403 -0.028952 0.021954
v -0.020403 -0.035766 -0.014629
v -0.020403 -0.037845 -0.007460
v -0.020403 -0.038661 -0.000000
v -0.020403 -0.037845 0.007460
v -0.020403 -0.035766 0.014629
v -0.020403 -0.030175 0.022661
v -0.020403 -0.032815 0.020399
vt 0.992302 0.125295
vt 0.992302 0.142238
vt 0.794709 0.142331
vt 0.794709 0.125385
vt 0.992302 0.108352
vt 0.794709 0.108438
vt 0.992302 0.091416
vt 0.794709 0.091492
vt 0.992302 0.074482
vt 0.794709 0.074553
vt 0.992302 0.057555
vt 0.794709 0.057613
vt 0.992302 0.040631
vt 0.794709 0.040671
vt 0.992302 0.023715
vt 0.794709 0.023733
vt 0.992302 0.006805
vt 0.794709 0.006805
vt 0.930289 0.974066
vt 0.934326 0.993607
vt 0.921964 0.993818
vt 0.918997 0.978725
vt 0.910717 0.966432
vt 0.919253 0.957828
vt 0.898534 0.958400
vt 0.903044 0.947189
vt 0.884310 0.955819
vt 0.884074 0.943616
vt 0.946787 0.960452
vt 0.946444 0.993246
vt 0.909802 0.921747
vt 0.950618 0.936959
vt 0.935847 0.920019
vt 0.958143 0.916883
vt 0.865285 0.947906
vt 0.883634 0.922576
vt 0.857560 0.922847
vt 0.870201 0.958919
vt 0.849557 0.959066
vt 0.858342 0.967367
vt 0.839151 0.975414
vt 0.822362 0.962691
vt 0.823910 0.994644
vt 0.835718 0.994588
vt 0.850467 0.979795
vt 0.847797 0.994452
vt 0.817619 0.939587
vt 0.831644 0.922163
vt 0.809366 0.919922
vt 0.976806 0.990421
vt 0.956665 0.959489
vt 0.964113 0.937746
vt 0.954413 0.990447
vt 0.976729 0.921079
vt 0.988625 0.990408
vt 0.988544 0.921065
vt 0.993426 0.990401
vt 0.993347 0.921060
vt 0.821333 0.880261
vt 0.808281 0.874789
vt 0.820064 0.875631
vt 0.716332 0.986336
vt 0.787361 0.881684
vt 0.765208 0.894038
vt 0.745406 0.910109
vt 0.729539 0.930074
vt 0.717411 0.952351
vt 0.711689 0.985114
vt 0.710729 0.973340
vt 0.776383 0.922341
vt 0.781183 0.922347
vt 0.781107 0.991687
vt 0.776306 0.991682
vt 0.792928 0.991700
vt 0.792995 0.922360
vt 0.805609 0.939021
vt 0.813066 0.960757
vt 0.815332 0.991727
vt 0.992302 0.125295
vt 0.794709 0.125385
vt 0.794709 0.142331
vt 0.992302 0.142238
vt 0.992302 0.108352
vt 0.794709 0.108438
vt 0.992302 0.091416
vt 0.794709 0.091492
vt 0.992302 0.074482
vt 0.794709 0.074553
vt 0.992302 0.057555
vt 0.794709 0.057613
vt 0.992302 0.040631
vt 0.794709 0.040671
vt 0.992302 0.023715
vt 0.794709 0.023733
vt 0.992302 0.006805
vt 0.794709 0.006805
vt 0.930289 0.974066
vt 0.918997 0.978725
vt 0.921964 0.993818
vt 0.934326 0.993607
vt 0.910717 0.966432
vt 0.919253 0.957828
vt 0.946787 0.960452
vt 0.898534 0.958400
vt 0.903044 0.947189
vt 0.884310 0.955819
vt 0.884074 0.943616
vt 0.909802 0.921747
vt 0.883634 0.922576
vt 0.946444 0.993246
vt 0.950618 0.936959
vt 0.935847 0.920019
vt 0.958143 0.916883
vt 0.857560 0.922847
vt 0.865285 0.947906
vt 0.849557 0.959066
vt 0.870201 0.958919
vt 0.858342 0.967367
vt 0.839151 0.975414
vt 0.850467 0.979795
vt 0.835718 0.994588
vt 0.823910 0.994644
vt 0.822362 0.962691
vt 0.817619 0.939587
vt 0.847797 0.994452
vt 0.831644 0.922163
vt 0.809366 0.919922
vt 0.956665 0.959489
vt 0.976806 0.990421
vt 0.964113 0.937746
vt 0.954413 0.990447
vt 0.976729 0.921079
vt 0.988625 0.990408
vt 0.988544 0.921065
vt 0.993426 0.990401
vt 0.993347 0.921060
vt 0.776383 0.922341
vt 0.776306 0.991682
vt 0.781107 0.991687
vt 0.781183 0.922347
vt 0.792928 0.991700
vt 0.792995 0.922360
vt 0.805609 0.939021
vt 0.813066 0.960757
vt 0.815332 0.991727
vt 0.808281 0.874789
vt 0.821333 0.880261
vt 0.820064 0.875631
vt 0.716332 0.986336
vt 0.787361 0.881684
vt 0.765208 0.894038
vt 0.745406 0.910109
vt 0.729539 0.930074
vt 0.717411 0.952351
vt 0.711689 0.985114
vt 0.710729 0.973340
vn 0.3786 0.0011 -0.9256
vn 0.1950 0.0011 -0.9808
vn 0.1952 0.0011 -0.9808
vn 0.3827 0.0011 -0.9239
vn 0.7071 0.0011 -0.7071
vn 0.9239 0.0011 -0.3826
vn 1.0000 0.0011 -0.0000
vn 0.9239 0.0011 0.3826
vn 0.9239 0.0011 0.3827
vn 0.7071 0.0011 0.7071
vn 0.3826 0.0011 0.9239
vn 0.1951 0.0011 0.9808
vn 0.1952 0.0011 0.9808
vn 0.2309 -0.7905 0.5673
vn 0.1192 -0.7781 0.6167
vn 0.1669 -0.5187 0.8385
vn 0.3254 -0.5260 0.7857
vn 0.6015 -0.5258 0.6014
vn 0.3933 -0.8319 0.3915
vn 0.7857 -0.5260 0.3255
vn 0.5474 -0.8022 0.2385
vn 0.8505 -0.5261 0.0000
vn 0.5856 -0.8106 0.0000
vn 0.1818 -0.9473 0.2637
vn 0.0574 -0.9451 0.3216
vn 0.2590 -0.9451 0.1993
vn 0.3327 -0.8911 0.3086
vn 0.3715 -0.8639 0.3401
vn 0.4281 -0.8046 0.4115
vn 0.5474 -0.8022 -0.2385
vn 0.2365 -0.9716 0.0000
vn 0.2590 -0.9451 -0.1993
vn 0.7857 -0.5260 -0.3255
vn 0.3933 -0.8319 -0.3915
vn 0.6015 -0.5258 -0.6014
vn 0.2309 -0.7905 -0.5673
vn 0.1819 -0.9473 -0.2636
vn 0.0574 -0.9451 -0.3216
vn 0.1192 -0.7781 -0.6167
vn 0.3254 -0.5260 -0.7857
vn 0.1669 -0.5187 -0.8385
vn 0.3327 -0.8911 -0.3086
vn 0.3715 -0.8639 -0.3401
vn 0.4281 -0.8046 -0.4115
vn -0.0012 -0.4814 0.8765
vn -0.0024 -0.4253 0.9051
vn -0.0024 -0.4196 0.9077
vn -0.0001 -0.4219 0.9066
vn -0.0000 -0.5362 0.8441
vn -0.0000 -0.0922 0.9957
vn 0.0000 -0.0920 0.9958
vn 0.0000 0.5001 0.8660
vn 1.0000 -0.0000 0.0000
vn 0.0000 0.5001 -0.8660
vn -0.0000 -0.0920 -0.9958
vn 0.0000 -0.0922 -0.9957
vn -0.0006 -0.4814 -0.8765
vn -0.0001 -0.5362 -0.8441
vn -0.0024 -0.4196 -0.9077
vn -0.0024 -0.4252 -0.9051
vn -0.0001 -0.4219 -0.9066
vn -0.3826 0.0011 -0.9239
vn -0.3827 0.0011 -0.9239
vn -0.1952 0.0011 -0.9808
vn -0.1951 0.0011 -0.9808
vn -0.7071 0.0011 -0.7071
vn -0.9239 0.0011 -0.3826
vn -1.0000 0.0011 -0.0000
vn -0.9239 0.0011 0.3826
vn -0.9239 0.0011 0.3827
vn -0.7071 0.0011 0.7071
vn -0.3836 0.0011 0.9235
vn -0.3827 0.0011 0.9239
vn -0.1971 0.0011 0.9804
vn -0.1952 0.0011 0.9808
vn -0.2309 -0.7905 0.5673
vn -0.3254 -0.5260 0.7857
vn -0.1669 -0.5187 0.8385
vn -0.1192 -0.7781 0.6167
vn -0.6015 -0.5258 0.6014
vn -0.3929 -0.8319 0.3919
vn -0.1819 -0.9473 0.2636
vn -0.7857 -0.5260 0.3255
vn -0.5474 -0.8022 0.2385
vn -0.8505 -0.5261 -0.0000
vn -0.5856 -0.8106 -0.0000
vn -0.2590 -0.9451 0.1993
vn -0.2366 -0.9716 0.0000
vn -0.0574 -0.9451 0.3216
vn -0.3327 -0.8911 0.3086
vn -0.3715 -0.8639 0.3401
vn -0.4281 -0.8046 0.4115
vn -0.2590 -0.9451 -0.1993
vn -0.5474 -0.8022 -0.2385
vn -0.3933 -0.8319 -0.3915
vn -0.7857 -0.5260 -0.3255
vn -0.6015 -0.5258 -0.6014
vn -0.2309 -0.7905 -0.5673
vn -0.3254 -0.5260 -0.7857
vn -0.1192 -0.7781 -0.6167
vn -0.0574 -0.9451 -0.3216
vn -0.1819 -0.9473 -0.2636
vn -0.3327 -0.8911 -0.3086
vn -0.1669 -0.5187 -0.8385
vn -0.3715 -0.8639 -0.3401
vn -0.4281 -0.8046 -0.4115
vn 0.0024 -0.4252 0.9051
vn 0.0006 -0.4814 0.8765
vn 0.0024 -0.4197 0.9077
vn 0.0001 -0.4219 0.9066
vn 0.0001 -0.5362 0.8441
vn 0.0000 -0.0924 -0.9957
vn 0.0012 -0.4814 -0.8765
vn 0.0001 -0.5362 -0.8441
vn 0.0024 -0.4197 -0.9077
vn 0.0024 -0.4252 -0.9051
vn 0.0001 -0.4219 -0.9066
vn -1.0000 0.0000 0.0000
usemtl Default_OBJ.001
s 1
f 1/1/1 2/2/2 3/3/3
f 4/4/4 1/1/1 3/3/3
f 5/5/5 1/1/1 4/4/4
f 6/6/5 5/5/5 4/4/4
f 7/7/6 5/5/5 6/6/5
f 8/8/6 7/7/6 6/6/5
f 9/9/7 7/7/6 8/8/6
f 10/10/7 9/9/7 8/8/6
f 11/11/8 9/9/7 10/10/7
f 12/12/9 11/11/8 10/10/7
f 13/13/10 11/11/8 12/12/9
f 14/14/10 13/13/10 12/12/9
f 15/15/11 13/13/10 14/14/10
f 16/16/11 15/15/11 14/14/10
f 17/17/12 15/15/11 16/16/11
f 18/18/13 17/17/12 16/16/11
f 19/19/14 20/20/15 21/21/16
f 22/22/17 19/19/14 21/21/16
f 22/22/17 23/23/18 19/19/14
f 23/23/18 24/24/19 19/19/14
f 23/23/18 25/25/20 24/24/19
f 25/25/20 26/26/21 24/24/19
f 25/25/20 27/27/22 26/26/21
f 27/27/22 28/28/23 26/26/21
f 20/20/15 19/19/14 29/29/24
f 29/29/24 19/19/14 24/24/19
f 30/30/25 20/20/15 29/29/24
f 31/31/26 24/24/19 26/26/21
f 31/31/26 29/29/24 24/24/19
f 31/31/26 32/32/27 29/29/24
f 31/31/26 33/33/28 32/32/27
f 33/33/28 34/34/29 32/32/27
f 28/28/23 27/27/22 35/35/30
f 28/28/23 35/35/30 36/36/31
f 26/26/21 28/28/23 36/36/31
f 31/31/26 26/26/21 36/36/31
f 35/35/30 37/37/32 36/36/31
f 27/27/22 38/38/33 35/35/30
f 35/35/30 38/38/33 39/39/34
f 37/37/32 35/35/30 39/39/34
f 38/38/33 40/40/35 39/39/34
f 39/39/34 40/40/35 41/41/36
f 39/39/34 41/41/36 42/42/37
f 37/37/32 39/39/34 42/42/37
f 43/43/38 42/42/37 41/41/36
f 44/44/39 43/43/38 41/41/36
f 41/41/36 45/45/40 44/44/39
f 40/40/35 45/45/40 41/41/36
f 45/45/40 46/46/41 44/44/39
f 47/47/42 37/37/32 42/42/37
f 47/47/42 48/48/43 37/37/32
f 47/47/42 49/49/44 48/48/43
f 50/50/45 51/51/46 52/52/47
f 50/50/45 53/53/48 51/51/46
f 50/50/45 52/52/47 54/54/49
f 55/55/50 50/50/45 54/54/49
f 56/56/51 55/55/50 54/54/49
f 57/57/52 55/55/50 56/56/51
f 58/58/52 57/57/52 56/56/51
f 59/59/53 60/60/53 61/61/53
f 62/62/53 60/60/53 59/59/53
f 62/62/53 63/63/53 60/60/53
f 62/62/53 64/64/53 63/63/53
f 62/62/53 65/65/53 64/64/53
f 62/62/53 66/66/53 65/65/53
f 62/62/53 67/67/53 66/66/53
f 68/68/53 67/67/53 62/62/53
f 69/69/53 67/67/53 68/68/53
f 70/70/54 71/71/55 72/72/56
f 73/73/54 70/70/54 72/72/56
f 72/72/56 71/71/55 74/74/57
f 71/71/55 75/75/58 74/74/57
f 75/75/58 76/76/59 74/74/57
f 76/76/59 77/77/60 74/74/57
f 74/74/57 77/77/60 78/78/61
f 79/79/62 80/80/63 81/81/64
f 82/82/65 79/79/62 81/81/64
f 79/79/62 83/83/66 80/80/63
f 83/83/66 84/84/66 80/80/63
f 83/83/66 85/85/67 84/84/66
f 85/85/67 86/86/67 84/84/66
f 85/85/67 87/87/68 86/86/67
f 87/87/68 88/88/68 86/86/67
f 87/87/68 89/89/69 88/88/68
f 89/89/69 90/90/70 88/88/68
f 89/89/69 91/91/71 90/90/70
f 91/91/71 92/92/71 90/90/70
f 91/91/71 93/93/72 92/92/71
f 93/93/72 94/94/73 92/92/71
f 93/93/72 95/95/74 94/94/73
f 95/95/74 96/96/75 94/94/73
f 97/97/76 98/98/77 99/99/78
f 100/100/79 97/97/76 99/99/78
f 101/101/80 98/98/77 97/97/76
f 102/102/81 101/101/80 97/97/76
f 102/102/81 97/97/76 103/103/82
f 97/97/76 100/100/79 103/103/82
f 104/104/83 101/101/80 102/102/81
f 105/105/84 104/104/83 102/102/81
f 106/106/85 104/104/83 105/105/84
f 107/107/86 106/106/85 105/105/84
f 105/105/84 108/108/87 107/107/86
f 108/108/87 105/105/84 102/102/81
f 108/108/87 102/102/81 103/103/82
f 108/108/87 109/109/88 107/107/86
f 100/100/79 110/110/89 103/103/82
f 111/111/90 108/108/87 103/103/82
f 112/112/91 108/108/87 111/111/90
f 113/113/92 112/112/91 111/111/90
f 109/109/88 114/114/93 107/107/86
f 114/114/93 115/115/94 107/107/86
f 106/106/85 107/107/86 115/115/94
f 114/114/93 116/116/95 115/115/94
f 117/117/96 115/115/94 116/116/95
f 117/117/96 106/106/85 115/115/94
f 118/118/97 117/117/96 116/116/95
f 118/118/97 116/116/95 119/119/98
f 120/120/99 118/118/97 119/119/98
f 120/120/99 119/119/98 121/121/100
f 122/122/101 121/121/100 119/119/98
f 123/123/102 122/122/101 119/119/98
f 123/123/102 119/119/98 116/116/95
f 114/114/93 123/123/102 116/116/95
f 114/114/93 124/124/103 123/123/102
f 125/125/104 120/120/99 121/121/100
f 126/126/105 124/124/103 114/114/93
f 127/127/106 124/124/103 126/126/105
f 128/128/107 129/129/108 130/130/109
f 131/131/110 129/129/108 128/128/107
f 130/130/109 129/129/108 132/132/111
f 129/129/108 133/133/50 132/132/111
f 133/133/50 134/134/51 132/132/111
f 133/133/50 135/135/52 134/134/51
f 135/135/52 136/136/52 134/134/51
f 137/137/54 138/138/54 139/139/56
f 140/140/112 137/137/54 139/139/56
f 140/140/112 139/139/56 141/141/113
f 142/142/114 140/140/112 141/141/113
f 143/143/115 142/142/114 141/141/113
f 144/144/116 143/143/115 141/141/113
f 144/144/116 141/141/113 145/145/117
f 146/146/118 147/147/118 148/148/118
f 146/146/118 149/149/118 147/147/118
f 150/150/118 149/149/118 146/146/118
f 151/151/118 149/149/118 150/150/118
f 152/152/118 149/149/118 151/151/118
f 153/153/118 149/149/118 152/152/118
f 154/154/118 149/149/118 153/153/118
f 154/154/118 155/155/118 149/149/118
f 156/156/118 155/155/118 154/154/118
